<?xml version="1.0" encoding="utf-8"?>
<!-- Generator: Adobe Illustrator 21.1.0, SVG Export Plug-In . SVG Version: 6.00 Build 0)  -->
<svg version="1.1" id="圖層_1" xmlns="http://www.w3.org/2000/svg" xmlns:xlink="http://www.w3.org/1999/xlink" x="0px" y="0px"
	 viewBox="0 0 841.9 160.9" style="enable-background:new 0 0 841.9 160.9;" xml:space="preserve">
<style type="text/css">
	.st0{fill:#2193B0;}
</style>
<path class="st0" d="M285.9,110.6v-9.1c0-29.4,17-48.7,51.5-48.7c32.6,0,46.9,19.6,46.9,48.3v16.5h-66.7
	c0.7,14.1,7.1,20.4,24.7,20.4c11.5,0,23-2.1,33.7-6.3l5.7,21.5c-13,5.2-26.8,7.8-40.8,7.6C300.9,160.9,285.9,141.1,285.9,110.6z
	 M317.6,97.2H356v-2.6c0-11.3-4.6-20.2-18.5-20.2C323.1,74.4,317.6,83.3,317.6,97.2L317.6,97.2z M427.6,142.9v15.7h-30V3l31.7-2.8
	v69.2c5.8-10.7,17.3-17.2,29.5-16.5c29.1,0,43.2,21.8,43.1,50.7v6.5c0,29-14,50.7-43.1,50.7C445.8,161.7,433.5,154.6,427.6,142.9z
	 M429.3,101.4v10.9c0,14.9,7.1,23.9,20,23.9c15.2,0,20.9-10.9,20.9-25.5v-7.9c0-14.6-5.7-25.5-20.9-25.5
	C436.4,77.4,429.3,86.5,429.3,101.4z M81.6,110.1v-6.6c0-28.9,14-50.7,43.1-50.7c12.8-0.8,24.8,6.4,30.2,18.1V55h30.4v103.6h-30.4
	v-15.7c-5.4,11.6-17.4,18.7-30.2,17.8C95.5,160.8,81.6,139,81.6,110.1z M113.5,103.1v7.4c0,15.5,5.6,25.7,20.4,25.7
	c13,0,19.6-9.3,19.6-24.1v-10.5c0-14.8-6.6-24.1-19.6-24.1C119.2,77.4,113.5,87.7,113.5,103.1L113.5,103.1z M627.6,109.4v-5.2
	c0-29.8,17.1-51.4,52.1-51.4s52.2,21.5,52.1,51.4v5.2c0,29.8-17.2,51.4-52.1,51.4S627.7,139.2,627.6,109.4L627.6,109.4z M659.4,102
	v9.6c0,13.7,5.7,24.6,20.4,24.6s20.4-11,20.4-24.6V102c0-13.7-5.7-24.6-20.4-24.6S659.4,88.4,659.4,102L659.4,102z M512.6,109.4
	v-5.2c0-29.8,17.1-51.4,52.1-51.4s52.2,21.5,52.1,51.4v5.2c0,29.8-17.2,51.4-52.1,51.4S512.7,139.2,512.6,109.4L512.6,109.4z
	 M544.4,102v9.6c0,13.7,5.7,24.6,20.4,24.6s20.4-11,20.4-24.6V102c0-13.7-5.7-24.6-20.4-24.6C550.1,77.4,544.4,88.4,544.4,102
	L544.4,102z M197.1,109.2v-4.8c0-31.7,17-51.6,54.2-51.6c10.6-0.5,21.1,2,30.4,7L274.6,82c-6.6-3.1-13.8-4.7-21.1-4.8
	c-17.2,0-24.7,9.8-24.7,26.5v6.1c0,16.8,7.5,26.6,24.7,26.6c7.3-0.1,14.5-1.7,21.1-4.8l7.1,22.2c-9.3,5-19.8,7.4-30.4,6.9
	C214.1,160.7,197.1,140.9,197.1,109.2L197.1,109.2z M808.2,158.5l-32.6-50.7v50.7h-31.7V3l31.7-2.8v104.2L806.9,55h33.7l-32.8,51.1
	l34.1,52.4L808.2,158.5z M21.4,158.5V80.6H0V55h21.4V39.6C21.4,13.7,32,0,61.5,0C67.7,0,73.9,0.3,80,1.1v24.1H65.9
	c-9.9,0-12.8,4.3-12.8,13.9V55h26.5L77,80.7H53.1v77.9L21.4,158.5z"/>
</svg>
