<?xml version="1.0" encoding="utf-8"?>
<!-- Generator: Adobe Illustrator 21.1.0, SVG Export Plug-In . SVG Version: 6.00 Build 0)  -->
<svg version="1.1" id="圖層_1" xmlns="http://www.w3.org/2000/svg" xmlns:xlink="http://www.w3.org/1999/xlink" x="0px" y="0px"
	 viewBox="0 0 595.1 595.3" style="enable-background:new 0 0 595.1 595.3;" xml:space="preserve">
<style type="text/css">
	.st0{fill:#2193B0;}
</style>
<path class="st0" d="M572.7,0H24.2C11,0.3,0.3,10.9,0,24.2v545.1c-0.5,13.8,10.3,25.5,24.1,26c0,0,0,0,0.1,0h292.9V372h-74.6v-93
	h74.6v-74.4c0-76.3,48.5-115.3,117.5-115.3c33.6,0,61.6,3.7,69,3.7v80h-48.5c-37.3,0-46.6,18.6-46.6,44.6V279h93.3l-18.6,93h-74.7
	l1.9,223.2h160.4c13.2-0.3,23.9-10.9,24.2-24.2V24.2c1.2-12.1-7.6-22.9-19.7-24.1C574.5,0,573.6,0,572.7,0z"/>
</svg>
