<?xml version="1.0" encoding="utf-8"?>
<!-- Generator: Adobe Illustrator 21.1.0, SVG Export Plug-In . SVG Version: 6.00 Build 0)  -->
<svg version="1.1" id="圖層_1" xmlns="http://www.w3.org/2000/svg" xmlns:xlink="http://www.w3.org/1999/xlink" x="0px" y="0px"
	 viewBox="0 0 841.8 277" style="enable-background:new 0 0 841.8 277;" xml:space="preserve">
<style type="text/css">
	.st0{fill:#2193B0;}
</style>
<path class="st0" d="M526.6,236.3l26.5-11c5.6,14.5,19.3,24.2,34.9,24.6c22.8,0,37-14.1,37-40.6v-10h-1.1
	c-9.2,10.4-22.6,16.1-36.5,15.7c-37.2-1.2-66.6-31.8-66.4-69c-0.4-37.3,29-68.2,66.4-69.5c13.8-0.3,27.1,5.3,36.5,15.5h1.1V80.7
	h28.9V205c0,51.1-30.1,72-65.8,72C561.1,277.3,536.8,261.1,526.6,236.3z M551.5,146.1c-1.1,21.9,15.8,40.6,37.7,41.7
	c0.3,0,0.6,0,0.8,0c20.7,0,37-17.6,37-41.7c0-24.4-16.3-42.2-37-42.2c-22.1,0.8-39.4,19.3-38.6,41.4
	C551.5,145.5,551.5,145.8,551.5,146.1L551.5,146.1z M371.2,145.8c-0.6-37.7,29.5-68.7,67.2-69.3c0.8,0,1.5,0,2.3,0
	c37.7-0.7,68.8,29.3,69.5,66.9c0,0.8,0,1.5,0,2.3c0.5,37.8-29.8,68.8-67.5,69.3c-0.6,0-1.3,0-1.9,0c-37.8,0.6-68.9-29.6-69.5-67.3
	C371.2,147.1,371.2,146.5,371.2,145.8L371.2,145.8z M401.6,145.8c-1.1,22.1,15.9,40.9,38,42c0.4,0,0.7,0,1.1,0
	c22.1-0.5,39.6-18.9,39.1-41c0-0.3,0-0.7,0-1c1.2-22-15.7-40.8-37.7-41.9c-0.4,0-0.9,0-1.3,0c-22,0.4-39.5,18.7-39.1,40.7
	C401.6,144.9,401.6,145.4,401.6,145.8L401.6,145.8z M221.3,145.8c-0.6-37.7,29.5-68.7,67.2-69.3c0.8,0,1.5,0,2.3,0
	c37.7-0.7,68.8,29.3,69.5,67c0,0.8,0,1.5,0,2.3c0.5,37.8-29.8,68.8-67.6,69.3c-0.6,0-1.3,0-1.9,0c-37.8,0.6-68.8-29.6-69.4-67.3
	C221.4,147.1,221.4,146.5,221.3,145.8L221.3,145.8z M251.7,145.8c-1.1,22.1,15.9,40.9,38,42c0.3,0,0.7,0,1,0
	c22.1-0.5,39.6-18.9,39.1-41c0-0.3,0-0.7,0-1c1.2-22-15.7-40.8-37.7-41.9c-0.4,0-0.9,0-1.3,0c-22,0.5-39.5,18.7-39.1,40.7
	C251.7,145,251.7,145.4,251.7,145.8L251.7,145.8z M714.1,145.8c0-41.2,29.6-69.2,65.3-69.2c27,0.8,50.7,18.4,59.2,44.1l3.2,7.9
	l-92.6,38.3c5.8,13.2,19.1,21.5,33.6,21c14,0.1,26.9-7.2,34.1-19.2l23.6,15.7c-12.8,19.3-34.5,30.8-57.7,30.7
	c-37.4,0.5-68.2-29.4-68.7-66.8C714.1,147.4,714.2,146.6,714.1,145.8L714.1,145.8z M744.3,143.7l61.9-25.7
	c-4.9-9.6-15-15.4-25.7-14.7c-21,1-37.1,18.7-36.2,39.7C744.3,143.3,744.3,143.5,744.3,143.7L744.3,143.7z M0,107.5
	C0.8,47.9,49.4,0,109.1,0c27.5-0.4,54.1,10.2,73.7,29.6L162,50.4c-14.2-13.7-33.3-21.2-53-21c-42.6,0-77.1,34.5-77.1,77.1
	c0,0.3,0,0.7,0,1c-0.6,42.6,33.5,77.6,76.1,78.1c0.3,0,0.7,0,1,0c20.3,0.8,40.1-7,54.3-21.5c9.2-10,14.8-22.8,15.9-36.4H109V98.3h99
	c1,5.8,1.5,11.8,1.5,17.7c0.8,25.4-8.3,50-25.5,68.7c-19.5,20.3-46.8,31.3-75,30.1C49.4,215,0.8,167.1,0,107.5L0,107.5z
	 M671.7,210.8V7.9h29.7v202.9H671.7z M653.8,80.8L653.8,80.8z"/>
</svg>
