<?xml version="1.0" encoding="utf-8"?>
<!-- Generator: Adobe Illustrator 21.1.0, SVG Export Plug-In . SVG Version: 6.00 Build 0)  -->
<svg version="1.1" id="圖層_1" xmlns="http://www.w3.org/2000/svg" xmlns:xlink="http://www.w3.org/1999/xlink" x="0px" y="0px"
	 viewBox="0 0 595.3 595.3" style="enable-background:new 0 0 595.3 595.3;" xml:space="preserve">
<style type="text/css">
	.st0{fill:#2193B0;}
</style>
<path class="st0" d="M466.3,595.3H129C57.9,595.5,0.2,538,0,466.9c0-0.2,0-0.4,0-0.5V129C-0.1,57.9,57.4,0.1,128.5,0
	c0.2,0,0.3,0,0.5,0h337.3c71.1-0.1,128.8,57.4,129,128.4c0,0.2,0,0.4,0,0.5v337.3c0.1,71.1-57.4,128.8-128.4,129
	C466.7,595.3,466.5,595.3,466.3,595.3z M297.6,104.2c-106.8,0-193.5,86.6-193.5,193.5s86.6,193.5,193.5,193.5
	c20.4,0.1,40.7-3.1,60-9.4l11.4-4c4.1-1.4,6.3-5.8,5-9.9l-10.9-34.2c-1.1-3.2-4-5.3-7.3-5.4c-0.9,0-1.8,0.1-2.6,0.4l-11.4,4
	c-14.2,4.8-29.1,7.1-44.1,7c-78.4,0-141.9-63.5-141.9-141.9s63.5-141.9,141.9-141.9s141.9,63.5,141.9,141.9
	c-0.1,16.9-3.2,33.7-8.9,49.6c-4.4,12.3-14.5,22.3-22.3,22.3c-11,0-19.8-8.9-19.8-19.8V213.3c0.1-4.3-3.4-7.9-7.8-7.9
	c-0.1,0-0.1,0-0.2,0h-35.7c-4.1,0.2-7.4,3.4-7.9,7.4v3l-2.5-1.5c-45.8-24.7-102.9-7.6-127.6,38.2s-7.6,102.9,38.2,127.6
	c13.8,7.4,29.2,11.3,44.8,11.3c17.9,0,35.5-5.1,50.6-14.9l2-1l1,2c5.5,12.8,14.6,23.7,26.2,31.4c11.6,7.7,25.3,11.8,39.3,11.7
	c33.3-2.1,61.7-25,70.9-57c7.4-21.2,11.3-43.5,11.4-66C491,190.8,404.4,104.3,297.6,104.2z M289.7,344.3
	c-25.8,0-46.6-20.9-46.7-46.6c0-25.8,20.9-46.6,46.6-46.7c25.8,0,46.6,20.9,46.7,46.6l0,0C336.3,323.4,315.5,344.2,289.7,344.3z"/>
</svg>
