<?xml version="1.0" encoding="utf-8"?>
<!-- Generator: Adobe Illustrator 21.1.0, SVG Export Plug-In . SVG Version: 6.00 Build 0)  -->
<svg version="1.1" id="圖層_1" xmlns="http://www.w3.org/2000/svg" xmlns:xlink="http://www.w3.org/1999/xlink" x="0px" y="0px"
	 viewBox="0 0 841.8 195.3" style="enable-background:new 0 0 841.8 195.3;" xml:space="preserve">
<style type="text/css">
	.st0{fill:#2193B0;}
</style>
<path class="st0" d="M789.5,183.5c-0.5-6.5,4.4-12.2,10.9-12.8c0.4,0,0.8,0,1.2,0c6.7-0.7,12.7,4.1,13.5,10.8c0,0.4,0.1,0.8,0.1,1.2
	c0.7,6.2-3.8,11.8-10,12.5c-0.6,0.1-1.1,0.1-1.7,0.1C795.8,195.3,789.5,191.3,789.5,183.5z M89.5,194.7c-4.1-0.7-8.2-1.1-12.3-1.2
	c-4.1,0.1-8.3,0.6-12.4,1.2l0.1-0.1l-0.1,0.1l1.5-82.7C54.8,92.1,21.1,31.7,0,0l0.1,0.1V0c8.4,2.3,17.3,2.3,25.7,0l-0.1,0.1L25.8,0
	c13.4,23.8,34,57,51.4,85.8c17.1-28.2,44-72.1,51.4-85.8l0,0l0,0l0,0c8.5,2.1,17.3,2.1,25.8,0l0,0l-0.1,0.1
	c-9.8,13.3-45,74.4-66.4,112H88L89.5,194.7z M593.1,97.3c0-57.3,41.5-88.1,95.8-88.1c61.1,0,96.5,36.2,96.5,89
	c0,56-37.9,87.9-96,87.9C620.7,186.1,593.1,144.5,593.1,97.3z M618.7,96.9c0,58.2,33.5,79.8,70.2,79.8c34.4,0,70.7-19.2,70.7-78.6
	c0-54.6-30-79.4-70.8-79.4C655.8,18.7,618.7,36.6,618.7,96.9L618.7,96.9z M417.6,97.8c0-44.8,28.6-79.4,83.1-79.4
	c50.6,0,83.3,30,83.3,79.9c0,44.7-27.3,78.5-83.4,78.5C448.8,176.8,417.6,146.8,417.6,97.8L417.6,97.8z M443.1,98.1
	c0,43.9,21.3,70,57.7,70c33.3,0,57.8-22.7,57.8-70.1s-24.5-70.1-57.8-70.1h-1.4C469.4,28.4,443.1,48.4,443.1,98.1L443.1,98.1z
	 M241.7,174.7L241.7,174.7c-5.9-15.1-11.9-30.2-17.9-45.3c-21-0.7-42.1-0.6-63.2,0l0,0c-6.2,15.8-12.5,31.4-17.9,45.2l-0.1-0.1
	l0.1,0.1c-8.3-2.1-17-2.1-25.3,0l0.2-0.1l-0.3,0.1c21.5-43.7,45.3-102.3,66-154.2l0,0c5.8,2.2,12.1,2.2,17.9,0l-0.1,0.1l0.1-0.1
	c19.7,49.9,50.7,125.4,66.2,154.2h-0.1h0.1C258.9,172.5,250.1,172.5,241.7,174.7L241.7,174.7z M219.5,118.7
	c-9.5-24-18.9-47.9-27.4-71.6c-5.6,16.1-16.2,43.3-27.3,71.6C183.1,119.4,201.3,119.3,219.5,118.7L219.5,118.7z M117.2,174.7
	L117.2,174.7L117.2,174.7z M384.4,174.7L384.4,174.7L384.4,174.7c1.2-23.9,1.9-47.8,2-71.7c-28.7-0.4-57.4-0.4-86.2,0l0,0
	c0.1,23.9,0.8,47.8,2,71.7h-0.1h0.1c-8.4-2.1-17.2-2.1-25.7,0c2.1-51.3,2.2-102.7,0-154.2c8.4,2.1,17.3,2.1,25.7,0l0,0l0,0
	c-1.2,24-1.9,48-2,72l0,0c28.7,0.7,57.4,0.7,86.2,0c-0.1-24-0.7-48-2-72c8.4,2.1,17.3,2.1,25.7,0c-2.2,51.5-2,102.9,0,154.2
	C401.7,172.7,392.9,172.6,384.4,174.7L384.4,174.7z M802.7,152l-0.3,0.1l0,0h-0.1h0.1c6.3-44.3,10.1-90.8,13.7-137.2
	c-0.7-6.4,4-12.2,10.4-12.8c0.6-0.1,1.2-0.1,1.9,0c0.9,0,1.7,0.1,2.6,0.2l0,0c6.2,0.4,10.9,5.6,10.8,11.8c-0.2,2.7-0.8,5.5-1.5,8.1
	c-4.4,19.1-21.2,86.5-28.3,131.4l0,0v0.1C809.1,152.3,805.9,151.7,802.7,152L802.7,152z"/>
</svg>
