<?xml version="1.0" encoding="utf-8"?>
<!-- Generator: Adobe Illustrator 21.1.0, SVG Export Plug-In . SVG Version: 6.00 Build 0)  -->
<svg version="1.1" id="圖層_1" xmlns="http://www.w3.org/2000/svg" xmlns:xlink="http://www.w3.org/1999/xlink" x="0px" y="0px"
	 viewBox="0 0 842 202.1" style="enable-background:new 0 0 842 202.1;" xml:space="preserve">
<style type="text/css">
	.st0{fill:#2193B0;}
</style>
<path class="st0" d="M35.9,143.7c-0.4,29.7-1.3,44.2-1.3,49.7s1.3,7.3,9.4,7.3c12.4,0,18.1-3.2,18.1-9.2c0-5.3-0.4-18.6-0.4-70V73.7
	c5.3-2.1,6.6-3.6,6.6-5.5c0-2.3-2.1-4.1-14.3-8.7c8.2-11.1,15.5-22.8,21.8-35c7.7-2.3,9.6-4.1,9.6-7c0-3-2.1-4.7-33.3-16.9
	c-1,5.2-2.4,10.3-4.1,15.4C35.7,51.9,17.3,89.3,0.2,108.5c-0.9,0.9,0.9,2.3,1.9,1.7c12.7-8.5,24.2-18.5,34.4-29.9L35.9,143.7z
	 M125.1,117c0-15.4-14.5-30.5-44.4-34.8c-1.3-0.2-2.1,1.7-1.1,2.3c10,6.8,14.1,17.5,14.7,34.4c0.4,10.9,5.8,17.3,14.1,17.3
	C117.4,136.2,125.1,129.4,125.1,117z M168.2,58.1V18.6c7.5-3.2,8.7-4.9,8.7-7.3c0-3.8-5.8-5.8-37.3-9.4c1.5,12.2,1.9,20.9,1.9,56.1
	H93.1c-5.8,0-15.2-0.4-25.2-1.5l1.9,7.3c10.2-1.1,19-1.5,23.3-1.5h48.4v98.2c0,9-2.6,11.1-9.8,11.7c-4.5,0.4-11.5,0.9-25.8,0.9
	c-1.3,0-1.3,1.9,0,2.3c17.3,5.3,22.4,13,24.5,20.3c1.1,4.1,3.2,4.9,7.5,4.9c5.5-0.1,11-1.1,16.2-3c8.7-3,15.4-11.7,15.4-26.7
	c0-8.1-1.3-49.7-1.3-86.6v-22h35.4c1.1,0.1,2-0.6,2.1-1.7c0-0.2,0-0.3,0-0.5c0-1.7-0.4-2.6-7-9.2C187.8,40,187,39.6,184.8,39.6
	c-2.3,0-3,0.4-15.2,18.4L168.2,58.1z M260,37.2v24.5h-6.4c-4.5,0-12.2-0.2-25.6-1.5l1.9,7.3c7.9-0.9,15.8-1.4,23.7-1.5h66
	c2.8,0,3.6-0.9,3.6-2.3c0-1.7-0.4-2.3-6.4-8.3c-7-7-7.7-7.5-9.2-7.5c-1.3,0-1.9,0.2-12.6,13.9h-9.4V37.3h39.3c2.8,0,3.4-0.9,3.4-2.3
	c0-1.5-0.6-2.8-8.5-10.5c-6-5.8-7.3-6.6-9-6.6s-1.9,0.4-13.2,15.2h-12V17.3c5.5-2.8,7.5-4.7,7.5-7c0-2.6-1.9-4.7-34.1-8.1
	c0.6,9,1.1,17.1,1.1,28.6v2.3h-13.6c-4.5,0-12.2-0.2-25.6-1.5l1.9,7.3c7.9-0.9,15.8-1.4,23.7-1.5L260,37.2z M286.8,130.9
	c7.7,5.7,12.7,14.4,13.6,23.9c1.3,7.3,4.5,11.3,11.3,11.3c7.4-0.1,13.4-6.2,13.3-13.6c0-0.2,0-0.5,0-0.7c0-10-11.1-22.6-38.2-23.7
	v-1.7c4.1-1.9,5.1-3,5.3-4.7h32.7c1.5,0,2.3-0.9,2.3-2.6c0-1.5-0.6-3-6.8-9.2c-8.1-8.1-9.8-9-11.1-9c-1.5,0-2.3,0.6-14.1,16.4H245
	c-8-0.1-16-0.6-23.9-1.7l2.1,7.5c7.1-1,14.2-1.5,21.3-1.5h16.9c0.4,5.3,0.4,7.9,0.4,11.1v4.7c-2.6-2.1-9.2-4.7-24.5-10.9
	c-0.6,4.3-1.7,9.2-2.3,11.5c-3.5,16.7-10.4,32.5-20.3,46.5c-0.4,0.5-0.3,1.2,0.3,1.6c0.4,0.3,0.8,0.3,1.2,0.1
	c17.1-10.2,31.2-24.6,41.2-41.8c1.6-0.4,3.1-1,4.5-1.9v24.3c0.6,3.6-1.9,7-5.6,7.6c-0.3,0.1-0.7,0.1-1,0.1
	c-4.5,0.5-9.1,0.8-13.7,0.9c-1.3,0-1.7,1.5-0.4,1.9c7.7,2.3,13.5,8.5,15.6,16.2c1.1,4.3,2.3,5.3,5.1,5.3c5.7,0.1,11.4-1.2,16.4-3.8
	c6.6-3.5,9.4-9.2,9.4-19c0-3.4-0.9-23.9-0.9-41.8L286.8,130.9z M347.7,53h42.2c-2.6,11.5-4.5,18.6-7.3,28c-0.4,1.3,0.4,1.9,1.5,1.3
	c10-6.2,14.3-9,19.8-12.2c3.5-2.1,7.4-3.5,11.5-4.1c5.3-0.9,7-2.3,7-5.1c0-3.2-0.6-4.5-9.2-12.8c-12.6-12.2-13.7-12.4-15.8-12.4
	c-1.9,0-2.6,0.4-13.7,13H350c5.2-10.2,9.6-20.7,13.2-31.6c7.5-1.9,8.1-3.2,8.1-5.8S367,6.6,336.1,0c-0.6,8.5-1.1,12-1.9,17.9
	C330.8,44.8,323.5,74,315,90.7c0-1.3-0.6-2.1-6.2-7.5c-9-8.5-9.8-9-11.3-9c-1.7,0-2.1,0.4-13.4,14.9h-29.4c-8-0.1-16-0.6-23.9-1.7
	l2.1,7.5c7.2-1,14.5-1.5,21.8-1.5h58.9c-1.1,1.7-2.1,3.4-3.2,4.9c-0.9,1.1,0.6,2.3,1.7,1.5c12.7-11.5,23.4-25,31.8-39.9
	c0,3.8,0,7-0.2,10.9c-1.9,85-28.4,114.8-64.2,128.5c-1.3,0.4-0.6,2.3,0.6,2.1c47.2-10,80.9-38.6,86.9-109l0.4-4.1v4.1
	c-0.3,19.8,1.1,39.6,4.3,59.1c2.5,15.9,8.8,31,18.4,44c1.7,2.1,2.8,2.8,4.3,2.8c1.3,0,2.1-0.4,5.1-4.1c4.9-5.8,13-14.1,22.2-16.4
	c1.3-0.2,1.3-1.3,0.2-1.9c-14.7-9.8-26.9-23-35.4-38.4c-10.6-20.2-16.3-42.5-16.9-65.3c4.7-2.3,6.2-4.1,6.2-6c0-3-2.3-4.9-29.7-10
	L347.7,53z M558.1,8c5.5,3.8,9,10.5,10.2,20.5c1.1,9,5.3,13.4,12.8,13.4c7.8,0.1,14.2-6.1,14.3-13.9c0-0.2,0-0.4,0-0.7
	c0-11.7-11.1-21.8-36.5-21.8C557.6,5.6,557,7.3,558.1,8z M622.9,51.3c2.1,0,3.2-1.1,3.2-2.8c0-1.5-0.9-2.8-7.7-9.4
	c-10.5-10-11.5-10.7-13.7-10.7c-2.3,0-3,0.2-16.4,18.6h-38.6c-0.9-9-1.5-18.1-1.7-28c6.6-3,7.9-4.5,7.9-6.8c0-3.6-2.1-5.1-34.4-8.7
	c1.3,7.9,1.9,14.1,3,27.1c0.4,5.5,1.1,11.1,1.5,16.4h-45.4c-2.1-1.9-9-4.3-31.6-9c1.7,16.4,2.3,33,1.9,49.5
	c0,72.1-6.8,94.1-20.9,110.5c-0.9,1.1,0.2,2.1,1.3,1.5c25.6-16.6,44.6-51.6,44.6-104.1v-2.8h24.8c-0.3,14.5-2.1,29-5.3,43.1
	c-1.5,6-4.7,10-9.6,10.5c-5,0.6-10,0.7-14.9,0.4c-0.6,0-1.1,0.5-1.1,1.1c0,0.5,0.4,1,0.9,1.1c8.3,2.3,11.3,7.3,13,15.6
	c0.9,3.6,3,4.5,7.3,4.5c11.8-1,22-8.5,26.5-19.4c3.6-8.7,6.2-20.1,8.1-49.7c5.3-3.8,6-4.5,6-6.6c0-1.7-0.9-2.8-7-7.9
	c-10.5-8.5-11.3-8.7-13.7-8.7c-2.1,0-2.6,0.2-12.2,12h-22.6V54.2c1.7-0.7,3.3-1.6,4.7-2.8h46.1c2.3,24.5,7.8,48.6,16.2,71.7
	c1.9,4.9,4,9.7,6.4,14.3c-14.4,24.3-35.2,44.1-60.2,57.2c-1.1,0.6,0,2.6,1.3,2.1c26.9-8.1,48.7-18.4,70.4-40.1
	c8.1,11.8,18.3,22.1,30.1,30.3c5.6,4.1,12.4,6.3,19.4,6.4c7.6,0.2,13.9-5.9,14.1-13.5c0-0.2,0-0.4,0-0.6c-0.2-3.9-1.3-7.7-3.2-11.1
	c-1.3-2.9-2-6-2.1-9.2c2.3-10.1,5.4-20,9.2-29.7c0.4-1.3-0.9-1.9-1.7-0.9c-14.9,19.7-21.3,26.5-25.2,26.5c-2.3,0-4.5-0.9-6.2-2.3
	c-6.5-5.3-12.2-11.4-17.1-18.1c10.7-15.1,19.2-31.6,25.4-49.1c6.2-1.5,8.1-3,8.1-5.5c0-3-1.9-4.7-32-19.2c-1.3,6.6-2.6,13.2-4.1,19
	c-2.8,10.9-6.3,21.7-10.5,32.2c-7.9-19.3-12.9-39.6-14.9-60.4L622.9,51.3L622.9,51.3z M704.5,40.2c3.4-1.5,4.9-2.6,4.9-4.7h33.1
	c1.3,0,2.4-1.1,2.4-2.5v-0.1c0-1.7-1.1-3-7.7-9.6c-9.6-9.6-10.9-10.5-12.8-10.5c-1.7,0-2.3,0.9-14.9,18.4h-39.9
	c-7.7,0-15.4-0.5-23-1.5l2.1,7.3c6.9-1,13.9-1.5,20.9-1.5h7.7c0.6,6.5,0.8,12.9,0.6,19.4v73.2c-6.8,1.5-13.4,2.8-19.2,3.8
	c-4.7,1-9.5,1.7-14.3,2.1c12.8,29.9,14.9,33.7,17.7,33.7c1.9,0,5.1-1.5,6.4-8.7c22.2-11.7,54.8-30.9,73.8-43.7
	c1.1-0.6,0-2.6-1.3-2.1c-9.6,2.6-22.8,6-36.5,9V40.2z M782.4,59.8c0.6-12.6,0.9-26.7,0.9-42.9c7.3-3.6,8.1-5.8,8.1-7.7
	c0-3.2-4.7-6.2-36.1-9c1.1,5.5,1.3,11.5,1.3,37.6c0,7.9,0,15.2-0.2,22h-14.5c-8-0.1-16-0.6-23.9-1.7l2.1,7.5
	c7.2-1,14.5-1.5,21.8-1.5h14.3c-1.7,43.1-7.5,66.2-17.7,85.1c-12,22.2-32.7,42.7-52.3,51c-1.3,0.4,0,2.1,1.3,1.9
	c26.9-7.2,51-22.6,68.9-44c15.6-19.6,23.3-42.9,25.8-94.1h26.5c-0.4,42.2-1.3,70-5.3,93.9c-2.1,12.8-7,15.4-14.3,15.8
	c-4.5,0.2-14.1,0.4-27.1-0.2c-1.3,0-1.3,1.7,0,2.1c17.3,6.4,23.3,10.9,25.6,20.3c1.1,4.1,2.3,5.1,5.8,5.1
	c21.6,0,32.5-10.2,36.7-31.6c3.2-15.8,4.9-42.7,5.5-96.7c5.3-4.3,6.4-5.5,6.4-7.3c0-1.7-0.6-3-8.7-9.6c-10.2-8.5-11.3-9-13.2-9
	s-2.8,0.6-13.9,12.8L782.4,59.8z"/>
</svg>
