<?xml version="1.0" encoding="utf-8"?>
<!-- Generator: Adobe Illustrator 21.1.0, SVG Export Plug-In . SVG Version: 6.00 Build 0)  -->
<svg version="1.1" id="圖層_1" xmlns="http://www.w3.org/2000/svg" xmlns:xlink="http://www.w3.org/1999/xlink" x="0px" y="0px"
	 viewBox="0 0 161.8 595.2" style="enable-background:new 0 0 161.8 595.2;" xml:space="preserve">
<style type="text/css">
	.st0{fill:#2193B0;}
</style>
<g transform="translate(44.549 163.893)">
	<g transform="translate(-44.549 -163.893)">
		<path class="st0" d="M119.2,15.3c6.3,0.2,9.3,3.3,9.3,6.7c0.2,1.9-1.2,3.6-3.1,3.8c-0.2,0-0.4,0-0.5,0c-1.8,0-2.8-0.9-3-3.1
			c0-2.4-1-4.7-2.7-6.3c0.1,14,0.3,16.7,0.3,17.8c0,1.8-2,2.5-4.8,2.5c-2.4,0-2.9-0.5-2.9-2.1c0-1.2,0.1-4.5,0.3-11.9v-1.2
			c-3.6,4.5-8.1,8.1-13.2,10.7c-0.3,0.2-0.8-0.3-0.5-0.6c4.5-3.5,9.7-13.5,11.2-20.2h-2.5c-2.2,0-4.5,0.2-6.7,0.5l-0.7-2.3
			c2.4,0.3,4.9,0.5,7.3,0.5h4.9c0-5.6,0-6.9-0.3-10.1c9.3,0.7,9.7,1.1,9.7,2.2c0,0.7-0.3,1.2-2.4,2v5.9h0.6c3.1-4.5,3.3-4.6,3.9-4.6
			s0.7,0.1,2.9,2.5c1.9,2,2,2.3,2,2.7c0,0.5-0.2,0.7-0.7,0.7h-8.8v3.9H119.2z M109.5,39.1c1.6,3.4,2.4,7.1,2.4,10.9
			c0.2,3.9-2.7,7.3-6.6,7.5c-0.1,0-0.2,0-0.3,0c-2.4,0.1-4.4-1.7-4.5-4.1c0-0.1,0-0.1,0-0.2c0-1.9,1.1-3.7,2.7-4.6
			c3.5-1.8,5.7-5.4,5.5-9.3C108.8,38.8,109.4,38.8,109.5,39.1z M123,49.9c0,2.3,0.7,2.7,6.6,2.7c7.3,0,9.2-0.7,11.1-2.6
			c1.8-1.8,3.1-4.2,4.9-9.2c0.1-0.4,0.6-0.3,0.6,0.1c-0.3,4.2-0.5,6.7-0.5,8.1c0,1.2,0.4,2.3,1.2,3.1c0.8,0.8,1.3,1.8,1.4,2.9
			c0,2.9-2,5.1-19.2,5.1c-12.7,0-14-1.6-14-6.5c0-2.4,0.1-7.3,0.1-9.9c0-2.1-0.1-4.3-0.4-6.4c8.8,0.8,10,1.5,10,2.4
			c0,0.6-0.4,1-2,1.8L123,49.9z M138.3,43.6c0.1,2.5-1.8,4.5-4.3,4.6h-0.1c-1.9,0.2-3.6-1.1-3.8-3c0-0.2,0-0.3,0-0.5
			c-0.6-3.8-1.8-6.1-4.1-7.6c-0.3-0.2-0.2-0.6,0.2-0.6C135.1,36.4,138.3,40,138.3,43.6L138.3,43.6z M136.9,33.2c0,1.8-1.6,2.8-5,2.8
			c-2.2,0-2.6-0.6-2.7-1.8c-0.1-1,0.3-7.1,0.3-17.7c0-10.2-0.1-12.2-0.3-15c6.6,1.5,8.6,2,9,2.7h9.2c2.9-3.3,3.1-3.4,3.7-3.4
			c0.7,0,1,0.1,3.7,2.3c2.8,2.2,3,2.5,3,3.1S157.6,7,156,8.5V15c0,12.6,0.3,17.1,0.3,17.7c0,1.8-2,2.7-5.6,2.7c-2,0-2.5-0.5-2.5-2.2
			v-1.9H137L136.9,33.2z M137.9,5.6c-0.3,0.2-0.6,0.4-1,0.5v6.7h11.2V5.6H137.9z M136.9,14.1v7.2h11.2v-7.2H136.9z M148.1,30.1v-7.5
			h-11.2v7.5H148.1z M160.4,48c0.3,2.7-1.7,5.1-4.3,5.3c-0.2,0-0.5,0-0.7,0c-2.2,0-3.9-1.5-4.2-4.4c-0.5-4.8-1.8-8.2-4.6-10.4
			c-0.2-0.1-0.2-0.3-0.1-0.4c0.1-0.1,0.2-0.2,0.4-0.1C155.1,38.8,160.4,42.7,160.4,48L160.4,48z"/>
		<path class="st0" d="M120.5,98.7c0,10.7,0.4,15.5,0.4,17.2c0,2-1.3,3.2-5.4,3.2c-1.7,0-2.2-0.7-2.2-2.5v-1.4h-5v5.6
			c0,2-1.8,2.8-5.3,2.8c-1.4,0-2-0.3-2-2.4c0-1.8,0.3-12.2,0.3-21.6c0-7.5,0-11.2-0.3-15c6.2,1.6,8.1,2.5,8.7,3.3h2.8
			c2.6-3.4,2.9-3.6,3.5-3.6c0.7,0,0.8,0,3.7,2.4c2.5,2,2.7,2.4,2.7,2.9c0,0.7-0.1,0.8-1.9,2.4L120.5,98.7L120.5,98.7z M113.3,113.8
			V89.1h-3.5c-0.4,0.4-0.9,0.7-1.4,0.9v23.8H113.3z M148.2,93.1c4.8-6.3,5.1-6.5,5.8-6.5c0.7,0,1,0.1,4.6,3.8
			c2.2,2.2,2.5,2.6,2.5,3.2s-0.3,0.8-1.1,0.8h-28.8c-2.7,4.2-5.9,8.1-9.5,11.6c-0.3,0.3-0.8-0.1-0.7-0.4c2.1-3.5,5.6-13.5,7.2-22.4
			c0.3-1.7,0.6-3.4,0.7-5.1c10.5,2.4,11,3.1,11,3.9c0,1-0.5,1.4-2.9,2.2c-1.5,3.1-3.1,6.1-5,9L148.2,93.1L148.2,93.1z M139.2,104.5
			c3.7-4.1,4-4.2,4.6-4.2c0.7,0,1.1,0.2,3.7,2.4c2.9,2.5,3.3,3,3.3,3.6c0,0.8-0.1,1.1-4.8,3.5c-11.8,13.6-13.9,16.4-13.9,17.8
			c0,1.4,0.3,2,9.8,2c6.9,0,9.5-0.8,11-2.3c2.4-2.9,4.2-6.3,5.2-10c0.1-0.4,0.5-0.3,0.5,0.1c-0.3,5.4-0.4,7.2-0.4,8
			c0.1,1,0.4,2,1,2.9c0.7,1,1.1,2.2,1,3.5c0,3.1-2,5.2-19.7,5.2c-15,0-16.9-2.5-16.9-6.7c0-3.5,0.2-4.6,15.5-24.6h-7.6
			c-2.1,0-4.3,0.2-6.4,0.5l-0.7-2.2c2.3,0.3,4.7,0.5,7.1,0.5L139.2,104.5z"/>
		<path class="st0" d="M153.8,176.1c2.7-5.1,3.1-5.5,3.5-5.5s0.7,0.1,2.4,2.5c2,2.7,2.1,2.9,2.1,3.5s-0.3,0.8-1.1,0.8h-6.9v5.9
			c0,21.2,0.3,27.3,0.3,30.5c0,1.9-1.3,3.1-5.1,3.1c-2.5,0-3.1-0.4-3.1-2.5v-3.9h-7.3v3.7c0,2.2-2,3-5.1,3c-2.6,0-3-0.7-3-2.4
			c0-1.8,0.6-10,0.6-31.1v-6.3H128c0.9,1,1,1.4,1,1.8c0,0.6-0.3,0.8-1.3,0.8h-10.3v13h0.4c3.1-3.8,3.3-4,3.9-4c0.7,0,1,0.2,4,2.8
			c2,1.8,2.4,2.3,2.4,2.9c0,0.6-0.1,0.8-2,2.3v3.4c0,5,0.3,9.1,0.3,10.9c0,2-2.4,3.3-4.7,3.3c-2.4,0-3-0.6-3-2.7v-1.5H109v3
			c0,2-1.7,3.1-4.8,3.1c-2.4,0-2.8-0.3-2.8-2.5c0-1,0.4-7.2,0.4-13.8c0-4.2,0-6.8-0.2-10c5,1.2,7.3,2.1,8,2.8h0.3v-13h-3.7
			c-2.2,0-4.4,0.1-6.6,0.5l-0.6-2.2c2.4,0.3,4.8,0.4,7.2,0.5h3.7v-4.6c0-2.9,0-4.8-0.1-6.3c-3.8,0.3-7.5,0.5-11.2,0.5
			c-0.4,0-0.5-0.7-0.1-0.7c7.1-1.7,13.9-4.4,20.3-8c0.7-0.4,1.4-0.9,2-1.4c7,5,7.8,6.1,7.8,7.2c0,1-0.9,1.1-4.2,0.8
			c-1.9,0.3-3.8,0.5-5.6,0.7c0.1,0.1,0.1,0.2,0.1,0.3c0,0.7-0.4,0.8-1.5,1.4v10.1h2.1c3.5-5.2,3.7-5.2,4.2-5.2s0.8,0.2,3.1,2.6h4.2
			c0.2-6.3,0-12.5-0.5-18.8c8.2,1.1,10.2,1.9,10.2,2.7c0,1-0.6,1.4-2.2,2.4v13.7h7.3c0.2-6.2,0-12.5-0.5-18.7c8,1,10.8,1.8,10.8,2.6
			s-0.6,1.5-2.4,2.2L153.8,176.1z M118.8,209.1v-14.8H110c-0.3,0.3-0.5,0.5-0.8,0.7v14.1H118.8z M138.6,177.4v13.7h7.3v-13.7H138.6z
			 M145.9,209.2v-16.8h-7.3v16.8H145.9z"/>
		<path class="st0" d="M105.1,281.5c1.6,2.6,2.4,5.5,2.3,8.6c0.2,2.8-1.9,5.2-4.6,5.4c-1.7,0.2-3.3-1-3.6-2.7c0-0.2,0-0.3,0-0.5
			c0-1,0.5-1.8,2.2-3.4c2-1.9,3.1-4.6,3-7.4C104.3,281.1,104.9,281.2,105.1,281.5z M122,238.4c2.2-3,2.4-3.1,2.9-3.1
			c0.4,0,0.7,0.1,3.2,2.1c2,1.7,2.4,2,2.4,2.6c0,0.5-0.1,0.7-1.8,2v5.6c0,5,0.4,9.8,0.4,11.4c0,2.2-1.1,2.9-4.6,2.9
			c-1.4,0-1.7-0.5-1.7-2.1V259h-4.9v7.6h2.1c3.3-4.1,3.7-4.4,4.1-4.4c0.6,0,0.8,0.1,3.3,2.4c1.8,1.7,2,2.1,2,2.5
			c0,0.5-0.2,0.7-0.7,0.7h-10.9v4.9c3.9-0.4,7.4-0.8,11.4-1.4c0.2,0,0.3,0.1,0.4,0.2c0,0.1,0,0.3-0.2,0.4
			c-8.2,3.6-16.7,6.7-25.4,9.1c-0.4,1.4-0.8,1.8-1.4,1.8c-1,0-1.6-1-3.4-9c1.4,0.1,2.8,0,4.2-0.1c3-0.1,5.6-0.3,8.1-0.5v-5.4h-2.9
			c-2.2,0-4.5,0.2-6.7,0.5l-0.7-2.3c2.4,0.3,4.9,0.5,7.3,0.5h2.9v-7.6h-4.6v1.6c0,1.9-1.2,2.4-3.5,2.4c-2.2,0-2.4-0.3-2.4-1.9
			c0-1.3,0.3-7.3,0.3-16.1c0-5.4,0-7.4-0.2-9.5c4.6,1.4,6.2,2.2,6.8,2.8L122,238.4z M106.9,243.9c2.7,0.7,4.7,2.9,5.2,5.6v-7
			c0-0.8,0-1.9-0.1-2.9h-4c-0.3,0.3-0.7,0.5-1,0.7L106.9,243.9z M106.9,257.8h5.2v-5.6c-0.2,1.3-1.3,2.3-2.6,2.4
			c-1.2,0-1.8-1-1.8-2.2c0-0.8,0.2-1.9,0.3-3.3c0.2-1.5-0.3-3-1.2-4.2L106.9,257.8z M115.2,289.4c0,3-1.5,4.6-4,4.6
			c-1.4-0.2-2.4-1.3-2.4-2.7c0-0.8,0.1-1.7,0.3-3.1c0.5-2.4,0-4.9-1.3-7c-0.3-0.3,0.2-0.5,0.6-0.3
			C112.3,281.8,115.1,285.3,115.2,289.4L115.2,289.4z M122.7,288.5c0.2,1.9-1.1,3.6-3,3.8c-0.1,0-0.2,0-0.3,0
			c-1.8,0-2.7-1.4-2.7-3.2c0-3.5-1.5-6.9-4.2-9.2c-0.3-0.3,0.1-0.5,0.5-0.4C120.3,281.1,122.7,284.8,122.7,288.5L122.7,288.5z
			 M122.8,239.7h-4.5c-0.1,0.4-0.3,0.6-1,1v11.8c0.5-2.2,1-5,1.2-6.5c0.2-1.1,0.3-1.9,0.4-3.1c1.3,0.6,2.6,1.3,3.9,2.1V239.7z
			 M122.8,257.8V247c-0.2,0.1-0.5,0.3-0.8,0.5c-1.3,2-2.7,4-4.7,7.1v3.2H122.8z M129.9,286.5c0,2-1,4-3.4,4c-1.3,0-2.5-0.8-2.8-3.4
			c-0.2-3.6-2.5-6.8-5.9-8.1c-0.3-0.2-0.1-0.5,0.3-0.5C126.9,278.6,129.9,282.8,129.9,286.5L129.9,286.5z M150.6,251.6
			c3.8-5,4.2-5.4,4.8-5.4c0.7,0,1.3,0.5,3.9,3c2.1,2.1,2.4,2.5,2.4,3s-0.3,0.7-0.8,0.7h-13.8v15.3h2.4c2.9-3.9,3.3-4.1,3.9-4.1
			c0.8,0,1.4,0.4,3.9,2.5c2.5,2.2,2.9,2.5,2.9,3.2s-0.3,1-2,2.4v6.6c0,5,0.3,10.7,0.3,13.3c0,2-2.3,3.1-5.3,3.1
			c-2.3,0-2.6-0.3-2.6-2.5v-2.2h-12.7v2.4c0,2-1.1,3.1-4.8,3.1c-2.4,0-2.5-0.3-2.5-2.5c0-1,0.3-8,0.3-18c0.1-3.4,0-6.8-0.3-10.1
			c5.6,1.6,7.4,2.3,8.1,2.9h1v-20.5c0.1-4.3-0.1-8.5-0.5-12.7c9.2,0.7,10.2,1.5,10.2,2.5c0,0.7-0.5,1.1-2.3,2v12.2L150.6,251.6z
			 M150.5,289.2v-19.7h-11.9c-0.2,0.3-0.5,0.5-0.8,0.7v19H150.5z"/>
		<path class="st0" d="M123.6,376.7v-65.4h2.1v65.4H123.6z"/>
		<path class="st0" d="M123.6,442.1v-65.4h2.1v65.4H123.6z"/>
		<path class="st0" d="M36.7,81.1c2.2,0.1,4.8,0.1,7.8,0.1c6.1,0.1,12.3-0.2,18.4-1c0.4-0.1,0.5,0.5,0.1,0.7
			c-2.8,1.5-4.7,4.2-5.1,7.3c-0.1,0.9-0.9,1.7-1.8,1.7c-3.4,0.3-6.8,0.3-10.3,0.2c-10.1,0-16.4-1.5-20.7-4.2
			c-3.7-2.2-6.4-5.9-7.3-10.2C13.3,81.9,7.4,86.9,0.5,90.2c-0.4,0.1-0.7-0.3-0.4-0.6C4.5,86.3,10.4,76.9,13.4,66
			c0.4-1.5,0.7-2.5,1-4.1c9.6,3.3,10.1,3.6,10.1,4.5c0,0.8-0.3,1.1-2.5,1.8c-0.9,2.3-2.1,4.5-3.5,6.5c1.3,2.2,3.4,3.8,5.8,4.6
			c1.3,0.5,2.6,0.9,4,1.1V66.7c0-2.4,0-4.4-0.2-6.7H10.5c-2.5,0-5,0.1-7.4,0.5l-0.7-2.2c3.4,0.3,6,0.5,8.1,0.5h39
			C54,53,54.1,53,54.8,53c0.7,0,0.8,0,4.4,3.5c2.4,2.2,2.5,2.4,2.5,3c0,0.4-0.3,0.6-0.6,0.7H61H38c-0.1,0.5-0.4,0.8-1.4,1.3v9.3h7.9
			c4.3-5.4,4.4-5.5,5-5.5c0.7,0,0.8,0.1,4.3,3.3c2.2,2.1,2.4,2.2,2.4,2.8c0,0.3-0.2,0.6-0.5,0.7h-0.1h-19v9H36.7z M21.8,53.8
			c0,1.9-1.6,2.7-5.4,2.7c-2.3,0-2.9-0.5-2.9-2.1c0-1.2,0.2-6.4,0.2-14.2c0-3.3,0-7.3-0.2-10c7.2,1.4,9,2.2,9.4,2.7h17.3
			c3.1-3.5,3.3-3.7,4-3.7s1,0.1,4.3,2.5c2.8,2.1,2.9,2.4,2.9,2.9s-0.1,0.7-1.7,2v5.9c0,5.7,0.3,8.4,0.3,9.6c0,1.9-2,2.9-5.8,2.9
			c-2.6,0-3.1-0.4-3.1-2.3v-1.2H21.6v2.3H21.8z M22.9,34.3c-0.3,0.3-0.7,0.5-1,0.7v6.5h19.5v-7.3L22.9,34.3z M41.3,50.4v-7.5H21.8
			v7.5H41.3z"/>
		<path class="st0" d="M39.2,116.1c5,1.1,5.6,2,5.6,2.6c0,0.8-0.7,1.4-2.7,1.6c-1.9,3.4-4,6.6-6.5,9.5c1.7,0.5,1.9,0.9,1.9,1.4
			c0,0.7-0.2,0.9-1.6,1.6v9.4c0,12,0.6,22.1,0.6,24.3c0,1.9-2.2,2.9-5.9,2.9c-2.5,0-3.3-0.5-3.3-2.5c0-1.8,0.3-11.1,0.3-24.7v-3.9
			c-7.7,7.4-16.8,13.2-26.7,17.2c-0.4,0.1-0.8-0.6-0.5-0.8c9.5-5.8,23.9-22,30.3-34.6c0.7-1.3,1.3-2.7,1.9-4.1H12.3
			c-2.3,0-4.8,0.1-8.6,0.5L3,114.3c4.3,0.3,6.9,0.5,9.2,0.5h35.2c5.2-6.1,5.5-6.3,6.1-6.3c0.7,0,1,0.1,4.7,3.5
			c2.4,2.2,2.9,2.9,2.9,3.3c0,0.5-0.3,0.7-0.8,0.7L39.2,116.1z M62.3,147.5c0,4-2.3,5.9-5,5.9c-2.4,0-3.9-1.3-5-4.7
			c-2.4-7.1-7.5-14.3-13.5-17.8c-0.2-0.1-0.2-0.3-0.1-0.5c0.1-0.1,0.2-0.2,0.3-0.1C52.8,131.7,62.3,140.2,62.3,147.5z"/>
		<path class="st0" d="M11.4,198.6c0.1,0.6,0.2,1.3,0.2,1.9c0,3.7-1.7,7.4-5.5,7.4c-2,0.2-3.9-1.2-4.2-3.3c0-0.2,0-0.4,0-0.6
			c0-1.6,0.8-3,2.1-3.9c2.8-2,4.2-3.7,4.2-6.7c0-0.4,0.4-0.4,0.7-0.1c1,1.2,1.7,2.5,2.2,3.9H28c0.1-1.8,0-3.6-0.2-5.4H17.7
			c-2.4,0-4.8,0.2-7.1,0.5l-0.7-2.2c3.4,0.3,5.8,0.5,7.8,0.5h27.9c3.6-4.6,4-4.7,4.6-4.7c0.5,0,0.8,0.1,3.6,2.5
			c2.5,2.1,2.6,2.5,2.6,2.9s-0.3,0.6-0.7,0.6H37.5c0,0.5-0.4,0.8-1.3,1.2v4.2h14.6c3.3-3.7,3.8-4.1,4.3-4.1c0.6,0,1.3,0.3,5,3.4
			c2.5,2.1,3,2.9,3,4.1c0,0.8-0.8,1.3-2.5,1.4c-1.1,0-2.2,0.3-3.1,0.8c-1.2,0.7-2.7,1.5-5.9,3.2c-0.3,0.2-0.6,0-0.5-0.4
			c0.7-2.4,1.3-4.8,1.7-7.2H36v0.6c0,6.7,0.3,12.8,0.3,14.1c0,1.6-1.2,2.4-5.5,2.4c-2.6,0-3.3-0.7-3.3-2.1c0-1.2,0.4-7.4,0.4-15
			L11.4,198.6z M51.4,217.1c4.1-4.6,4.4-5,5-5c0.5,0,1,0.3,3.7,2.7c2.4,2.2,2.6,2.5,2.6,3c0,0.3-0.2,0.6-0.7,0.6H37
			c0,0.7-0.3,1-2,1.3c-2.5,2-4.1,3.2-6.1,4.7h17.4c3.3-3.5,3.5-3.6,4.1-3.6c0.7,0,1,0.1,4.9,2.7c1.3,0.9,1.6,1.2,1.6,1.8
			c0,0.5-0.1,0.8-1.8,2.3v3.6c0,5.9,0.2,8.7,0.2,9.5c0.2,2.6-1.3,5-3.7,6.1c-1.3,0.5-2.6,0.7-4,0.7c-1,0-1.4-0.5-1.6-1.6
			c-0.5-1.9-1.9-3.5-3.9-4.1v1.4c0,1.6-1.3,2.4-5.8,2.4c-1.6,0-1.9-0.5-1.9-2.1c0-0.7,0.2-7.8,0.2-13.7c0-1.8,0-3.1-0.1-4.3h-4.4
			c-0.2,0.3-0.4,0.5-0.7,0.7v3.6c0,5.9,0.2,12.6,0.2,13.4c0,1.6-1.3,2.4-5.4,2.4c-2,0-2.4-0.5-2.4-2.1c0-0.7,0.2-7.7,0.2-13.7
			c0-1.8,0-3-0.1-4.2h-4c-0.3,0.4-0.7,0.7-1.1,1v2.5c0,8.6,0.1,14.5,0.1,15.6c0,1.8-1.2,2.7-5.2,2.7c-2.2,0-2.5-0.5-2.5-2
			c0-1.4,0.3-8.7,0.3-14.8c0-3-0.1-5.2-0.3-8.3c6.2,1.2,8.2,1.6,8.8,2.2h7.3c0.5-2.1,0.9-3.9,1.3-6H10.4c-2.6,0-5.2,0.1-7.8,0.5
			l-0.7-2.2c3.4,0.3,6.3,0.5,8.4,0.5L51.4,217.1z M8.9,210.1c1.9,0.2,3.8,0.3,5.7,0.3h4.2c2.5-3.1,2.7-3.3,3.1-3.3
			c0.3,0,0.8,0.1,2.5,1.8c1.5,1.4,1.7,1.8,1.7,2.2c0,0.3-0.2,0.5-0.4,0.6h-0.1h-11c-1.2,0-3.1,0.1-5.2,0.3L8.9,210.1z M17.8,205.3
			c-1.1,0-3.1,0.1-5.1,0.3l-0.5-1.9c1.9,0.2,3.7,0.3,5.6,0.3h0.8c2.5-3.1,2.8-3.2,3.1-3.2c0.3,0,0.6,0.1,2.5,1.8
			c1.5,1.3,1.6,1.7,1.6,2.1c0,0.3-0.2,0.5-0.4,0.6h-0.1L17.8,205.3L17.8,205.3z M37.4,210.1c1.9,0.2,3.9,0.3,5.8,0.3h4.1
			c2.7-3.3,2.9-3.4,3.4-3.4c0.3,0,0.8,0.1,3.1,2.1c1.5,1.2,1.6,1.6,1.6,2c0,0.5-0.2,0.7-0.6,0.7H43.2c-1.3,0-3.3,0.1-5.3,0.3
			L37.4,210.1z M42.4,205.3c-1.1,0-2.4,0.1-4.4,0.3l-0.5-1.9c1.6,0.2,3.3,0.3,5,0.3h0.8c2.5-3.1,2.8-3.2,3.1-3.2
			c0.3,0,0.7,0.1,2.4,1.8c1.5,1.5,1.6,1.7,1.6,2.1c0,0.3-0.2,0.5-0.4,0.6h-0.1L42.4,205.3L42.4,205.3z M42,230.1
			c0,4.1,0.1,8.6,0.1,11.2c1.4,0,2.8,0,4.1-0.2c0.6-0.1,1-0.5,1-1.1v-14.2h-4.5c-0.1,0.3-0.3,0.4-0.7,0.7V230.1z"/>
		<path class="st0" d="M49.9,301.1c4.5-5.5,4.8-5.8,5.5-5.8s1,0.2,4.3,3.2c2.5,2.3,2.8,2.7,2.8,3.1c0,0.5-0.3,0.8-0.7,0.8H43.2
			c4.2,0.8,4.9,1.4,4.9,2.1c0,0.8-0.5,1.1-2.9,1.8c-1.2,2.2-2.5,4.3-4.1,6.3c3.6,0.7,7.1,2,10.2,3.9c2.7,1.7,3.7,3.1,3.7,5.5
			c-0.2,2.2-2,3.9-4.2,4c-1.9,0-3.7-0.9-5-2.3c-2.8-2.5-5.9-4.6-9.2-6.4c-7.4,6.3-17.8,9-33.5,8.4c-0.4,0-0.5-0.7-0.1-0.7
			c11.7-0.9,21-4.4,27.3-10.8c-2.7-1.1-5.6-2-8.4-2.7l-1.8,2.6c-0.9,1.3-2.3,2-3.9,1.9c-2.9,0-5.6-0.6-5.6-1.8
			c0.1-0.5,0.3-1,0.7-1.4c2.9-3.8,5.4-7.2,7.6-10.5H10c-2.7,0-5.5,0.1-8.2,0.5l-0.6-2.2c2.9,0.3,5.8,0.5,8.8,0.5h9.7
			c1.6-2.4,2.9-4.8,4.2-7.3c0.5-0.9,0.9-1.9,1.3-2.8h-9.7v0.3c0,2.7-1.6,3.6-5.1,3.6c-2.1,0-2.5-0.4-2.5-2.3c0-0.8,0.3-4.8,0.3-8.1
			c0-3.5,0-6.5-0.2-9.2c6.9,1.6,8.6,2.2,9,3h4.3v-7.1h-8.9c-3.3,0-6.7,0.1-10,0.5l-0.6-2.2c3.5,0.3,7.1,0.5,10.6,0.5h37.7
			c4.5-5.4,4.6-5.4,5.3-5.4s0.8,0.1,4,2.9c2.5,2.3,2.7,2.5,2.7,3.1c0.1,0.3-0.2,0.7-0.5,0.7c-0.1,0-0.1,0-0.2,0H42.5
			c-0.1,0.3-0.5,0.7-1,1v6.1h5.1c3.4-3.7,3.6-3.8,4.2-3.8c0.7,0,1,0.1,4.2,2.5c2.3,1.8,2.4,2,2.4,2.6s-0.1,0.8-1.9,2.2v1.4
			c0,3.2,0.3,7.3,0.3,7.9c0,1.8-1.6,3-5.4,3c-2.7,0-3.1-0.5-3.1-2.4V291H27c6.5,1.8,7.6,2.5,7.6,3.5c0,0.8-0.7,1.4-3.1,2.1
			c-0.8,1.4-1.8,2.9-2.7,4.4L49.9,301.1z M15.7,289.8h5.8v-10.1h-4.6c-0.3,0.3-0.7,0.6-1.1,0.9L15.7,289.8z M28.2,302.4
			c-1.8,2.6-3.6,5.4-5.5,8.1c3.7,0.1,7.1,0.4,10.3,0.7c1.1-1.5,2.1-3.1,2.9-4.8c0.6-1.3,1.1-2.6,1.6-4L28.2,302.4z M28.7,278.4h5.8
			v-7.1h-4.8c-0.1,0.3-0.5,0.6-1,0.9V278.4z M34.4,289.8v-10.1h-5.8v10.1H34.4z M41.7,279.7v10.1h5.8v-10.1H41.7z"/>
		<path class="st0" d="M16.3,383.8c3.5-0.6,6.9-1.2,10.1-1.9c0.4-0.1,0.7,0.5,0.3,0.7c-6.3,4.1-12.7,7.8-19.4,11.1
			c-0.3,2.3-0.8,2.8-1.4,2.8c-1,0-1.8-0.6-5.1-10.9c1.4,0,2.8,0,4.2-0.2l3.8-0.5v-16.1c-2.2,0-4.3,0.2-6.5,0.5l-0.6-2.2
			c2.3,0.3,4.7,0.4,7.1,0.5v-10.8c0-2,0-4.2-0.2-6c-2.3,0-4.5,0.2-6.8,0.5l-0.6-2.2c2.5,0.3,5,0.5,7.6,0.5h6.7
			c3.7-4.6,3.8-4.7,4.2-4.7c0.5,0,0.7,0.1,3.4,2.9c1.8,1.8,2,2,2,2.4s-0.3,0.7-0.7,0.7l0,0h-6.5c0,0.6-0.5,1-1.5,1.5v15.1
			c3-4.2,3.1-4.3,3.6-4.3s0.7,0.1,2.7,2.4c1.9,2.1,2,2.4,2,2.7c0,0.4-0.3,0.6-0.7,0.6h-7.6v14.9H16.3z M51.8,400.5
			c4.1-5.4,4.3-5.5,4.8-5.5s0.9,0.1,4.1,3c2.5,2.2,2.7,2.5,2.7,3.1c0,0.3-0.2,0.6-0.5,0.7h-0.1H23.5c-1.5,0-4.3,0.1-7.4,0.5
			l-0.7-2.2c3.2,0.3,6.1,0.5,8,0.5h14.1v-12h-5.9c-2.2,0-4.4,0.1-6.6,0.5l-0.6-2.2c2.4,0.3,4.8,0.4,7.2,0.5h5.9v-12H33v1.4
			c0,2.5-1.4,3.4-4.5,3.4c-2.4,0-3-0.4-3-2.4c0-1,0.3-8.5,0.3-20.1c0-6.3-0.1-8.8-0.3-12.6c6.1,1.4,8.1,2,8.7,2.6h15.4
			c2.9-3.1,3.1-3.2,3.7-3.2c0.7,0,1,0.1,4.3,2.7c2.5,2.1,2.7,2.3,2.7,2.9s-0.3,0.9-2.1,2.4v7.7c0,7.8,0.4,14.3,0.4,15.8
			c0,1.9-1.4,3.1-5.4,3.1c-2.3,0-2.8-0.4-2.8-2.4v-1.3h-5v12h4.3c3.9-4.9,4.2-5.3,4.8-5.3c0.5,0,1.1,0.3,4,3c2.4,2.2,2.5,2.5,2.5,3
			s-0.3,0.6-0.7,0.6h-15v12L51.8,400.5z M34.2,348.7c-0.3,0.4-0.7,0.7-1.2,1v11.2h4.7v-9c0-1.4-0.1-2.4-0.1-3.3L34.2,348.7z
			 M37.7,373.9v-11.6H33v11.6H37.7z M45.4,361h5v-12.2h-3.9c-0.1,0.4-0.4,0.8-1.2,1.3V361H45.4z M50.4,373.9v-11.6h-5v11.6H50.4z"/>
		<path class="st0" d="M47.4,437.9c3.5-3.7,3.7-3.9,4.3-3.9c0.6,0,1.3,0.4,4.4,2.8c2.2,1.7,2.7,2.3,2.7,2.8s-0.3,1-2,2.2v11.8
			c0,13.9,0.4,23.9,0.4,25.6c0,2-1.8,3.3-5.6,3.3c-2.9,0-3.3-0.5-3.3-2.4v-3H14.9v3c0,1.9-1.6,3.1-5.6,3.1c-2.4,0-2.8-0.3-2.8-2.4
			C6.5,479,7,467,7,452.7c0-9.9-0.1-14.1-0.3-17.7c7.1,1.4,9.2,2.3,9.8,3h10.7v-0.2c0-7.1-0.1-11.4-0.3-15c10.2,0.8,11,1.2,11,2.4
			c0,0.7-0.7,1.1-2.2,2v10.9L47.4,437.9z M27.1,439.2H16.4c-0.4,0.4-0.9,0.7-1.4,0.8v15.5h12.2L27.1,439.2z M14.9,475.6h12.2v-18.8
			H14.9V475.6z M35.7,439.2v16.3h12.7v-16.3H35.7z M48.3,475.6v-18.8H35.6v18.8H48.3z"/>
		<path class="st0" d="M27.3,527c0,13.5,0.5,21.9,0.5,23.5c0,2-1.6,2.9-5,2.9c-2.4,0-2.9-0.3-2.9-2.5v-3.2h-8.7v6.3
			c0,2-1.6,2.9-4.6,2.9c-2.4,0-2.9-0.3-2.9-2.5c0-1.8,0.5-13.8,0.5-21.8c0-10.1,0.1-14.8-0.3-19.8c2.9,0.8,4.8,1.4,6.1,1.8
			c0.3-3.3,0.6-5.8,0.8-9.2c0.1-1.2,0.1-2.1,0.1-3.9c8.8,1.8,10.1,2.2,10.1,3.3c0,0.7-0.5,1.4-2.5,2c-2.1,3.2-4,5.9-6.2,8.8h7.1
			c2.7-3.3,2.9-3.5,3.5-3.5c0.7,0,1,0.1,3.5,2.3c2.7,2.3,2.9,2.6,2.9,3.2c0,0.6-0.1,0.7-2,2.2V527z M12.6,517
			c-0.1,0.3-0.5,0.6-1.4,1v12.8h8.7V517H12.6z M19.9,546.4v-14.3h-8.7v14.3H19.9z M51.6,514.4c3.3-3.9,3.5-4.1,4.2-4.1
			c0.8,0,1.1,0.1,4.7,3.1c1.9,1.6,2.1,1.8,2.1,2.5s-0.3,0.9-2.1,2.4c0.1,18.2-0.4,28.7-1.6,34.1c-1.4,6.3-5.3,9-11.3,9
			c-1.4,0-1.7-0.3-2-1.6c-1-3.5-2.8-5.4-7.7-6.7c-0.4-0.1-0.4-0.7,0-0.7c3.1,0.2,6.3,0.2,9.4,0c2.1-0.1,3.5-1,4-5.2
			c0.7-5,1.4-13.4,1.2-31.6H39.2c-2.9,4.6-6.4,8.7-10.4,12.3c-0.3,0.3-0.7-0.2-0.5-0.5c2.7-4.2,5.6-14,7.1-22.6
			c0.3-1.7,0.5-2.7,0.6-4.4c10.4,2.6,10.9,3.2,10.9,4.2c0,0.7-0.5,1.2-2.7,1.8c-1.2,2.7-2.6,5.4-4.2,8H51.6z M37.7,537.3
			c-0.3-5.1-0.9-8.4-3.8-10.9c-0.3-0.3-0.1-0.7,0.3-0.6c8.6,1.2,12.4,5.9,12.4,10.7c0,3.7-2.2,5.6-5.1,5.6
			C39.3,542.2,37.9,540.7,37.7,537.3L37.7,537.3z"/>
		<path class="st0" d="M55.1,595.1c-4.5,0-8.1-3.7-8.1-8.2s3.7-8.1,8.2-8.1s8.1,3.7,8.1,8.2c0.1,4.4-3.4,8.1-7.9,8.2
			C55.3,595.1,55.2,595.1,55.1,595.1z M55.1,581c-3.3,0-5.9,2.7-5.9,5.9c0,3.3,2.7,5.9,5.9,5.9s5.9-2.7,5.9-5.9l0,0
			c0-3.3-2.6-5.9-5.8-6C55.2,581,55.1,581,55.1,581L55.1,581z"/>
	</g>
</g>
</svg>
