<?xml version="1.0" encoding="utf-8"?>
<!-- Generator: Adobe Illustrator 21.1.0, SVG Export Plug-In . SVG Version: 6.00 Build 0)  -->
<svg version="1.1" id="圖層_1" xmlns="http://www.w3.org/2000/svg" xmlns:xlink="http://www.w3.org/1999/xlink" x="0px" y="0px"
	 viewBox="0 0 173.4 595.1" style="enable-background:new 0 0 173.4 595.1;" xml:space="preserve">
<style type="text/css">
	.st0{fill:#2193B0;}
</style>
<g transform="translate(44.251 151.685)">
	<g transform="translate(-44.251 -151.685)">
		<path class="st0" d="M160.4,40.3c3-3.2,3.2-3.2,3.8-3.2c0.7,0,1.1,0.1,4.2,2.7c2.9,2.4,3.2,2.8,3.2,3.5c0,0.7-0.3,1.1-2.3,2.4
			c-1.5,9.5-3.2,15-5.3,17.4c-2.3,2.3-5.5,3.5-8.8,3.2c-1.8,0-2.3-0.3-2.6-1.7c-0.8-3.1-1.9-4.5-7.1-6.1c-0.4-0.1-0.4-0.8,0-0.8
			c3.8,0.1,5.4,0,7.6-0.1c1.9,0.1,3.6-0.8,4.6-2.4c1.8-4.3,2.9-8.8,3.2-13.4h-32.6c-8,8.4-15.4,13.6-22.2,15.9
			c-0.4,0.1-0.6-0.5-0.3-0.7c4.5-2.4,12.6-9.8,17.9-18.6c3.8-6.2,7-12.8,9.4-19.6H123c-2.8,0-5.6,0.1-8.3,0.5l-0.7-2.4
			c3,0.3,6,0.5,9,0.5h10.6c0.8-2.6,1.6-5.2,2.2-7.9c0.8-3.1,1.4-6.3,1.7-9.5c10.6,3.2,11.7,4.2,11.7,5.3c0,1-0.7,1.8-3.3,2.3
			c-0.9,3.3-2,6.7-3.2,9.9h4.5c3-3.2,3.5-3.4,4-3.4c0.6,0,1,0.1,3.9,2.3c2.6,1.8,2.7,2.1,2.7,2.7s-0.2,0.8-2.3,2.3
			c-0.7,2.2-1.7,5.2-2.7,8h1.1c3.1-3.2,3.4-3.3,4-3.3s1.2,0.3,3.8,2.3c2.4,1.9,2.7,2.2,2.7,2.7c0,0.7-0.3,1-2,2.1
			c-0.6,2.3-1.4,4.7-2.2,7.3L160.4,40.3z M125.1,46.4c2.3,2.4,3.5,5.5,3.5,8.8c0,2.6-1.8,6.4-5.6,6.4c-2.3,0.3-4.3-1.4-4.6-3.6
			c0-0.1,0-0.2,0-0.3c0-1.5,0.8-2.9,2-3.7c2.5-1.6,4.1-4.3,4.1-7.3C124.5,46.1,124.8,46,125.1,46.4L125.1,46.4z M120.7,2.2
			c7.3,0.4,11.7,4,11.7,8.1c0.2,2.9-1.9,5.4-4.8,5.6c-0.1,0-0.1,0-0.2,0c-2.1,0.1-3.9-1.5-4-3.6c0-0.2,0-0.4,0-0.6
			c0-4.6-0.6-7.4-2.9-9C120.1,2.6,120.3,2.2,120.7,2.2L120.7,2.2z M136.6,30.5c-2,3.5-4.3,6.8-6.9,9.8h21.7c1.1-3.8,2.1-7.1,2.7-9.8
			H136.6z M138.8,54.5c0,2.4-1.9,4.3-4.3,4.3c-1.8,0.1-3.3-1.3-3.4-3.1c0-0.2,0-0.4,0-0.6c0.4-4.5,0.1-7.2-1-9.1
			c-0.2-0.4-0.1-0.6,0.4-0.5C136.6,47.3,138.8,51.4,138.8,54.5z M142.2,18.7c-1.4,3.5-3,7-4.8,10.4h6.9c1.3-4.2,2.5-7.6,3.2-10.4
			H142.2z M144.3,56.5c-1.6,0.2-3.1-1.1-3.3-2.7c0-0.2,0-0.4,0-0.6c0.1-3.1-0.1-6.1-2.1-8.1c-0.3-0.3-0.1-0.6,0.3-0.5
			c6.2,1,9.2,4.2,9.2,8C148.3,54.8,146.5,56.5,144.3,56.5z M147.7,44.1c-0.4-0.2-0.2-0.6,0.2-0.6c5.9,0.6,9.7,2.7,9.7,7.1
			c-0.1,2.1-1.7,3.7-3.7,3.8c-1.7,0.2-3.3-1.1-3.4-2.8c0-0.1,0-0.2,0-0.2C150.2,48.3,149.9,45.4,147.7,44.1L147.7,44.1z"/>
		<path class="st0" d="M117.2,110.7c-3.4,3.9-7.3,7.3-11.5,10.2c-0.4,0.2-0.8-0.3-0.6-0.6c5.1-5.7,10.9-17.2,15.5-30.7
			c0.6-1.7,1-3.4,1.3-5.1c10.2,4.1,11.1,4.7,11.1,5.8c0,1.1-0.6,1.5-3.2,2.2c-2,4-4.4,7.8-7.1,11.4c4.4,1.6,5.2,2.2,5.2,3
			c0,0.6-0.4,1.1-2.2,1.8v15.8c0,17,0.1,21.4,0.1,23.2c0,2-2.2,3-6.3,3c-2.7,0-3.1-0.6-3.1-2.4c0-1.8,0.3-6.6,0.4-16.5L117.2,110.7z
			 M159.5,111.4c5-6.7,5.3-6.9,6-6.9c0.8,0,1.1,0.1,5.2,4.2c2.6,2.6,2.7,2.9,2.7,3.4s-0.4,0.8-0.9,0.8h-18.6
			c0,21.1,0.4,33.3,0.4,35.1c0,2-1.8,3-6.2,3c-3.1,0-3.8-0.3-3.8-2.6c0-1.9,0.5-13.6,0.5-35.5h-8.3c-1.6,0-4.7,0.1-8,0.5l-0.7-2.4
			c3.5,0.4,6.6,0.5,8.7,0.5h8.3c0-20.8-0.1-23-0.4-26.8c11.4,1,12.2,1.7,12.2,2.7c0,0.8-0.7,1.3-2.6,2.3v21.8L159.5,111.4
			L159.5,111.4z"/>
		<path class="st0" d="M134.7,188.8c0,9.1,0.2,14.7,0.2,15.6c0,1.7-1.4,2.5-4.2,2.5c-2,0-2.4-0.4-2.4-2.1c0-0.6,0.1-4.7,0.2-11.2
			c-0.4,0.3-0.9,0.6-1.3,0.8c-0.9,6.9-3.7,11-9,13.7c-0.4,5-1.5,9.9-3.2,14.6c-1.9,5-5,9.5-9,13.1c-0.2,0.1-0.4,0.1-0.6-0.1
			c-0.1-0.1-0.1-0.3,0-0.5c2.3-3.4,3.8-7.3,4.2-11.4c1.1-6.1,1.3-12.9,1.3-26.9c0-11.1-0.2-15.8-0.7-21.5c7.9,2,9.8,2.6,10.2,3.3
			h15.1v-1.9c0.1-2.5-0.1-5.1-0.4-7.6c11.2,0.7,12.5,1.5,12.5,2.6c0,0.8-0.4,1.2-2.9,2.3v4.5h13.8c5.1-5.9,5.3-6.1,6-6.1
			s1.1,0.1,4.8,3.7c2.4,2.3,2.6,2.6,2.6,3.2c0,0.4-0.2,0.7-0.8,0.7h-51c-0.4,0.3-0.9,0.6-1.3,0.8v14.4c0,4.7-0.1,8.5-0.4,11.8
			c2.3-2.7,3.2-7.6,3.2-13.6c0-0.9,0-1.8-0.1-2.7c2.5,0.1,4.9,0.6,7.2,1.4v-3.4h-1.1c-2.4,0-4.8,0.1-7.1,0.5l-0.6-2.4
			c2.6,0.3,5.2,0.5,7.8,0.5h1.1c0.1-2,0-4-0.3-6c7,0.6,8,0.9,8,1.7c0,0.6-0.4,0.9-1.6,1.6v2.7h1.7c3-4,3.2-4.2,3.8-4.2
			s0.7,0.1,3,2.1c1.3,1.2,1.9,1.8,2.2,2.1h5.4c0.1-2,0-4-0.3-6c7.2,0.6,8.3,0.9,8.3,1.7c0,0.6-0.4,0.9-1.6,1.6v2.7h4.1
			c3.3-4.2,3.5-4.5,4.2-4.5c0.6,0,1,0.2,3.5,2.5c2.1,1.9,2.3,2.3,2.3,2.7s-0.2,0.6-0.9,0.6h-13.1c0,9.3,0.2,14.8,0.2,15.7
			c0,1.7-1.4,2.5-4.5,2.5c-2,0-2.4-0.4-2.4-2.1c0-0.6,0.1-4.7,0.2-11c-0.3,0.2-0.6,0.3-0.8,0.4c-0.6,5.1-3.6,9.6-8.1,12.1
			c4.2,1.1,4.8,1.6,4.8,2.3c0,0.9-0.8,1.3-3.5,1.8c-2.3,1.6-4.3,3-6.5,4.5c1.6,1.1,2.5,2.8,2.6,4.7c0,2.7-2.3,4.8-4.9,4.8
			c-1.7,0.2-3.2-0.9-3.7-2.5c-0.9-3.7-3.5-6.8-7-8.3c-0.4-0.1-0.3-0.6,0.1-0.7c3.2-0.5,6.5-0.4,9.6,0.4c0.7-2,1.3-3.8,2-6.1
			c0.2-0.8,0.4-1.6,0.5-2.5c1.9,0.5,3.5,0.8,4.8,1.2c2.2-2.3,3.7-6.9,3.7-12.6c0-0.9,0-1.8-0.1-2.7c2.2,0.2,4.5,0.6,6.6,1.2v-3
			H134.7z M169.8,230.2c0.1,2.9-2.2,5.2-5.1,5.3c-0.1,0-0.1,0-0.2,0c-2.1,0-3.9-1.5-4.2-3.6c-0.3-1.3-0.7-2.5-1.2-3.7
			c-11.9,2.2-19.6,3.5-36.4,6.1c-0.7,1.3-1,1.6-1.6,1.6c-0.9,0-1.3-0.6-4.3-10.6c2.3,0.1,3.2,0.2,5.6,0.3c6,0.1,11.4,0.3,16.7,0.3
			c3-4.2,5.7-8.6,8.1-13.2c0.7-1.2,1.3-2.5,1.8-3.8c10.2,3.7,10.7,4,10.7,5.2c0,0.9-0.9,1.3-3.7,1.6c-4.9,3.8-8.7,6.6-13.9,10.3
			c5.1,0,10.2-0.1,15.8-0.1c-1.2-2.1-3-3.8-5.1-4.9c-0.2-0.1-0.3-0.3-0.2-0.5c0.1-0.1,0.2-0.2,0.4-0.2
			C165.3,220.2,169.8,225.4,169.8,230.2L169.8,230.2z M141.8,201.2c0,1.6-1.2,2-3.7,2c-1.4,0-1.9-0.6-1.9-1.7c0-1.1,0.1-3,0.1-5.8
			c0-2,0-3.4-0.1-4.7c6.1,0.7,6.9,1,6.9,1.7c0,0.5-0.2,0.7-1.3,1.3V201.2z M164.5,198.3c0,1,0.1,1.2,1.6,1.2s1.9-0.1,2.6-1.3
			c1-1.8,1.8-3.6,2.4-5.5c0.1-0.4,0.6-0.3,0.5,0.1c-0.2,2.3-0.3,3.9-0.3,4.7c0,0.7,0.3,1.4,0.8,1.8c0.7,0.6,1.1,1.5,1.1,2.5
			c0,1.6-1.6,3-7.6,3c-5.5,0-6.5-1.1-6.5-2.6c0-1.2,0.1-3.3,0.1-6.2c0-1.9,0-3.5-0.1-5.2c5.9,0.5,7.3,0.8,7.3,1.6
			c0,0.6-0.2,0.8-1.7,1.6L164.5,198.3z"/>
		<path class="st0" d="M132.8,322.5v-70.6h2.3v70.6H132.8z"/>
		<path class="st0" d="M132.8,393.2v-70.6h2.3v70.6H132.8z"/>
		<path class="st0" d="M2.4,60.4c4.7,0.4,7.5,0.5,10,0.5h37.7c5.8-7.3,5.9-7.3,6.6-7.3c0.8,0,1,0.1,4.9,4c3.7,3.7,3.9,4,3.9,4.5
			s-0.3,0.7-0.9,0.7H12.4c-2.5,0-5.2,0.1-9.3,0.5L2.4,60.4z"/>
		<path class="st0" d="M38.2,164c3,0.5,6.1,0.7,9.2,0.6c6.4,0.1,12.8-0.3,19.1-1.1c0.4-0.1,0.5,0.6,0.1,0.8c-3.5,2.3-4.2,4-5.2,8
			c-0.1,1-1,1.8-2,1.8c-3.6,0.3-7.2,0.4-10.7,0.2c-11.9,0-17.4-2.6-21.8-6.7c-3.8-3.8-6.3-8.7-7.1-14c-3.1,9.5-9.9,17.4-18.8,22
			c-0.4,0.1-0.8-0.3-0.4-0.6c5.8-4.7,10.7-15.5,11.7-30.8c0.1-1.7,0.1-2.9,0.1-4.4c10,2.3,11.5,2.7,11.5,3.9c0,0.6-0.5,1.1-2.3,1.8
			c-0.2,2-0.6,4-1.2,6c1.2,3,3.1,5.7,5.6,7.8c0.9,0.8,1.9,1.5,3,2v-19.1c0-2.6,0-4.7-0.2-7.2h-8.9c-1.6,0-4.7,0.1-8,0.5l-0.7-2.4
			c3.5,0.4,6.6,0.5,8.7,0.5h23.2c4.4-5.6,4.5-5.7,5.1-5.7s0.8,0.1,4,3.2c2.2,2.1,2.6,2.6,2.6,3.2c0,0.6-0.5,0.8-1.1,0.8H39.5
			c-0.1,0.4-0.5,0.8-1.6,1.3v12.9h5.2c4.5-5.9,4.7-6.1,5.4-6.1c0.7,0,0.9,0.1,4.8,3.7c1.9,1.8,2.6,2.5,2.6,3.1
			c0,0.3-0.2,0.7-0.6,0.7c-0.1,0-0.1,0-0.2,0H37.8V164H38.2z M12.9,122.4c0.5,1.4,0.7,2.9,0.7,4.4c0.2,3.7-2.7,6.8-6.4,7
			c-0.1,0-0.2,0-0.4,0c-2.3,0.2-4.4-1.6-4.6-3.9c0-0.2,0-0.4,0-0.5c0-2.1,1.2-4,3-4.9c2.7-1.5,4.1-4.5,3.5-7.6
			c0-0.4,0.5-0.5,0.8-0.1c1.1,1.3,2.1,2.8,2.8,4.3h16.3v-5.6c0-2-0.1-3.9-0.4-5.9c11.3,0.7,12.6,1.5,12.6,2.5c0,0.8-0.4,1.2-2.9,2.3
			v6.6h14.3c3.7-4,4.1-4.2,4.9-4.2s1.7,0.4,5.1,3.6c2.7,2.6,3.6,3.7,3.6,4.9c0,1.3-0.8,2-3.3,2c-1.7-0.1-3.5,0.2-5.2,0.7
			c-1.6,0.6-2.7,1-5.3,2c-0.4,0.1-0.6,0.1-0.5-0.4c1.1-3.2,1.6-4.9,2.3-7.3L12.9,122.4z"/>
		<path class="st0" d="M53.2,233.5c4.9-5.9,5.2-6.3,5.9-6.3s1.1,0.2,4.7,3.5c2.7,2.5,3,2.9,3,3.4c0,0.6-0.3,0.8-0.8,0.8H45.9
			c4.5,0.9,5.3,1.6,5.3,2.3c0,0.8-0.5,1.2-3.1,2c-1.3,2.4-2.7,4.6-4.4,6.8c3.9,0.7,7.6,2.2,11,4.2c2.9,1.8,4,3.3,4,5.9
			c-0.2,2.4-2.2,4.3-4.6,4.3c-2.1,0-4-0.9-5.4-2.5c-3-2.7-6.4-5-10-6.9c-8,6.8-19.3,9.7-36.2,9.1c-0.4,0-0.5-0.7-0.1-0.7
			c12.6-1,22.7-4.8,29.5-11.7c-3-1.2-6-2.2-9.1-2.9l-2,2.8c-0.9,1.4-2.5,2.2-4.2,2c-3.1,0-6-0.6-6-1.9c0.1-0.6,0.4-1.1,0.8-1.6
			c3.2-4.1,5.9-7.8,8.2-11.4H10c-3,0-5.9,0.1-8.8,0.5l-0.6-2.4c3.1,0.3,6.3,0.5,9.5,0.5h10.5c1.7-2.6,3.2-5.2,4.6-7.8
			c0.5-1,1-2,1.4-3H16.1v0.3c0,3-1.8,3.9-5.5,3.9c-2.3,0-2.7-0.4-2.7-2.5c0-0.8,0.3-5.2,0.3-8.8c0-3.8,0-7.1-0.2-9.9
			c7.4,1.8,9.3,2.3,9.7,3.2h4.7v-7.6h-9.6c-3.6,0-7.2,0.1-10.8,0.5l-0.6-2.4c3.8,0.4,7.6,0.5,11.4,0.5h40.8c4.9-5.8,5-5.9,5.7-5.9
			s0.9,0.1,4.3,3.1c2.7,2.5,3,2.7,3,3.4c0.1,0.4-0.2,0.7-0.6,0.8c-0.1,0-0.2,0-0.2,0H45.4c-0.1,0.4-0.6,0.7-1.1,1.1v6.6h5.5
			c3.7-4,3.9-4.1,4.5-4.1c0.7,0,1.1,0.1,4.5,2.7c2.5,1.9,2.6,2.1,2.6,2.8c0,0.6-0.1,0.8-2,2.4v1.5c0,3.5,0.4,7.8,0.4,8.5
			c0,2-1.7,3.2-5.8,3.2c-2.9,0-3.4-0.6-3.4-2.6v-0.9H28.7c7.1,1.9,8.3,2.7,8.3,3.8c0,0.9-0.8,1.5-3.4,2.3c-0.9,1.5-1.9,3.1-3,4.8
			L53.2,233.5z M16.3,221.2h6.2v-10.9h-5c-0.4,0.4-0.8,0.7-1.2,1V221.2z M29.8,234.9c-1.9,2.8-3.9,5.9-5.9,8.8
			c4,0.1,7.7,0.4,11.1,0.8c1.2-1.6,2.3-3.4,3.1-5.2c0.7-1.4,1.2-2.8,1.7-4.3L29.8,234.9z M30.3,208.9h6.2v-7.6h-5.2
			c-0.1,0.3-0.6,0.6-1.1,1v6.6H30.3z M36.5,221.2v-10.9h-6.2v10.9H36.5z M44.4,210.3v10.9h6.3v-10.9H44.4z"/>
		<path class="st0" d="M23.6,301.5c0,11.6,0.4,16.7,0.4,18.6c0,2.2-1.4,3.5-5.9,3.5c-1.8,0-2.4-0.7-2.4-2.7v-1.6h-5.4v6
			c0,2.1-1.9,3-5.7,3c-1.5,0-2.1-0.4-2.1-2.6c0-2,0.3-13.1,0.3-23.3c0-8.1,0-12.1-0.3-16.2c6.7,1.7,8.8,2.7,9.4,3.5h3
			c2.8-3.7,3.1-3.9,3.7-3.9c0.7,0,0.9,0,4,2.6c2.7,2.2,2.9,2.6,2.9,3.2c0,0.7-0.1,0.9-2,2.6v7.3H23.6z M15.7,317.8v-26.7h-3.8
			c-0.5,0.4-1,0.7-1.6,1v25.7H15.7z M53.5,295.5c5.2-6.9,5.5-7.1,6.2-7.1s1.1,0.1,5,4.1c2.4,2.4,2.7,2.8,2.7,3.5s-0.3,0.9-1.2,0.9
			H35.1c-2.9,4.5-6.4,8.7-10.2,12.5c-0.3,0.3-0.9-0.1-0.7-0.4c2.3-3.7,6-14.5,7.8-24.2c0.4-1.8,0.6-3.7,0.8-5.5
			c11.3,2.6,11.9,3.3,11.9,4.2c0,1.1-0.5,1.5-3.2,2.3c-1.6,3.4-3.4,6.6-5.4,9.7H53.5z M43.7,307.9c4-4.5,4.3-4.6,5-4.6
			c0.8,0,1.2,0.2,4,2.6c3.2,2.7,3.5,3.2,3.5,3.9c0,0.9-0.1,1.2-5.2,3.8c-12.8,14.7-15,17.7-15,19.3s0.3,2.2,10.6,2.2
			c7.5,0,10.3-0.8,11.9-2.5c2.6-3.2,4.5-6.9,5.6-10.8c0.1-0.4,0.6-0.3,0.6,0.1c-0.4,5.8-0.4,7.8-0.4,8.7c0.1,1.1,0.4,2.2,1.1,3.1
			c0.8,1.1,1.2,2.4,1.1,3.7c0,3.3-2.1,5.7-21.3,5.7c-16.2,0-18.2-2.7-18.2-7.3c0-3.7,0.2-4.9,16.7-26.6h-8.1c-2.3,0-4.6,0.2-6.9,0.5
			l-0.7-2.4c2.5,0.3,5.1,0.5,7.6,0.5L43.7,307.9z"/>
		<path class="st0" d="M59.5,385.2c3-5.5,3.4-5.9,3.8-5.9s0.7,0.1,2.6,2.7c2.1,2.9,2.3,3.1,2.3,3.7s-0.4,0.9-1.2,0.9h-7.5v6.4
			c0,22.9,0.4,29.5,0.4,32.9c0,2-1.4,3.4-5.5,3.4c-2.7,0-3.4-0.4-3.4-2.7v-4.2h-7.8v4c0,2.4-2.2,3.2-5.5,3.2c-2.8,0-3.2-0.7-3.2-2.6
			c0-2,0.6-10.8,0.6-33.6v-6.9h-3.3c1,1.1,1.1,1.5,1.1,2c0,0.6-0.4,0.8-1.4,0.8H20.4v14.1h0.4c3.3-4.1,3.5-4.3,4.2-4.3
			s1.1,0.2,4.3,3c2.2,1.9,2.6,2.5,2.6,3.1s-0.1,0.8-2.1,2.5v3.7c0,5.4,0.4,9.8,0.4,11.8c0,2.1-2.6,3.6-5.1,3.6c-2.6,0-3.2-0.6-3.2-3
			v-1.6H11.4v3.2c0,2.2-1.8,3.4-5.2,3.4c-2.6,0-3-0.4-3-2.7c0-1.1,0.4-7.8,0.4-14.9c0-4.5,0-7.3-0.2-10.8c5.4,1.3,7.8,2.3,8.7,3h0.4
			v-14.1h-4c-2.4,0-4.8,0.1-7.1,0.5l-0.6-2.4c2.6,0.3,5.2,0.5,7.8,0.5h4V383c0-3.2,0-5.2-0.1-6.9c-4.1,0.4-8.1,0.6-12.1,0.6
			c-0.4,0-0.6-0.7-0.1-0.8c7.7-1.9,15-4.8,21.9-8.7c0.8-0.4,1.5-1,2.2-1.6c7.6,5.4,8.5,6.6,8.5,7.8c0,1.1-1,1.2-4.6,0.9
			c-2,0.3-4.1,0.6-6.1,0.8c0.1,0.1,0.1,0.2,0.1,0.4c0,0.7-0.4,0.9-1.6,1.6V388H23c3.7-5.6,4-5.6,4.5-5.6c0.6,0,0.8,0.2,3.3,2.8h4.6
			c0.2-6.8,0-13.5-0.6-20.3c8.8,1.2,11,2,11,3c0,1.1-0.6,1.6-2.3,2.5v14.8h7.8c0.2-6.7,0-13.5-0.6-20.2c8.7,1.1,11.7,1.9,11.7,2.8
			s-0.6,1.6-2.6,2.4L59.5,385.2z M21.7,420.9v-16h-9.5c-0.3,0.3-0.6,0.6-0.9,0.8v15.2H21.7z M43.1,386.6v14.8h7.8v-14.8H43.1z
			 M51,421v-18.2h-7.8V421H51z"/>
		<path class="st0" d="M6.9,499.1c1.7,2.8,2.6,6,2.5,9.3c0.2,3-2,5.6-5,5.9c-1.9,0.3-3.6-1.1-3.9-2.9c0-0.2,0-0.4,0-0.5
			c0-1.1,0.5-1.9,2.3-3.7c2.2-2.1,3.4-5,3.2-8C6,498.7,6.7,498.7,6.9,499.1z M25.1,452.5c2.4-3.2,2.6-3.4,3.1-3.4
			c0.4,0,0.8,0.1,3.5,2.3c2.2,1.8,2.6,2.2,2.6,2.8c0,0.5-0.1,0.7-1.9,2.2v6.1c0,5.4,0.4,10.6,0.4,12.4c0,2.3-1.2,3.2-4.9,3.2
			c-1.6,0-1.8-0.5-1.8-2.3V475h-5.3v8.2h2.3c3.6-4.4,4-4.7,4.5-4.7c0.6,0,0.8,0.1,3.5,2.6c1.9,1.8,2.2,2.3,2.2,2.7
			c0,0.5-0.2,0.8-0.7,0.8H20.8v5.3c4.2-0.4,8-0.9,12.4-1.5c0.2,0,0.4,0.1,0.4,0.2c0,0.2,0,0.3-0.2,0.4c-8.9,3.9-18.1,7.2-27.5,9.8
			c-0.4,1.5-0.9,1.9-1.6,1.9c-1.1,0-1.7-1.1-3.7-9.7c1.5,0.1,3.1,0,4.6-0.1c3.2-0.1,6.1-0.4,8.8-0.5v-5.9h-3.1
			c-2.4,0-4.8,0.2-7.2,0.5L3,482.5c2.6,0.4,5.3,0.5,7.9,0.6H14v-8.2H9v1.8c0,2-1.3,2.6-3.7,2.6c-2.3,0-2.6-0.3-2.6-2
			c0-1.4,0.4-7.8,0.4-17.4c0-5.9,0-8-0.2-10.3c4.9,1.5,6.7,2.4,7.3,3L25.1,452.5z M8.9,458.5c2.9,0.8,5.1,3.2,5.6,6.1V457
			c0-0.9,0-2-0.1-3.1H10c-0.4,0.3-0.7,0.6-1.1,0.8V458.5z M8.9,473.4h5.6v-6.1c-0.2,1.4-1.4,2.5-2.8,2.6c-1.3,0-1.9-1.1-1.9-2.3
			c0-0.9,0.2-2,0.4-3.6c0.2-1.6-0.3-3.2-1.3-4.5L8.9,473.4z M17.8,507.6c0,3.2-1.6,4.9-4.3,4.9c-1.5-0.2-2.6-1.5-2.6-3
			c0-0.9,0.1-1.8,0.3-3.3c0.5-2.6,0-5.3-1.4-7.6c-0.3-0.4,0.2-0.5,0.6-0.4C14.7,499.4,17.7,503.2,17.8,507.6z M25.9,506.6
			c0.2,2-1.2,3.8-3.2,4.1c-0.1,0-0.3,0-0.4,0c-1.9,0-2.9-1.5-2.9-3.5c0-3.8-1.7-7.4-4.6-9.9c-0.4-0.3,0.1-0.5,0.6-0.4
			C23.3,498.7,25.9,502.6,25.9,506.6L25.9,506.6z M26,453.9h-4.9c-0.1,0.4-0.4,0.6-1.1,1.1v12.8c0.6-2.4,1.1-5.4,1.3-7.1
			c0.2-1.2,0.3-2,0.4-3.3c1.5,0.6,2.9,1.4,4.2,2.3L26,453.9z M26,473.4v-11.6c-0.2,0.1-0.5,0.4-0.8,0.6c-1.4,2.1-2.9,4.3-5.1,7.6
			v3.5L26,473.4z M33.7,504.4c0,2.2-1.1,4.3-3.7,4.3c-1.4,0-2.7-0.9-3-3.7c-0.2-3.9-2.7-7.3-6.4-8.8c-0.4-0.2-0.1-0.6,0.3-0.6
			C30.4,496,33.7,500.4,33.7,504.4L33.7,504.4z M56,466.8c4.1-5.4,4.6-5.9,5.2-5.9c0.7,0,1.4,0.5,4.2,3.2c2.3,2.3,2.6,2.7,2.6,3.2
			s-0.4,0.8-0.9,0.8H52.2v16.5h2.6c3.2-4.2,3.5-4.4,4.2-4.4c0.8,0,1.6,0.4,4.2,2.7c2.7,2.4,3.2,2.7,3.2,3.5c0,0.7-0.4,1.1-2.2,2.6
			v7.1c0,5.4,0.4,11.6,0.4,14.3c0,2.1-2.5,3.3-5.7,3.3c-2.5,0-2.8-0.4-2.8-2.7v-2.2H42.4v2.6c0,2.2-1.2,3.4-5.2,3.4
			c-2.6,0-2.7-0.4-2.7-2.7c0-1.1,0.4-8.7,0.4-19.5c0.1-3.7,0-7.3-0.3-10.9c6,1.8,8,2.5,8.8,3.2h1.1v-22.1c0.1-4.6-0.1-9.2-0.5-13.8
			c10,0.7,11,1.6,11,2.7c0,0.7-0.5,1.2-2.5,2.1v13H56z M56,507.4v-21.3H43.2c-0.2,0.3-0.5,0.6-0.8,0.8v20.5H56z"/>
		<path class="st0" d="M39.9,548c0-8.2-3.7-11.6-8.6-11.6c-4,0-7.3,2.7-7.3,5.2c-0.1,0.8,0.4,1.6,1.1,2c1.4,0.9,2.3,2.5,2.4,4.2
			c0.2,2.8-2,5.1-4.7,5.3c-0.2,0-0.4,0-0.6,0c-2.8,0.1-5.2-2.2-5.3-5c0-0.1,0-0.3,0-0.4c0-6.8,8.1-13.1,17.2-13.1
			c10.5,0,16.6,5.5,16.6,13.3c0,6-2.2,9.7-11,16.7c-5.4,4.2-6.4,5.9-6.4,9.7c0,0.8,0.1,1.5,0.4,2.3c-0.1,0.8-0.8,1.4-1.6,1.3
			c-0.5,0-0.7-0.4-0.7-0.8c0-7.8,0.6-10,3.8-14.7C38.8,556.7,39.9,553.6,39.9,548z M38,589.3c0,3.2-2.5,5.8-5.7,5.8
			s-5.8-2.5-5.8-5.7s2.5-5.8,5.7-5.8c0,0,0,0,0.1,0C35.4,583.6,38,586.1,38,589.3z"/>
	</g>
</g>
</svg>
