<?xml version="1.0" encoding="utf-8"?>
<!-- Generator: Adobe Illustrator 21.1.0, SVG Export Plug-In . SVG Version: 6.00 Build 0)  -->
<svg version="1.1" id="圖層_1" xmlns="http://www.w3.org/2000/svg" xmlns:xlink="http://www.w3.org/1999/xlink" x="0px" y="0px"
	 viewBox="0 0 172.3 595.2" style="enable-background:new 0 0 172.3 595.2;" xml:space="preserve">
<style type="text/css">
	.st0{fill:#2193B0;}
</style>
<g transform="translate(44.469 153.576)">
	<g transform="translate(-44.468 -153.576)">
		<path class="st0" d="M159.5,39.9c2.9-3.1,3.2-3.2,3.8-3.2c0.7,0,1,0.1,4.1,2.7c2.9,2.4,3.1,2.8,3.1,3.5s-0.3,1-2.2,2.4
			c-1.5,9.4-3.1,14.9-5.2,17.2c-2.3,2.3-5.4,3.4-8.6,3.2c-1.8,0-2.2-0.3-2.6-1.7c-0.8-3.1-1.9-4.4-7-6.1c-0.4-0.1-0.4-0.8,0-0.8
			c3.8,0.1,5.4,0,7.5-0.1c1.8,0.1,3.6-0.8,4.5-2.4c1.8-4.2,2.9-8.7,3.1-13.3h-32.2c-7.9,8.3-15.2,13.4-22,15.7
			c-0.4,0.1-0.6-0.5-0.3-0.7c4.5-2.4,12.5-9.7,17.7-18.3c3.8-6.1,6.9-12.6,9.3-19.4h-10c-2.8,0-5.5,0.1-8.2,0.5l-0.7-2.4
			c3,0.3,5.9,0.5,8.9,0.5H133c0.8-2.5,1.5-5.1,2.2-7.8c0.8-3.1,1.4-6.2,1.7-9.4c10.5,3.2,11.6,4.2,11.6,5.2s-0.7,1.7-3.3,2.2
			c-0.9,3.3-2,6.6-3.2,9.8h4.4c3-3.1,3.5-3.4,4-3.4c0.6,0,1,0.1,3.8,2.2c2.5,1.8,2.7,2.1,2.7,2.7c0,0.6-0.2,0.8-2.2,2.2
			c-0.7,2.2-1.7,5.2-2.7,7.9h1c3.1-3.1,3.3-3.3,3.9-3.3s1.2,0.3,3.8,2.3c2.4,1.9,2.7,2.2,2.7,2.7c0,0.7-0.3,1-2,2.1
			c-0.6,2.3-1.4,4.7-2.2,7.3L159.5,39.9z M124.6,45.9c2.2,2.3,3.5,5.5,3.4,8.7c0,2.6-1.7,6.3-5.5,6.3c-2.2,0.3-4.3-1.3-4.5-3.6
			c0-0.1,0-0.2,0-0.3c0-1.5,0.8-2.9,2-3.7c2.5-1.6,4-4.3,4-7.2C124.1,45.7,124.3,45.5,124.6,45.9L124.6,45.9z M120.4,2.3
			c7.3,0.3,11.5,4,11.5,8c0.2,2.8-1.9,5.3-4.8,5.6c-0.1,0-0.1,0-0.2,0c-2.1,0.1-3.9-1.5-4-3.5c0-0.2,0-0.4,0-0.6
			c0-4.5-0.6-7.3-2.9-8.9C119.7,2.7,119.9,2.3,120.4,2.3L120.4,2.3z M136,30.2c-2,3.4-4.3,6.7-6.8,9.7h21.4c1.1-3.8,2.1-7,2.7-9.7
			H136z M138.2,54c0,2.4-1.9,4.3-4.3,4.3c-1.8,0.1-3.2-1.3-3.3-3c0-0.2,0-0.4,0-0.6c0.4-4.5,0.1-7.1-1-9c-0.2-0.3-0.1-0.6,0.3-0.5
			C136,46.8,138.2,50.9,138.2,54z M141.5,18.5c-1.4,3.5-3,6.9-4.7,10.3h6.8c1.3-4.2,2.4-7.5,3.1-10.3L141.5,18.5z M143.6,55.9
			c-1.6,0.2-3.1-1-3.2-2.7c0-0.2,0-0.4,0-0.6c0.1-3.1-0.1-6-2.1-8c-0.3-0.3-0.1-0.6,0.3-0.5c6.1,1,9.1,4.1,9.1,7.9
			C147.6,54.2,145.8,55.9,143.6,55.9z M147,43.6c-0.3-0.2-0.2-0.6,0.2-0.6c5.9,0.6,9.6,2.7,9.6,7c-0.1,2-1.7,3.7-3.7,3.8
			c-1.7,0.2-3.2-1.1-3.4-2.8c0-0.1,0-0.2,0-0.2C149.5,47.8,149.1,45,147,43.6L147,43.6z"/>
		<path class="st0" d="M116.9,109.4c-3.4,3.8-7.2,7.2-11.4,10.1c-0.3,0.2-0.8-0.3-0.6-0.6c5-5.7,10.8-17,15.3-30.3
			c0.6-1.6,1-3.3,1.3-5c10,4,11,4.7,11,5.7s-0.6,1.5-3.1,2.2c-2,3.9-4.4,7.7-7,11.2c4.4,1.6,5.2,2.2,5.2,3c0,0.6-0.4,1.1-2.2,1.8
			v15.6c0,16.8,0.1,21.1,0.1,22.9c0,2-2.2,3-6.2,3c-2.7,0-3.1-0.6-3.1-2.4c0-1.8,0.3-6.6,0.4-16.3L116.9,109.4z M158.6,110.1
			c5-6.6,5.2-6.8,5.9-6.8c0.8,0,1,0.1,5.1,4.1c2.6,2.6,2.7,2.9,2.7,3.4s-0.3,0.8-0.9,0.8h-18.3c0,20.9,0.3,32.9,0.3,34.7
			c0,2-1.7,2.9-6.1,2.9c-3.1,0-3.8-0.3-3.8-2.5c0-1.9,0.5-13.4,0.5-35.1h-8.2c-1.6,0-4.6,0.1-7.9,0.5l-0.7-2.4
			c3.4,0.3,6.6,0.5,8.6,0.5h8.2c0-20.6-0.1-22.7-0.4-26.5c11.2,1,12.1,1.7,12.1,2.7c0,0.8-0.7,1.3-2.6,2.3v21.5L158.6,110.1
			L158.6,110.1z"/>
		<path class="st0" d="M134.1,186.5c0,9,0.2,14.5,0.2,15.4c0,1.7-1.4,2.4-4.2,2.4c-2,0-2.4-0.4-2.4-2.1c0-0.6,0.1-4.7,0.2-11.1
			c-0.4,0.3-0.8,0.6-1.3,0.8c-0.9,6.8-3.6,10.9-8.9,13.5c-0.4,4.9-1.5,9.8-3.2,14.4c-1.9,5-4.9,9.4-8.9,12.9
			c-0.2,0.1-0.4,0.1-0.6-0.1c-0.1-0.1-0.1-0.3,0-0.5c2.3-3.4,3.7-7.2,4.2-11.2c1-6,1.3-12.8,1.3-26.6c0-11-0.2-15.6-0.7-21.2
			c7.8,2,9.7,2.5,10,3.3h14.9v-1.7c0.1-2.5-0.1-5-0.4-7.5c11,0.7,12.3,1.5,12.3,2.5c0,0.8-0.3,1.2-2.9,2.3v4.5h13.6
			c5-5.9,5.2-6.1,5.9-6.1c0.7,0,1,0.1,4.7,3.6c2.4,2.2,2.5,2.5,2.5,3.1c0,0.4-0.2,0.7-0.8,0.7h-50.4c-0.4,0.3-0.8,0.6-1.3,0.8v14.2
			c0,4.6-0.1,8.4-0.4,11.6c2.2-2.7,3.2-7.5,3.2-13.4c0-0.9,0-1.8-0.1-2.7c2.4,0.1,4.8,0.6,7.1,1.4v-3.4h-1c-2.4,0-4.7,0.1-7,0.5
			l-0.6-2.4c2.5,0.3,5.1,0.5,7.7,0.5h1c0.1-2,0-4-0.3-5.9c6.9,0.6,7.9,0.9,7.9,1.7c0,0.6-0.3,0.9-1.5,1.5v2.7h1.7
			c3-3.9,3.2-4.2,3.8-4.2s0.7,0.1,2.9,2.1c1.3,1.2,1.9,1.7,2.2,2.1h5.4c0.1-2,0-4-0.3-5.9c7.1,0.6,8.2,0.9,8.2,1.7
			c0,0.6-0.3,0.9-1.5,1.5v2.7h4c3.3-4.1,3.5-4.4,4.1-4.4s1,0.2,3.4,2.4c2.1,1.9,2.3,2.2,2.3,2.7c0,0.4-0.2,0.6-0.9,0.6h-13
			c0,9.1,0.2,14.6,0.2,15.6c0,1.7-1.4,2.4-4.4,2.4c-2,0-2.4-0.3-2.4-2.1c0-0.6,0.1-4.6,0.2-10.9c-0.3,0.2-0.5,0.3-0.8,0.4
			c-0.6,5.1-3.6,9.5-8,12c4.2,1.1,4.7,1.5,4.7,2.2c0,0.9-0.8,1.3-3.5,1.7c-2.2,1.5-4.3,3-6.4,4.5c1.6,1,2.5,2.8,2.5,4.7
			c0,2.7-2.2,4.8-4.9,4.7c-1.6,0.2-3.2-0.8-3.6-2.4c-0.9-3.7-3.4-6.7-6.9-8.2c-0.4-0.1-0.3-0.6,0.1-0.7c3.2-0.5,6.4-0.4,9.5,0.4
			c0.7-2,1.3-3.8,2-6c0.2-0.8,0.4-1.6,0.5-2.4c1.9,0.5,3.5,0.8,4.7,1.2c2.2-2.3,3.7-6.8,3.7-12.4c0-0.9,0-1.8-0.1-2.7
			c2.2,0.2,4.4,0.6,6.6,1.2v-3.1h-15.8V186.5z M168.8,227.4c0.1,2.8-2.2,5.2-5,5.2c-0.1,0-0.1,0-0.2,0c-2.1,0-3.9-1.5-4.1-3.6
			c-0.3-1.3-0.7-2.5-1.2-3.7c-11.7,2.2-19.3,3.4-35.9,6.1c-0.7,1.3-1,1.6-1.6,1.6c-0.9,0-1.3-0.6-4.3-10.5c2.2,0.1,3.1,0.2,5.6,0.3
			c5.9,0.1,11.2,0.3,16.5,0.3c3-4.1,5.7-8.5,8-13c0.7-1.2,1.2-2.5,1.7-3.8c10.1,3.6,10.6,4,10.6,5.1c0,0.9-0.9,1.3-3.6,1.5
			c-4.9,3.8-8.6,6.6-13.7,10.2c5,0,10-0.1,15.6-0.1c-1.2-2.1-2.9-3.7-5-4.8c-0.2-0.1-0.2-0.3-0.1-0.5c0.1-0.1,0.2-0.2,0.4-0.2
			C164.3,217.6,168.8,222.7,168.8,227.4L168.8,227.4z M141.2,198.8c0,1.5-1.2,2-3.6,2c-1.4,0-1.9-0.6-1.9-1.7c0-1,0.1-2.9,0.1-5.7
			c0-2,0-3.3-0.1-4.6c6.1,0.7,6.8,1,6.8,1.7c0,0.5-0.2,0.7-1.3,1.3V198.8z M163.5,196c0,1,0.1,1.2,1.5,1.2s1.9-0.1,2.5-1.3
			c1-1.7,1.8-3.6,2.4-5.4c0.1-0.4,0.6-0.3,0.5,0.1c-0.2,2.2-0.3,3.8-0.3,4.7c0,0.7,0.3,1.4,0.8,1.8c0.7,0.6,1.1,1.5,1,2.4
			c0,1.6-1.6,3-7.5,3c-5.4,0-6.4-1-6.4-2.5c0-1.2,0.1-3.3,0.1-6.1c0-1.9,0-3.4-0.1-5.1c5.9,0.5,7.2,0.8,7.2,1.5
			c0,0.6-0.2,0.8-1.7,1.5V196z"/>
		<path class="st0" d="M132.3,318.7v-69.8h2.2v69.8H132.3z"/>
		<path class="st0" d="M132.3,388.4v-69.8h2.2v69.8H132.3z"/>
		<path class="st0" d="M36.6,74c4.9,2.9,5.9,3.6,5.9,4.3c0,1-0.4,1.3-3.2,1.3c-5.1,2.8-10.7,4.5-16.5,5.1c0.8,0.7,1.7,1.2,2.7,1.5
			c2.4,0.8,6.7,1,13.7,1c9.7,0,19.4-0.6,29-1.7c0.4-0.1,0.6,0.5,0.2,0.8c-2.2,1.5-3.7,3.8-4.1,6.4c-0.2,1.6-0.7,2.4-2.2,2.4
			c-1.8,0.2-5,0.3-15.3,0.3c-15.9,0-19.3-0.9-22.9-3.8c-2.5-2.1-4.3-5-5-8.2c-3,3.6-6.2,6.9-9.8,9.9c-0.8,1.9-1.3,2.4-2,2.4
			c-0.8,0-1.9-1.1-5.8-9.6c1.4-0.3,2.8-0.8,4.2-1.3c2.1-0.8,4.1-1.6,6.1-2.7V62.6H8.5c-2.1,0-4.2,0.1-6.2,0.5l-0.6-2.4
			c2.3,0.4,4.5,0.5,6.8,0.5h2.2c3.5-4.1,3.8-4.5,4.5-4.5c0.8,0,1,0.1,3.4,2.2c3.1,2.7,3.4,3.1,3.4,4c0,0.6-0.3,0.9-2.2,2.4v16.5
			c0.6,0.9,1.4,1.7,2.2,2.4c4.5-2,8.4-5.2,11.3-9.2c0.2-0.3,0.4-0.7,0.7-1.1h-3.7c-2.1,0-3.8,0.1-7.8,0.5L21.9,72
			c2.8,0.3,5.6,0.5,8.4,0.5h1.3v-6.8h-0.3c-2.4,0-4.7,0.1-7,0.5l-0.6-2.4c2.5,0.3,5.1,0.5,7.7,0.5h0.3c0-3-0.1-4.5-0.3-7.5
			c8.2,0.6,9.1,1,9.1,2c0,0.6-0.3,1-1.7,2v3.5h6.3c0-3-0.1-4.5-0.3-7.5c8.2,0.6,9.1,1,9.1,2c0,0.6-0.3,1-1.6,2v3.5H54
			c3.7-4.7,3.8-4.7,4.3-4.7c0.6,0,0.7,0.1,3.1,2.5c2,2,2.4,2.4,2.4,2.9c0.1,0.4-0.2,0.7-0.6,0.8h-0.1H52.3v6.8h3.3
			c3.8-4.8,4-5,4.5-5c0.6,0,1,0.1,3.6,2.7c2.2,2.2,2.4,2.3,2.4,2.9c0,0.4-0.2,0.7-0.8,0.7L36.6,74z M7,33.9c8.8,1,12.9,5.1,12.9,9.6
			c0.3,2.6-1.7,5-4.3,5.2c-0.3,0-0.7,0-1,0c-2.8,0-3.9-1.8-4.1-5.2c0-3.4-1.5-6.6-4-8.9C6.1,34.3,6.6,33.8,7,33.9z M29.8,37.3
			c-2.5,0-5,0.2-7.5,0.5l-0.7-2.4c2.7,0.3,5.5,0.5,8.2,0.5h3c2.4-2.7,2.6-2.9,3.1-2.9c0.6,0,0.9,0.1,3.3,2c1.8,1.5,2,1.8,2,2.5
			c0,0.6-0.3,0.8-1.6,1.9v1.3c0,1,0.2,2.9,0.2,4c0,1.4-1,2.4-4,2.4c-2,0-2.8-0.8-2.8-2v-1.5h-3.1c-0.3,0.2-0.6,0.4-1,0.6v4.4
			c0,1.5,0.4,2.1,3.8,2.1c3.8,0,4.7-0.6,6.4-2.8c1.1-1.3,2-2.8,2.7-4.4c0.1-0.3,0.6-0.1,0.6,0.3c-0.3,1.4-0.6,2.9-0.7,4.3
			c0,0.6,0.1,1.2,0.3,1.8c0.6,0.7,0.9,1.6,0.9,2.4c0,2.3-1.8,4-10.1,4c-8.4,0-9.6-1.3-9.6-4.4c0-1.5,0.1-3.3,0.1-5.3
			c0-1.3,0-3.7-0.1-6.9c5,1.3,6.5,2,7,2.4h2.9v-5h-3.3V37.3z M38.7,72.6H45v-6.8h-6.3V72.6z M51.8,37.3c-2.5,0-5,0.2-7.5,0.5
			l-0.7-2.4c2.7,0.3,5.5,0.5,8.2,0.5h2.6c2.6-2.9,2.8-3,3.3-3c0.8,0,1,0.1,3.3,2.1c2,1.7,2.1,2,2.1,2.6s-0.1,0.8-1.6,1.9v1.3
			c0,1,0.2,2.9,0.2,4c0,1.4-1.5,2.4-4.4,2.4c-2,0-2.7-0.8-2.7-2v-1.5h-3.1c-0.3,0.2-0.6,0.4-1,0.6v4.3c0,1.5,0.4,2.1,3.4,2.1
			c4.5,0,5.9-0.6,7.6-2.8c1-1.3,1.9-2.6,2.7-4.1c0.2-0.4,0.6-0.1,0.6,0.3c-0.4,1.4-0.6,2.9-0.7,4.3c0,0.7,0.1,1.3,0.3,2
			c0.6,0.7,0.9,1.6,0.9,2.4c0,2.3-1.8,3.8-11.3,3.8c-8.3,0-9.5-1.3-9.5-4.4c0-1.5,0.1-3.3,0.1-5.3c0-1.3,0-3.7-0.1-6.9
			c5.2,1.3,6.8,2,7.2,2.4h3v-5L51.8,37.3L51.8,37.3z M61.4,82c0.1,1.9-1.5,3.5-3.4,3.6c-0.1,0-0.2,0-0.3,0c-1.5,0-2.5-0.5-4-2.6
			c-2.3-3.1-5.4-5.5-9-7c-0.4-0.1-0.2-0.8,0.2-0.8C58.1,75,61.4,79.2,61.4,82z"/>
		<path class="st0" d="M18.2,145.7c2.7-0.7,5.2-1.5,8.2-2.4c0.2-0.1,0.4,0,0.5,0.2s0,0.4-0.2,0.5c-3,2.2-5.9,4.5-8.6,6.5
			c0.1,16.7,0.3,19.9,0.3,22.1c0.2,2.7-1.1,5.3-3.4,6.8c-1.4,0.9-3.1,1.4-4.7,1.5c-1.1,0-1.6-0.4-2-1.8c-0.6-2.4-2-4.4-6.3-5.9
			c-0.4-0.1-0.4-0.7,0-0.7c2.7-0.1,4.2-0.3,6.1-0.6c1.6-0.2,2.2-1.2,2.2-3.5v-13.3l-3.1,2.2c-0.6,1.6-0.9,2-1.6,2
			c-0.8,0-1.1-0.1-4.5-9.9c1.9-0.3,3.8-0.6,6.2-1.2l3-0.7v-14.2h-1c-2.3,0-4.6,0.2-6.8,0.5l-0.7-2.4c2.5,0.3,5,0.5,7.5,0.5h1
			c0.2-5.2,0-10.4-0.5-15.6c8.7,0.8,10.6,1.4,10.6,2.6c0,0.8-0.5,1.3-2.4,2.4v10.5c2.9-5.2,3.1-5.3,3.7-5.3s0.8,0.1,2.8,3
			c0.8,1.1,1.2,1.7,1.4,2.1c0.1-1.7,0.3-4.4,0.3-7.5c0-2.6-0.1-4.7-0.3-7c5.2,1,7.1,1.7,7.8,2.2h21.1c2.7-3.1,2.9-3.3,3.5-3.3
			s1,0.1,3.6,2.2c2.3,1.8,2.5,2.2,2.5,2.8c0,0.6-0.2,0.8-1.9,2.2v1.3c0,2.3,0.4,5.4,0.4,7.1c0,2.3-2,3.1-4.6,3.1
			c-2.1,0-2.7-0.5-2.7-2.2h-23v0.7c0,2-1.5,2.6-4.5,2.6c-2,0-2.2-0.3-2.2-2.3v-0.4c-0.1,0.1-0.3,0.1-0.4,0.1h-7.3V145.7z
			 M56.5,147.9c4-4.9,4.2-5,4.7-5c0.7,0,0.9,0.1,3.4,2.6c2.5,2.5,2.6,2.7,2.6,3.1s-0.3,0.6-0.7,0.6H50c6.2,2,6.6,2.5,6.6,3.2
			s-0.3,1-2.3,1.4c-2.7,2.4-4.2,3.8-5.7,5.2h7c4.1-5,4.3-5.1,4.9-5.1s0.8,0.1,3.4,2.7c2.4,2.4,2.6,2.6,2.6,3.1s-0.3,0.6-0.7,0.6
			H48.5c0,0.7-0.2,1-1.1,1.5v6.3h5.8c4-5.2,4.2-5.2,4.8-5.2c0.6,0,0.8,0.1,3.6,2.9c2.4,2.4,2.5,2.7,2.5,3.1s-0.3,0.6-0.7,0.6h-16
			c0,4.3,0.2,7.7,0.2,8.4c0,2-1.5,3.1-5.9,3.1c-2.4,0-2.8-0.6-2.8-2.4c0-1,0.3-4.7,0.3-9.1h-6.8c-2.4,0-4.7,0.1-7,0.5l-0.6-2.4
			c2.5,0.3,5.1,0.5,7.7,0.5h6.8c0-3.5,0-5.9-0.1-7.8h-8.4c-2.4,0-4.7,0.1-7,0.5l-0.6-2.4c2.5,0.3,5.1,0.5,7.7,0.5h5.2
			c-1.6-0.4-2.4-1.7-2.3-3.9c0.1-2.9-0.1-5-1.6-5.9h-1.5c-2.4,0-4.7,0.1-7,0.5l-0.6-2.4c2.5,0.3,5.1,0.5,7.7,0.5h8.6v-6.6h-5.2
			c-2.4,0-4.8,0.2-7.1,0.5l-0.7-2.4c2.6,0.4,5.2,0.5,7.8,0.6h5.1c0-2.2-0.1-4.4-0.3-6.6c9.8,0.8,10.9,1.2,10.9,2.3
			c0,0.8-0.4,1.3-2.4,2v2.2h4.6c3.9-4.6,4-4.7,4.6-4.7s0.8,0.1,3.5,2.8c2,2,2.3,2.2,2.3,2.7s-0.2,0.6-0.7,0.6H47.5v6.6L56.5,147.9z
			 M34,120.7c-0.4,0.3-0.8,0.6-1.2,0.8v9.6h3.6v-7.2c0-1,0-2.2-0.1-3.2H34z M45.9,159c0.6-2.5,1.1-4.7,1.5-7
			c0.2-0.9,0.3-1.8,0.3-2.7H34c5.4,0.9,7,3.4,7,5.9c0.1,1.8-1.1,3.4-2.8,3.8H45.9z M45.8,123.9c0-1,0-2.2-0.1-3.2h-2.4
			c0,0.5-0.3,0.7-1,1.3v9.2h3.5V123.9z M53.1,120.7c0,0.5-0.3,0.7-1,1.3v9.2h3.7v-10.5H53.1z"/>
		<path class="st0" d="M45.4,205.6c4.4-4.5,4.7-4.7,5.4-4.7c0.8,0,1.3,0.1,6.8,4.9c2.9,2.5,3.3,3.1,3.3,3.8c0,1.1-0.5,1.4-4.9,2.4
			c-5,2.6-9.9,5.2-15.4,8.1c1.7,0.4,2,0.8,2,1.4c0,0.8-0.3,1.1-3.1,2.6v7.9c0,10.3,0.5,20.6,0.5,23c0.3,3.2-1.4,6.2-4.3,7.7
			c-2.4,1.2-5.1,1.8-7.8,1.7c-1.1,0.1-2.2-0.7-2.4-1.8c-1-3.3-2.3-5.5-7.8-7c-0.4-0.1-0.4-0.8,0-0.8c3,0.2,6.1,0.1,9.1-0.1
			c2.3-0.3,3.1-1.4,3.1-3.3v-18.7c0.2-4.7,0-9.5-0.5-14.2c3.6,0.3,6.2,0.7,8.1,1c2.7-3.8,5.5-8.1,8.1-12.4H17.2
			c-2.4,0-5,0.1-8.9,0.5l-0.7-2.4c4.6,0.3,7.2,0.5,9.6,0.5L45.4,205.6z"/>
		<path class="st0" d="M8,310c-2.1,3.2-4.6,6-7.4,8.6c-0.3,0.3-0.8-0.2-0.6-0.6c3.6-5.5,7.5-16.5,10.5-30.1c0.3-1.6,0.7-3.3,0.9-5
			c10.1,3.6,10.6,4.4,10.6,5.3c0,0.8-0.6,1.5-3.2,2.2c-1.5,4-3.4,7.9-5.7,11.6c3.7,1.5,4.5,2.2,4.5,2.9c0,0.6-0.4,1.1-2.2,1.8v15.6
			c0,16.7,0.1,21.1,0.1,22.8c0,2-1.7,3-5.2,3c-2.7,0-3.1-0.6-3.1-2.4s0.3-6.6,0.4-17L8,310z M26.8,334.4v4.9c0,1.8-1.4,2.8-4.6,2.8
			c-2.6,0-2.9-0.4-2.9-2.4c0-1.2,0.5-7.5,0.5-16.2c0-5.4,0-6.7-0.2-10.4c2.2,0.5,4.4,1.1,6.5,2v-13.7h-1c-1.3,0-3.5,0.1-6.8,0.5
			l-0.7-2.4c2.5,0.3,5,0.5,7.5,0.5h1v-3.9c0.1-4.1,0-8.1-0.3-12.2c9.5,1.1,10.5,1.7,10.5,2.7c0,0.7-0.3,1.3-2.6,2.3V300H34
			c2.9-4.5,3-4.6,3.5-4.6c0.6,0,0.8,0.1,3.1,2.9c1.5,1.8,1.6,2.1,1.6,2.4c0,0.4-0.3,0.6-0.8,0.6h-7.8v13.9c2.5-3,2.8-3.1,3.3-3.1
			c0.6,0,0.8,0.1,3.8,2.7c1.7,1.6,1.9,2,1.9,2.4c0,0.6-0.3,0.8-1.9,1.9v4.6c0,6.2,0.3,10.5,0.3,11.8c0,2-1.9,2.8-5.4,2.8
			c-1.8,0-2.3-0.5-2.3-2.3v-1.7L26.8,334.4z M33.3,333.1v-16.2h-5.7c-0.2,0.4-0.5,0.7-0.8,0.9v15.3L33.3,333.1z M55.8,300.8
			c5.7,1.6,7.2,2.6,7.2,3.4c0,0.6-0.4,1-2.4,1.7c-0.6,8.1-2.5,16.1-5.7,23.6c3.8,4.3,8.3,7.9,13.4,10.6c0.3,0.2,0.3,0.6-0.1,0.8
			c-2.5,1-4.5,3.1-5.5,5.6c-0.4,0.8-0.8,1.4-1.3,1.4c-0.8-0.1-1.6-0.4-2.2-1c-3.5-2.9-6.5-6.3-8.9-10.1
			c-5.3,6.3-12.4,10.7-20.4,12.6c-0.4,0.1-0.8-0.6-0.3-0.7c6.9-2.9,13.5-9.3,17.7-18c-1.9-8-2.7-16.3-2.3-24.5
			c-1.5,2.4-3.2,4.6-5.2,6.6c-0.3,0.3-0.8-0.1-0.6-0.5c2.4-4.3,4.4-12.4,5.7-24.8c0.1-1.7,0.2-2.7,0.3-4.6
			c9.2,2.4,10.3,2.9,10.3,3.9c0,0.8-0.3,1.3-2.3,2c-1.1,3.7-2.5,7.2-4.2,10.6h8.9c3.8-5.2,4-5.4,4.5-5.4s0.8,0.1,3.5,2.8
			c2.1,2.1,2.4,2.5,2.4,3.2c0,0.4-0.3,0.7-0.7,0.8h-0.1H55.8z M48,300.8c-0.6,1-1.1,2-1.7,3c0.2,6.4,1.4,12.8,3.7,18.8
			c1.6-7.2,2.5-14.5,2.7-21.8H48z"/>
		<path class="st0" d="M59.9,387.9c2.9-5.4,3.3-5.9,3.8-5.9c0.5,0,0.7,0.1,2.6,2.7c2.1,2.9,2.2,3.1,2.2,3.7s-0.3,0.9-1.2,0.9h-7.4
			v6.3c0,22.6,0.3,29.1,0.3,32.5c0,2-1.4,3.3-5.4,3.3c-2.7,0-3.3-0.4-3.3-2.7v-4.1h-7.8v3.9c0,2.4-2.2,3.2-5.4,3.2
			c-2.8,0-3.2-0.7-3.2-2.5c0-2,0.6-10.7,0.6-33.1v-6.8h-3.3c1,1.1,1.1,1.5,1.1,2c0,0.6-0.3,0.8-1.4,0.8h-11V406h0.4
			c3.3-4,3.5-4.3,4.1-4.3c0.7,0,1.1,0.2,4.3,3c2.2,1.9,2.6,2.4,2.6,3.1c0,0.6-0.1,0.8-2.1,2.4v3.6c0,5.3,0.3,9.7,0.3,11.6
			c0,2.1-2.6,3.6-5,3.6c-2.6,0-3.2-0.6-3.2-2.9v-1.6H12.2v3.2c0,2.2-1.8,3.3-5.1,3.3c-2.5,0-3-0.3-3-2.7c0-1.1,0.4-7.7,0.4-14.7
			c0-4.5,0-7.3-0.2-10.7c5.4,1.3,7.8,2.2,8.6,3h0.3V392h-4c-2.4,0-4.7,0.1-7,0.5l-0.6-2.4c2.5,0.3,5.1,0.5,7.7,0.5h4v-4.9
			c0-3.1,0-5.1-0.1-6.8c-4,0.3-8,0.6-12,0.6c-0.4,0-0.6-0.7-0.1-0.8c7.6-1.9,14.8-4.7,21.6-8.6c0.8-0.4,1.5-0.9,2.2-1.5
			c7.5,5.4,8.4,6.5,8.4,7.7c0,1.1-1,1.2-4.5,0.9c-2,0.3-4,0.6-6,0.8c0.1,0.1,0.1,0.2,0.1,0.3c0,0.7-0.4,0.9-1.6,1.5v10.7h2.2
			c3.7-5.5,4-5.6,4.5-5.6c0.6,0,0.8,0.2,3.3,2.8h4.5c0.2-6.7,0-13.4-0.6-20c8.7,1.2,10.9,2,10.9,2.9c0,1-0.6,1.5-2.3,2.5v14.8h7.8
			c0.2-6.7,0-13.3-0.6-20c8.6,1,11.5,1.9,11.5,2.8s-0.6,1.6-2.5,2.4L59.9,387.9z M22.5,423.1v-15.8h-9.4c-0.3,0.3-0.6,0.5-0.9,0.8
			v15H22.5z M43.7,389.3v14.6h7.8v-14.6H43.7z M51.4,423.2v-17.9h-7.8v17.9H51.4z"/>
		<path class="st0" d="M7.9,500.4c1.7,2.7,2.6,5.9,2.4,9.1c0.2,3-2,5.5-4.9,5.8c-1.9,0.3-3.6-1-3.8-2.9c0-0.2,0-0.3,0-0.5
			c0-1,0.5-1.9,2.3-3.6c2.2-2,3.3-4.9,3.2-7.9C7.1,499.9,7.7,500,7.9,500.4z M25.9,454.3c2.4-3.2,2.6-3.3,3.1-3.3
			c0.4,0,0.8,0.1,3.4,2.2c2.2,1.8,2.5,2.2,2.5,2.8c0,0.5-0.1,0.7-1.9,2.2v6c0,5.3,0.4,10.5,0.4,12.2c0,2.3-1.2,3.1-4.9,3.1
			c-1.5,0-1.8-0.5-1.8-2.2v-0.8h-5.2v8.1h2.3c3.6-4.3,3.9-4.7,4.4-4.7c0.6,0,0.8,0.1,3.5,2.6c1.9,1.8,2.2,2.2,2.2,2.7
			s-0.2,0.8-0.7,0.8H21.6v5.2c4.1-0.4,7.9-0.9,12.2-1.5c0.2,0,0.4,0.1,0.4,0.2c0,0.2,0,0.3-0.2,0.4c-8.8,3.9-17.9,7.1-27.1,9.7
			c-0.4,1.5-0.9,1.9-1.5,1.9c-1,0-1.7-1.1-3.6-9.6c1.5,0.1,3,0,4.5-0.1c3.2-0.1,6-0.4,8.6-0.5v-5.8h-3.1c-2.4,0-4.8,0.2-7.1,0.5
			L4,484c2.6,0.4,5.2,0.5,7.8,0.6h3.1v-8.1h-5v1.7c0,2-1.3,2.6-3.7,2.6c-2.3,0-2.6-0.3-2.6-2c0-1.4,0.3-7.8,0.3-17.2
			c0-5.8,0-7.9-0.2-10.2c4.9,1.5,6.6,2.4,7.3,3L25.9,454.3z M9.8,460.2c2.8,0.8,5,3.1,5.6,6v-7.5c0-0.9,0-2-0.1-3.1h-4.4
			c-0.3,0.3-0.7,0.6-1.1,0.8V460.2z M9.8,475h5.6v-6c-0.2,1.4-1.4,2.5-2.8,2.5c-1.3,0-1.9-1-1.9-2.3c0-0.9,0.2-2,0.3-3.6
			c0.2-1.6-0.3-3.2-1.3-4.5L9.8,475z M18.7,508.7c0,3.2-1.6,4.9-4.3,4.9c-1.5-0.2-2.6-1.4-2.6-2.9c0-0.9,0.1-1.8,0.3-3.3
			c0.5-2.6,0-5.3-1.4-7.5c-0.3-0.3,0.2-0.5,0.6-0.3C15.6,500.7,18.5,504.4,18.7,508.7L18.7,508.7z M26.7,507.8c0.2,2-1.2,3.8-3.2,4
			c-0.1,0-0.3,0-0.4,0c-1.9,0-2.9-1.5-2.9-3.4c0-3.8-1.6-7.4-4.5-9.8c-0.3-0.3,0.1-0.5,0.6-0.4C24.1,499.9,26.7,503.8,26.7,507.8
			L26.7,507.8z M26.7,455.7h-4.8c-0.1,0.4-0.3,0.6-1,1.1v12.6c0.6-2.4,1-5.3,1.3-7c0.2-1.2,0.3-2,0.4-3.3c1.4,0.6,2.8,1.4,4.1,2.2
			V455.7z M26.7,475v-11.5c-0.2,0.1-0.5,0.4-0.8,0.6c-1.4,2.1-2.9,4.3-5,7.5v3.4H26.7z M34.3,505.7c0,2.2-1,4.3-3.6,4.3
			c-1.4,0-2.7-0.9-3-3.6c-0.2-3.9-2.7-7.2-6.3-8.6c-0.3-0.2-0.1-0.6,0.3-0.6C31.1,497.3,34.3,501.7,34.3,505.7L34.3,505.7z
			 M56.4,468.5c4-5.4,4.5-5.8,5.2-5.8s1.4,0.5,4.1,3.2c2.2,2.2,2.6,2.6,2.6,3.2c0,0.5-0.3,0.8-0.9,0.8H52.7v16.3h2.6
			c3.1-4.1,3.5-4.3,4.1-4.3c0.8,0,1.5,0.4,4.1,2.7c2.7,2.4,3.1,2.7,3.1,3.4c0,0.7-0.3,1-2.2,2.6v7c0,5.3,0.3,11.4,0.3,14.2
			c0,2.1-2.4,3.3-5.7,3.3c-2.4,0-2.8-0.4-2.8-2.7V510H42.7v2.5c0,2.2-1.2,3.3-5.2,3.3c-2.5,0-2.7-0.3-2.7-2.7
			c0-1.1,0.3-8.6,0.3-19.3c0.1-3.6,0-7.2-0.3-10.8c5.9,1.7,7.9,2.4,8.6,3.1h1v-21.8c0.1-4.5-0.1-9.1-0.5-13.6
			c9.8,0.7,10.9,1.6,10.9,2.7c0,0.7-0.5,1.2-2.4,2.1v13L56.4,468.5z M56.4,508.6v-21H43.7c-0.2,0.3-0.5,0.6-0.8,0.8v20.2H56.4z"/>
		<path class="st0" d="M40.5,548.6c0-8.1-3.7-11.4-8.5-11.4c-4,0-7.3,2.7-7.3,5.2c-0.1,0.8,0.4,1.6,1,2c1.4,0.9,2.3,2.4,2.4,4.1
			c0.2,2.7-1.9,5.1-4.7,5.2c-0.2,0-0.4,0-0.6,0c-2.8,0.1-5.2-2.1-5.2-4.9c0-0.1,0-0.3,0-0.4c0-6.7,8-13,17-13
			c10.3,0,16.4,5.4,16.4,13.2c0,5.9-2.2,9.6-10.9,16.5c-5.3,4.2-6.3,5.8-6.3,9.6c0,0.8,0.1,1.5,0.3,2.2c-0.1,0.8-0.8,1.3-1.6,1.3
			c-0.5,0-0.7-0.3-0.7-0.8c0-7.7,0.6-9.8,3.8-14.5C39.4,557.2,40.5,554.2,40.5,548.6z M38.6,589.5c0,3.1-2.5,5.7-5.7,5.7
			c-3.1,0-5.7-2.5-5.7-5.7c0-3.1,2.5-5.7,5.7-5.7c0,0,0,0,0.1,0C36.1,583.8,38.6,586.3,38.6,589.5z"/>
	</g>
</g>
</svg>
