<?xml version="1.0" encoding="utf-8"?>
<!-- Generator: Adobe Illustrator 21.1.0, SVG Export Plug-In . SVG Version: 6.00 Build 0)  -->
<svg version="1.1" id="圖層_1" xmlns="http://www.w3.org/2000/svg" xmlns:xlink="http://www.w3.org/1999/xlink" x="0px" y="0px"
	 viewBox="0 0 842.2 148.3" style="enable-background:new 0 0 842.2 148.3;" xml:space="preserve">
<style type="text/css">
	.st0{fill:#2193B0;}
</style>
<g>
	<g>
		<path class="st0" d="M152.9,124.4v-6.5c-6.2,5.9-12.9,8.8-20,8.8c-14,0-20.9-5.9-20.9-17.8V74.6c0-2.3-0.8-3.9-2.3-4.8
			c-1.2-0.5-3.1-0.8-5.9-0.8v-4.8c7.4-0.3,14.1-2.2,20.2-5.6v51.3c0,6.8,3.4,10.2,10.4,10.2c6.8,0,13-3.1,18.6-9.5V74.3
			c0-2.2-0.6-3.6-1.6-4.3c-1.1-0.6-3.6-1.1-7.4-1.1v-4.8c7.4-0.3,14.4-2,20.8-5.4V115c0,2.3,0.6,3.7,2.2,4.2
			c0.3,0.3,2.2,0.3,5.3,0.3v4.8L152.9,124.4L152.9,124.4z"/>
		<path class="st0" d="M256.7,123.9v-4.8c5.7-0.2,8.7-1.6,8.7-4V77.3c0-3.7-1.1-6.8-2.9-9.2c-2-2.3-4.8-3.6-8.5-3.6
			c-5.3,0-10.1,3.4-14.4,10.2V115c0,2.5,2.9,3.9,9,4v4.8h-29.3V119c5.6-0.2,8.5-1.6,8.5-4V78.7c0-9.5-3.4-14.3-10.1-14.3
			c-5.7,0-11,3.3-15.8,9.5V115c0,2.5,2.8,3.9,8.7,4v4.8h-29.3V119c5.7-0.2,8.7-1.6,8.7-4V71.5c0-1.6-0.8-2.5-2.3-3.1
			c-1.2-0.3-3.4-0.5-6.8-0.5v-4.5c6.5-0.3,13.7-2,21.1-5v8.2c5.3-5.4,11.6-8.2,19.1-8.2c7.1,0,12.7,3.6,16.6,10.5
			c5-7,11.6-10.5,19.7-10.5c5.4,0,10.2,1.9,14.3,5.6c3.9,3.7,5.9,8.2,5.9,13.8V115c0,2.5,2.8,3.9,8.5,4v4.8h-29.4V123.9z"/>
		<path class="st0" d="M371.2,123.9v-4.8c5.7-0.2,8.7-1.6,8.7-4V77.3c0-3.7-1.1-6.8-2.9-9.2c-2-2.3-4.8-3.6-8.5-3.6
			c-5.3,0-10.1,3.4-14.4,10.2V115c0,2.5,2.9,3.9,9,4v4.8h-29.3V119c5.6-0.2,8.5-1.6,8.5-4V78.7c0-9.5-3.4-14.3-10.1-14.3
			c-5.7,0-11,3.3-15.8,9.5V115c0,2.5,2.8,3.9,8.7,4v4.8h-29.3V119c5.7-0.2,8.7-1.6,8.7-4V71.5c0-1.6-0.8-2.5-2.3-3.1
			c-1.2-0.3-3.4-0.5-6.8-0.5v-4.5c6.5-0.3,13.7-2,21.1-5v8.2c5.3-5.4,11.6-8.2,19.1-8.2c7.1,0,12.7,3.6,16.6,10.5
			c5-7,11.6-10.5,19.7-10.5c5.4,0,10.2,1.9,14.3,5.6c3.9,3.7,5.9,8.2,5.9,13.8V115c0,2.5,2.8,3.9,8.5,4v4.8h-29.4L371.2,123.9
			L371.2,123.9z"/>
		<path class="st0" d="M471.5,67.1c-1.9,1.1-3.3,2.8-4.2,5.3L442.9,132c-4.3,10.9-10.9,16.3-19.5,16.3c-6.8,0-10.2-2.6-10.2-7.8
			c0-1.9,0.6-3.4,2.2-4.5c1.4-1.2,2.9-1.9,4.7-1.9c1.6,0,3.4,0.9,5.6,2.8c2,1.9,3.4,2.8,4.3,2.8c1.2,0,3.1-2,5.7-6
			c2.2-3.7,4-7.3,5.6-11l-20.5-50.4c-1.9-4.3-5.7-6.5-11.9-6.5v-5h34.4v5c-7.1,0-10.5,1.4-10.5,3.9c0,0.8,0.6,2.8,1.9,5.9l13.2,31.6
			l13.2-32.7c1.1-2.8,1.7-4.7,1.7-5.4c0-2.2-3.3-3.3-9.5-3.3v-5H480v5C475.9,65.7,473.1,66.2,471.5,67.1z"/>
		<path class="st0" d="M512.8,126.7c-9,0-13.3-5.4-13.3-16.4v-47h-12.6v-4.8c12.7,0,19.1-8.5,19.1-25.6h5.3v25.6h17.4v4.8h-17.4
			v48.9c0,4.3,1.4,6.4,4.3,6.4c3.6,0,7.6-2.6,12.1-7.9l3.1,2.8C524.9,122.4,519,126.7,512.8,126.7z"/>
		<path class="st0" d="M587.9,126.7c-4,0-6.5-2.9-7.1-9.2c-7,6.2-15.2,9.2-24.5,9.2c-5.3,0-9.5-1.4-12.7-4.5c-3.4-2.9-5-6.7-5-11.2
			c0-16.9,14-26.1,42-27.6c-0.3-13-4.5-19.7-12.6-19.7c-7.4,0-11.5,2.6-12.1,7.8c-0.9,6.2-3.4,9.3-7.4,9.3c-4.7,0-6.8-2-6.8-6.4
			s2.2-8.1,6.5-11.2c4.7-3.3,11.2-5,19.2-5c16.6,0,25,8.2,25,24.4v32.6c0,1.2,0,1.7,0.2,1.7c0.9,0,2.3-0.8,4.2-2.3l3.1,3.7
			C595.6,123.9,591.6,126.7,587.9,126.7z M580.6,88.2c-7.8,0.8-14.4,2.9-20,6.7c-6.4,4.3-9.5,9.5-9.5,15.7c0,6.5,3.3,9.6,9.9,9.6
			c2.8,0,6.2-0.9,10.2-2.8s7.1-4.2,9.3-6.8L580.6,88.2L580.6,88.2z"/>
		<path class="st0" d="M654,122.4c-4,2.9-9.2,4.3-15.5,4.3c-2.3,0-5-0.3-7.9-1.2c-2.9-0.9-4.8-1.4-5.4-1.4c-1.6,0-3.7,1.1-6.5,3.1
			l-8.7-22.5l4.3-1.9c6.5,12.3,14.7,18.3,24.8,18.3c3.4,0,6.4-0.9,8.5-2.8c2.2-1.9,3.3-4.3,3.3-7.6c0-4.8-4.5-9-13.3-12.4
			c-9.3-3.4-14.9-5.9-17.1-7.3c-6.5-3.9-9.6-8.8-9.6-14.7s2.2-10.4,6.8-13.7c4-2.8,9.2-4.2,15.5-4.2c2.8,0,7,1.4,12.4,4
			c0.9,0.6,1.4,0.8,1.7,0.8c0.5,0,1.9-1.1,4.3-3.4l6.7,18.1l-4,2.3c-7-11-14-16.6-20.8-16.6c-3.6,0-6.5,1.1-8.8,3.1
			c-2.5,2-3.7,4.7-3.7,7.8c0,2.5,1.9,4.7,5.9,6.7c0.9,0.6,3.9,1.9,9.2,3.7c8.1,3.1,13.5,5.7,16.6,7.9c5.3,4,8.1,9.3,8.1,15.8
			C660.6,114.6,658.3,119.3,654,122.4z"/>
		<path class="st0" d="M695.1,126.7c-9,0-13.3-5.4-13.3-16.4v-47h-12.6v-4.8c12.7,0,19.1-8.5,19.1-25.6h5.3v25.6H711v4.8h-17.4v48.9
			c0,4.3,1.4,6.4,4.3,6.4c3.6,0,7.6-2.6,12.1-7.9l3.1,2.8C707.2,122.4,701.3,126.7,695.1,126.7z"/>
		<path class="st0" d="M733.4,87.9v6.2c0,6.2,1.4,11.6,4.5,16.3c3.4,5.3,7.9,7.8,13.7,7.8c6.5,0,13.7-4.3,21.1-13.2l3.7,3.3
			c-6.8,12.4-16.1,18.5-27.9,18.5c-8.4,0-15-3.4-20.3-10.4c-5-6.5-7.3-14.1-7.3-22.8c0-9,2.2-16.9,6.8-23.6
			c5.3-7.8,12.7-11.6,22-11.6c16.4,0,25.4,9.9,27.3,29.6L733.4,87.9L733.4,87.9z M749.7,63.6c-3.6,0-6.8,2.2-9.8,6.4
			c-3.1,4.2-5.1,8.5-5.7,13.2h29.6C761.9,70.1,757.1,63.6,749.7,63.6z"/>
		<g>
			<path class="st0" d="M111.8,35.1h-2.6c-6.3,0-12,3.6-16.9,10.9L68.6,80.5v33c0,3,1.1,5.7,3.4,8.1c2.2,2.3,4.8,3.4,7.9,3.4h1.9
				v6.2H30.3V125h2.2c3.2,0,5.9-1.1,8.1-3.3c2.2-2.3,3.3-5,3.3-8.2V89.4L14.5,44.8c-4.3-6.4-9.1-9.6-14.5-9.6V29h51.9v6.2h-3.3
				c-5.3,0-7.9,1.2-7.9,3.6c0,1.8,0.9,4,2.6,6.7l20.4,30.8l19.6-28.8c1.9-2.7,2.8-5,2.8-6.8c0-3.6-3.5-5.4-10.6-5.4h-3v-6.2h39.3
				V35.1z"/>
		</g>
	</g>
	<path class="st0" d="M809.1,10.3C812.4,4.5,816.6,0,823.9,0c13.2,0,21.1,10.8,17.3,23.8C839.1,31,834.6,36.5,829,41
		c-5.3,4.3-11.1,7.9-16.9,11.6c-1.2,0.8-3.5,1-4.7,0.4c-10.5-5.2-20.1-11.7-26.9-21.5c-4.1-5.9-5.8-12.4-3.7-19.4S784,1.5,791,0.4
		c7-1.1,12.5,1.4,16.2,7.4c0.4,0.7,0.8,1.3,1.3,2C808.6,10.1,808.7,10.1,809.1,10.3z"/>
</g>
</svg>
