<?xml version="1.0" encoding="utf-8"?>
<!-- Generator: Adobe Illustrator 21.1.0, SVG Export Plug-In . SVG Version: 6.00 Build 0)  -->
<svg version="1.1" id="圖層_1" xmlns="http://www.w3.org/2000/svg" xmlns:xlink="http://www.w3.org/1999/xlink" x="0px" y="0px"
	 viewBox="0 0 595.4 595.5" style="enable-background:new 0 0 595.4 595.5;" xml:space="preserve">
<style type="text/css">
	.st0{fill:#2193B0;}
	.st1{fill:#FFFFFF;}
</style>
<path class="st0" d="M297.5,565.7c-148-0.1-267.9-120.1-267.8-268.1C29.8,190,94.2,92.9,193.2,51c136.4-57.4,293.5,6.6,350.9,143
	c57.3,136.1-6.4,293-142.4,350.6C368.8,558.6,333.4,565.8,297.5,565.7z"/>
<path class="st0" d="M297.5,595.5C133.1,595.4-0.1,462,0,297.6c0.1-119.5,71.6-227.4,181.7-274c151.5-64,326.1,6.9,390.1,158.4
	s-6.9,326.1-158.4,390.1C376.7,587.6,337.3,595.6,297.5,595.5z M297.5,7.6C137.2,7.7,7.4,137.8,7.5,298.1
	c0,116.5,69.8,221.7,177.1,267.1c147.8,62.1,318-7.3,380.1-155c62-147.4-6.9-317.3-154.2-379.7C374.8,15.3,336.3,7.6,297.5,7.6z"/>
<g>
	<path class="st1" d="M214.6,123.7c6.1-10.8,13.9-19.1,27.5-19.1c24.5,0.1,39.2,20.2,32.2,44.2c-3.9,13.3-12.3,23.6-22.8,32
		c-9.9,7.9-20.6,14.8-31.3,21.6c-2.3,1.4-6.5,1.9-8.8,0.7c-19.5-9.6-37.3-21.7-50-39.9c-7.6-10.9-10.9-23-6.9-36.1
		c3.9-13,13.4-19.7,26.4-21.7s23.2,2.5,30.2,13.8c0.8,1.3,1.6,2.5,2.4,3.7C213.7,123.2,214,123.3,214.6,123.7z"/>
	<path class="st1" d="M516.8,220.4c-30,0-59.9,0-89.9,0c1,2.3,2.3,3.2,3.6,3.4c12.2,1.5,18.2,9.4,20.2,20.5
		c1.4,7.8,3.1,16.3,1.3,23.7c-7.9,31.7-17.1,63.1-25.8,94.6c-0.9-0.1-1.8-0.2-2.7-0.3c-1.3-2.6-2.7-5.1-3.9-7.8
		c-8.5-19.5-17-39-25.3-58.6c-7.7-18.2-15.6-36.4-22.5-54.9c-4.1-11-0.6-15.2,10.8-16.9c2.6-0.4,5.2-1.2,7.8-1.8
		c-0.1-0.6-0.2-1.1-0.3-1.7c-83,0-166,0-249.1,0c3.9,2.3,8,2.9,12,3.4c17.5,2.2,22.8,7.6,22.9,25.2c0.2,53,0.3,106,0,159.1
		c-0.1,19.9-7.7,27-27.6,28c-2.5,0.1-5,0.6-7.6,0.9c0.1,0.7,0.2,1.5,0.3,2.2c49.6,0,99.3,0,150.9,0c-3,3.3-4.6,5-6.1,6.8
		c-19.6,23.2-11.7,59.8,15.6,70.9c12,4.9,24.6,6,37.5,3.5c27.4-5.4,43.1-24,51.8-48.6c17.4-49,33.1-98.6,50.4-147.6
		c8.3-23.6,17.5-47.1,28.4-69.7c8.5-17.7,23-30,44.1-31.6c1.2-0.1,2.3-0.9,3.5-1.4C517,221.2,516.9,220.8,516.8,220.4z M360.5,507.1
		c-14,9.6-29.5,13.6-46.3,8.7c-3.8-1.1-7.3-3.2-10.8-4.9c10.8-1,21.1-0.3,30.3-3.1c18-5.5,26.2-21.4,23.6-41.5
		c-2.2-17.4-16.3-32.2-33.7-33.9c-6.6-0.7-13.4,1.3-20.1,1.5c-9.5,0.2-19.2,0.8-28.6-0.6c-7.5-1.1-11.8-7.5-13.2-15
		c-0.5-2.6-0.7-5.3-0.7-8c0-59.2,0-118.4,0-177.6c0-1.4,0.3-2.7,0.4-4.1c0.9-0.5,1.8-0.9,2.7-1.4c4.3,6.9,9.3,13.5,12.8,20.8
		c13.4,28,26.3,56.2,39.4,84.3c0.6,1.4,1.3,2.7,2.1,4.1l10.7,22.7c-0.1,0-0.1,0-0.2,0c6.1,12.9,11.8,24.7,17.4,36.6
		c6,12.8,12.2,25.6,17.9,38.6c2.1,4.8,4.9,6.7,10.1,6.4c7.6-0.4,15.3-0.1,24-0.1C390,466.2,383.4,491.4,360.5,507.1z"/>
</g>
</svg>
