<?xml version="1.0" encoding="utf-8"?>
<!-- Generator: Adobe Illustrator 21.1.0, SVG Export Plug-In . SVG Version: 6.00 Build 0)  -->
<svg version="1.1" id="圖層_1" xmlns="http://www.w3.org/2000/svg" xmlns:xlink="http://www.w3.org/1999/xlink" x="0px" y="0px"
	 viewBox="0 0 801.7 153.5" style="enable-background:new 0 0 801.7 153.5;" xml:space="preserve">
<style type="text/css">
	.st0{fill:#2193B0;}
	.st1{fill:#FFFFFF;}
</style>
<g>
	<g>
		<path class="st0" d="M76.7,145.8c-38.1,0-69.1-30.9-69.1-69c0-27.8,16.6-52.9,42.2-63.7c35.1-14.8,75.7,1.6,90.5,36.7
			s-1.6,75.7-36.7,90.5C95.1,144,85.9,145.8,76.7,145.8z"/>
		<path class="st0" d="M76.7,153.5C34.3,153.4,0,119.1,0,76.7C0,45.9,18.5,18.1,46.8,6.1c39-16.5,84.1,1.8,100.5,40.8
			s-1.8,84.1-40.8,100.5C97.1,151.4,87,153.5,76.7,153.5z M76.7,1.9C35.4,1.9,1.9,35.4,1.9,76.8c0,30,18,57.2,45.7,68.9
			c38.1,16.1,82-1.7,98-39.8s-1.7-82-39.8-98l0,0C96.6,3.9,86.7,1.9,76.7,1.9z"/>
		<g>
			<path class="st1" d="M56.2,33.2c1.5-2.6,3.4-4.7,6.8-4.7c6,0,9.6,4.9,7.9,10.9c-0.9,3.3-3,5.8-5.6,7.9c-2.4,1.9-5.1,3.6-7.7,5.3
				C57,53,56,53.1,55.4,52.8c-4.8-2.4-9.1-5.3-12.3-9.8c-1.9-2.7-2.7-5.6-1.7-8.9c1-3.2,3.3-4.8,6.5-5.3c3.2-0.5,5.7,0.6,7.4,3.4
				c0.2,0.3,0.4,0.6,0.6,0.9C56,33.1,56,33.1,56.2,33.2z"/>
			<path class="st1" d="M130.3,57c-7.4,0-14.7,0-22.1,0c0.3,0.6,0.6,0.8,0.9,0.8c3,0.4,4.5,2.3,4.9,5c0.3,1.9,0.8,4,0.3,5.8
				c-1.9,7.8-4.2,15.5-6.3,23.2c-0.2,0-0.4-0.1-0.7-0.1c-0.3-0.6-0.7-1.3-1-1.9c-2.1-4.8-4.2-9.6-6.2-14.4
				c-1.9-4.5-3.8-8.9-5.5-13.5c-1-2.7-0.1-3.7,2.7-4.2c0.6-0.1,1.3-0.3,1.9-0.4c0-0.1-0.1-0.3-0.1-0.4c-20.4,0-40.7,0-61.1,0
				c1,0.6,2,0.7,2.9,0.8c4.3,0.5,5.6,1.9,5.6,6.2c0.1,13,0.1,26,0,39c0,4.9-1.9,6.6-6.8,6.9c-0.6,0-1.2,0.1-1.9,0.2
				c0,0.2,0,0.4,0.1,0.5c12.2,0,24.4,0,37,0c-0.7,0.8-1.1,1.2-1.5,1.7c-4.8,5.7-2.9,14.7,3.8,17.4c3,1.2,6,1.5,9.2,0.9
				c6.7-1.3,10.6-5.9,12.7-11.9c4.3-12,8.1-24.2,12.4-36.2c2-5.8,4.3-11.6,7-17.1c2.1-4.4,5.6-7.4,10.8-7.8c0.3,0,0.6-0.2,0.9-0.3
				C130.4,57.1,130.3,57.1,130.3,57z M92,127.3c-3.4,2.4-7.2,3.3-11.4,2.1c-0.9-0.3-1.8-0.8-2.7-1.2c2.6-0.2,5.2-0.1,7.4-0.8
				c4.4-1.4,6.4-5.2,5.8-10.2c-0.5-4.3-4-7.9-8.3-8.3c-1.6-0.2-3.3,0.3-4.9,0.4c-2.3,0.1-4.7,0.2-7-0.1c-1.8-0.3-2.9-1.8-3.2-3.7
				c-0.1-0.6-0.2-1.3-0.2-2c0-14.5,0-29.1,0-43.6c0-0.3,0.1-0.7,0.1-1c0.2-0.1,0.4-0.2,0.7-0.3c1.1,1.7,2.3,3.3,3.1,5.1
				c3.3,6.9,6.4,13.8,9.7,20.7c0.2,0.3,0.3,0.7,0.5,1l2.6,5.6l0,0c1.5,3.2,2.9,6.1,4.3,9c1.5,3.1,3,6.3,4.4,9.5
				c0.5,1.2,1.2,1.6,2.5,1.6c1.9-0.1,3.7,0,5.9,0C99.2,117.3,97.6,123.4,92,127.3z"/>
		</g>
	</g>
	<g>
		<g>
			<path class="st0" d="M282.2,122.6v-4.9c-4.7,4.4-9.7,6.7-15.1,6.7c-10.5,0-15.8-4.4-15.8-13.4V85.1c0-1.8-0.6-2.9-1.8-3.6
				c-0.9-0.4-2.3-0.6-4.4-0.6v-3.6c5.6-0.2,10.6-1.6,15.2-4.2v38.7c0,5.1,2.6,7.7,7.8,7.7c5.1,0,9.8-2.3,14-7.1V85
				c0-1.6-0.5-2.7-1.2-3.3c-0.8-0.5-2.7-0.8-5.6-0.8v-3.6c5.6-0.2,10.9-1.5,15.7-4.1v42.4c0,1.8,0.5,2.8,1.6,3.2
				c0.2,0.2,1.6,0.2,4,0.2v3.6L282.2,122.6L282.2,122.6z"/>
			<path class="st0" d="M360.5,122.3v-3.6c4.3-0.1,6.5-1.2,6.5-3V87.1c0-2.8-0.8-5.1-2.2-6.9c-1.5-1.8-3.6-2.7-6.4-2.7
				c-4,0-7.6,2.6-10.9,7.7v30.4c0,1.9,2.2,2.9,6.8,3v3.6h-22.1v-3.6c4.2-0.1,6.4-1.2,6.4-3V88.2c0-7.1-2.6-10.8-7.6-10.8
				c-4.3,0-8.3,2.5-11.9,7.1v31c0,1.9,2.1,2.9,6.5,3v3.6h-22.1v-3.6c4.3-0.1,6.5-1.2,6.5-3V82.6c0-1.2-0.6-1.9-1.8-2.3
				c-0.9-0.2-2.6-0.4-5.1-0.4v-3.4c4.9-0.2,10.3-1.5,15.9-3.7V79c4-4.1,8.8-6.2,14.4-6.2c5.4,0,9.6,2.7,12.5,8c3.7-5.3,8.8-8,14.8-8
				c4.1,0,7.7,1.4,10.8,4.2c2.9,2.8,4.4,6.2,4.4,10.4v28.1c0,1.9,2.1,2.9,6.4,3v3.6h-21.8L360.5,122.3L360.5,122.3z"/>
			<path class="st0" d="M446.7,122.3v-3.6c4.3-0.1,6.5-1.2,6.5-3V87.1c0-2.8-0.8-5.1-2.2-6.9c-1.5-1.8-3.6-2.7-6.4-2.7
				c-4,0-7.6,2.6-10.9,7.7v30.4c0,1.9,2.2,2.9,6.8,3v3.6h-22.1v-3.6c4.2-0.1,6.4-1.2,6.4-3V88.2c0-7.1-2.6-10.8-7.6-10.8
				c-4.3,0-8.3,2.5-11.9,7.1v31c0,1.9,2.1,2.9,6.5,3v3.6h-22.1v-3.6c4.3-0.1,6.5-1.2,6.5-3V82.6c0-1.2-0.6-1.9-1.8-2.3
				c-0.9-0.2-2.6-0.4-5.1-0.4v-3.4c4.9-0.2,10.3-1.5,15.9-3.7V79c4-4.1,8.8-6.2,14.4-6.2c5.4,0,9.6,2.7,12.5,8c3.7-5.3,8.8-8,14.8-8
				c4.1,0,7.7,1.4,10.8,4.2c2.9,2.8,4.4,6.2,4.4,10.4v28.1c0,1.9,2.1,2.9,6.4,3v3.6h-21.8L446.7,122.3L446.7,122.3z"/>
			<path class="st0" d="M522.4,79.5c-1.4,0.8-2.5,2.1-3.2,4l-18.4,44.9c-3.3,8.2-8.2,12.3-14.7,12.3c-5.1,0-7.7-2-7.7-5.8
				c0-1.4,0.5-2.6,1.6-3.4c1.1-0.9,2.2-1.4,3.5-1.4c1.2,0,2.6,0.7,4.2,2.1c1.5,1.4,2.6,2.1,3.3,2.1c0.9,0,2.3-1.5,4.3-4.6
				c1.6-2.8,3-5.5,4.2-8.3l-15.4-38c-1.4-3.3-4.3-4.9-9-4.9v-3.7h26v3.7c-5.4,0-8,1.1-8,2.9c0,0.6,0.5,2.1,1.4,4.4l9.9,23.8
				l9.9-24.7c0.8-2.1,1.3-3.5,1.3-4.1c0-1.6-2.5-2.5-7.1-2.5v-3.7h20.1v3.7C525.6,78.4,523.5,78.8,522.4,79.5z"/>
			<path class="st0" d="M553.5,124.4c-6.8,0-10.1-4.1-10.1-12.4V76.6h-9.5V73c9.6,0,14.4-6.4,14.4-19.3h4V73h13.1v3.6h-13.1v36.8
				c0,3.3,1.1,4.8,3.3,4.8c2.7,0,5.7-2,9.1-6l2.3,2.1C562.6,121.1,558.1,124.4,553.5,124.4z"/>
			<path class="st0" d="M610,124.4c-3,0-4.9-2.2-5.4-6.9c-5.3,4.7-11.5,6.9-18.5,6.9c-4,0-7.1-1.1-9.6-3.4c-2.6-2.2-3.7-5-3.7-8.4
				c0-12.7,10.5-19.6,31.7-20.8C604.3,82,601.1,77,595,77c-5.6,0-8.7,2-9.1,5.8c-0.7,4.7-2.6,7-5.6,7c-3.5,0-5.1-1.5-5.1-4.8
				s1.6-6.1,4.9-8.4c3.5-2.5,8.4-3.7,14.5-3.7c12.5,0,18.8,6.2,18.8,18.4v24.6c0,0.9,0,1.3,0.1,1.3c0.7,0,1.8-0.6,3.2-1.8l2.3,2.8
				C615.9,122.3,612.8,124.4,610,124.4z M604.5,95.4c-5.8,0.6-10.9,2.2-15.1,5c-4.8,3.3-7.1,7.1-7.1,11.8c0,4.9,2.5,7.2,7.5,7.2
				c2.1,0,4.7-0.7,7.7-2.1s5.4-3.2,7-5.1L604.5,95.4L604.5,95.4z"/>
			<path class="st0" d="M659.8,121.1c-3,2.2-6.9,3.3-11.7,3.3c-1.8,0-3.7-0.2-6-0.9c-2.2-0.7-3.6-1.1-4.1-1.1
				c-1.2,0-2.8,0.8-4.9,2.3l-6.5-17l3.3-1.4c4.9,9.2,11.1,13.8,18.7,13.8c2.6,0,4.8-0.7,6.4-2.1c1.6-1.4,2.5-3.3,2.5-5.7
				c0-3.6-3.4-6.8-10.1-9.4c-7-2.6-11.2-4.4-12.9-5.5c-4.9-2.9-7.2-6.7-7.2-11.1s1.6-7.8,5.1-10.3c3-2.1,6.9-3.2,11.7-3.2
				c2.1,0,5.3,1.1,9.4,3c0.7,0.5,1.1,0.6,1.3,0.6c0.4,0,1.4-0.8,3.3-2.6l5,13.7l-3,1.8c-5.3-8.3-10.5-12.5-15.7-12.5
				c-2.7,0-4.9,0.8-6.7,2.3c-1.9,1.5-2.8,3.5-2.8,5.8c0,1.9,1.4,3.5,4.4,5c0.7,0.5,2.9,1.4,6.9,2.8c6.1,2.3,10.2,4.3,12.5,6
				c4,3,6.1,7,6.1,11.9C664.9,115.3,663.1,118.8,659.8,121.1z"/>
			<path class="st0" d="M690.8,124.4c-6.8,0-10.1-4.1-10.1-12.4V76.6h-9.5V73c9.6,0,14.4-6.4,14.4-19.3h4V73h13.1v3.6h-13.1v36.8
				c0,3.3,1.1,4.8,3.3,4.8c2.7,0,5.7-2,9.1-6l2.3,2.1C699.9,121.1,695.5,124.4,690.8,124.4z"/>
			<path class="st0" d="M719.7,95.2v4.7c0,4.7,1.1,8.8,3.4,12.3c2.6,4,6,5.8,10.3,5.8c4.9,0,10.3-3.3,15.9-9.9l2.8,2.5
				c-5.1,9.4-12.2,13.9-21,13.9c-6.3,0-11.3-2.6-15.3-7.8c-3.7-4.9-5.5-10.6-5.5-17.2c0-6.8,1.6-12.7,5.1-17.8
				c4-5.8,9.6-8.8,16.6-8.8c12.4,0,19.2,7.5,20.6,22.3H719.7z M732,76.8c-2.7,0-5.1,1.6-7.4,4.8c-2.3,3.2-3.9,6.4-4.3,9.9h22.3
				C741.2,81.7,737.6,76.8,732,76.8z"/>
			<g>
				<path class="st0" d="M251.2,55.4h-2c-4.8,0-9,2.7-12.8,8.2l-17.8,26v24.8c0,2.3,0.9,4.3,2.6,6.1c1.6,1.7,3.6,2.6,6,2.6h1.4v4.7
					h-38.8v-4.7h1.6c2.4,0,4.5-0.8,6.1-2.5s2.5-3.8,2.5-6.2V96.2l-22.1-33.6c-3.2-4.8-6.8-7.3-10.9-7.3v-4.7h39.1v4.7h-2.5
					c-4,0-6,0.9-6,2.7c0,1.3,0.7,3,2,5L215,86.2l14.8-21.7c1.4-2,2.1-3.8,2.1-5.2c0-2.7-2.7-4.1-8-4.1h-2.2v-4.7h29.5V55.4z"/>
			</g>
		</g>
		<path class="st0" d="M776.7,36.7c2.5-4.4,5.7-7.7,11.2-7.7c9.9,0,15.9,8.2,13.1,18c-1.6,5.4-5,9.6-9.2,13c-4,3.2-8.4,6-12.7,8.7
			c-0.9,0.6-2.6,0.8-3.6,0.3c-7.9-3.9-15.1-8.8-20.3-16.2c-3.1-4.4-4.4-9.3-2.8-14.7c1.6-5.3,5.4-8,10.7-8.8s9.4,1,12.2,5.6
			c0.3,0.5,0.6,1,1,1.5C776.4,36.5,776.5,36.5,776.7,36.7z"/>
	</g>
</g>
</svg>
