<?xml version="1.0" encoding="utf-8"?>
<!-- Generator: Adobe Illustrator 21.1.0, SVG Export Plug-In . SVG Version: 6.00 Build 0)  -->
<svg version="1.1" id="圖層_1" xmlns="http://www.w3.org/2000/svg" xmlns:xlink="http://www.w3.org/1999/xlink" x="0px" y="0px"
	 viewBox="0 0 161.5 595.4" style="enable-background:new 0 0 161.5 595.4;" xml:space="preserve">
<style type="text/css">
	.st0{fill:#2193B0;}
</style>
<g transform="translate(29.64 109.344)">
	<g transform="translate(-29.64 -109.345)">
		<path class="st0" d="M161.2,27.8c-2.8,1.4-5,3.8-6.3,6.7c-0.5,0.9-0.8,1.1-1.4,1.1c-0.5,0-1-0.1-1.4-0.4
			c-4.5-2.4-8.6-5.7-11.8-9.7c-4.7-5.8-8.1-12.4-10.1-19.6c-6.6,13.5-17.7,24.3-31.4,30.6c-0.4,0.1-0.7-0.5-0.4-0.7
			c7.1-4.8,15.9-16.7,21.6-30.2c0.8-1.7,1.4-3.6,1.8-5.6c10.5,2.1,11.4,2.9,11.4,3.8c0,0.7-0.7,1.2-2.3,1.7c3.9,6,9.1,11,15.2,14.7
			c4.6,3,9.7,5.4,15,7C161.5,27.3,161.5,27.6,161.2,27.8z M134.8,36.7c3.2-4.1,3.7-4.4,4.4-4.4c0.8,0,1.3,0.3,4.9,3.5
			c2.2,1.9,2.4,2.3,2.4,2.9c0,0.8-0.3,1.2-2.8,2.3c-1.8,6.6-4.1,13.2-6.7,19.5c-0.5,0.9-1.5,1.5-2.6,1.4c-3,0-6-0.9-6-2.3
			c0.1-0.8,0.3-1.5,0.7-2.2c2.8-6.3,5.2-12.8,7.2-19.4h-18.9c-2.6,0-5.2,0.1-7.8,0.5l-0.6-2.2c2.8,0.3,5.6,0.5,8.4,0.5L134.8,36.7z
			 M123.5,28.3c-2.2,0-4.5,0.2-6.7,0.5l-0.7-2.3c2.4,0.3,4.9,0.5,7.3,0.5h5.8c3.9-5,4.2-5.2,4.6-5.2c0.5,0,0.8,0.2,4.1,3.3
			c2,1.8,2.1,2,2.1,2.5s-0.2,0.7-0.7,0.7H123.5z"/>
		<path class="st0" d="M133,103.5c1.8,7.1,5.8,13.3,11.4,17.9c4.8,4.3,10.4,7.6,16.5,9.7c0.4,0.1,0.3,0.5-0.1,0.6
			c-2.9,0.6-4.6,2.2-7.1,6.1c-0.8,1.2-1.1,1.2-1.8,1.2c-0.8-0.1-1.6-0.5-2.3-1c-5.8-3.4-10.4-8.4-13.5-14.4
			c-2.7-5.9-4.2-12.4-4.2-18.9c-0.4,6.5-2.5,12.8-5.9,18.4c-6.4,9.2-16.2,15.3-27.2,17.1c-0.4,0.1-0.8-0.5-0.4-0.7
			c8.3-3.2,15.2-9.2,19.5-17.1c3.2-5.9,5-12.4,5.3-19h-11.3c-2.3,0-4.8,0.1-8.6,0.5l-0.7-2.2c4.3,0.3,6.9,0.5,9.2,0.5h11.4
			c0.2-2.7,0.3-5.7,0.3-9.1c0-2.5-0.1-4.4-0.1-6.1h-14.2c-2.3,0-4.8,0.1-8.6,0.5l-0.7-2.2c4.3,0.3,6.9,0.5,9.2,0.5h36.7
			c5-5.8,5.4-6.3,6.1-6.3c0.8,0,1.1,0.2,4.8,3.5c2.7,2.5,2.9,2.8,2.9,3.3s-0.3,0.7-0.8,0.7h-24.6c-0.1,0.8-0.4,1.3-1.7,2.2
			c0,5.1-0.1,9.3-0.5,13.1h11.4c4.9-5.9,5.2-6.1,5.8-6.1c0.8,0,1.2,0.3,4.5,3.3c2.4,2.2,3,2.9,3,3.4s-0.3,0.7-0.8,0.7L133,103.5z"/>
		<path class="st0" d="M134.4,208.5c2.2,0.1,4.8,0.1,7.8,0.1c6.1,0.1,12.3-0.2,18.4-1c0.4-0.1,0.5,0.5,0.1,0.7
			c-2.8,1.5-4.7,4.2-5.1,7.3c-0.1,0.9-0.9,1.7-1.8,1.7c-3.4,0.3-6.8,0.3-10.3,0.2c-10.1,0-16.4-1.5-20.6-4.2
			c-3.7-2.2-6.4-5.9-7.3-10.2c-4.5,6.2-10.4,11.2-17.2,14.5c-0.4,0.1-0.7-0.3-0.4-0.6c4.4-3.3,10.3-12.7,13.3-23.6
			c0.4-1.5,0.7-2.5,1-4.1c9.6,3.3,10.1,3.6,10.1,4.5c0,0.8-0.3,1.1-2.5,1.8c-0.9,2.3-2.1,4.5-3.5,6.5c1.3,2.2,3.3,3.8,5.7,4.6
			c1.3,0.5,2.6,0.9,4,1.1V194c0-2.4,0-4.4-0.2-6.7h-17.6c-2.5,0-5,0.1-7.4,0.5l-0.7-2.2c3.4,0.3,6,0.5,8.1,0.5h39
			c4.5-5.7,4.6-5.8,5.3-5.8c0.7,0,0.8,0,4.4,3.5c2.4,2.2,2.6,2.4,2.6,3c0,0.4-0.3,0.6-0.6,0.7h-0.1h-23c-0.1,0.5-0.4,0.8-1.4,1.3
			v9.3h7.9c4.3-5.4,4.4-5.5,5-5.5c0.7,0,0.8,0.1,4.3,3.3c2.2,2.1,2.4,2.2,2.4,2.8c0,0.3-0.2,0.6-0.5,0.7h-0.1h-18.9v9.1H134.4z
			 M119.6,181.2c0,1.9-1.6,2.7-5.4,2.7c-2.3,0-2.9-0.5-2.9-2.1c0-1.2,0.2-6.4,0.2-14.2c0-3.3,0-7.3-0.2-10c7.2,1.4,9,2.2,9.4,2.7
			H138c3.1-3.5,3.3-3.7,4-3.7s1,0.1,4.3,2.5c2.8,2.1,2.9,2.4,2.9,2.9s-0.1,0.7-1.7,2v5.9c0,5.7,0.3,8.4,0.3,9.6c0,1.9-2,2.9-5.8,2.9
			c-2.6,0-3.1-0.4-3.1-2.3v-1.2h-19.5v2.3H119.6z M120.6,161.7c-0.3,0.3-0.7,0.5-1,0.7v6.5h19.5v-7.3L120.6,161.7z M139.1,177.8
			v-7.5h-19.5v7.5H139.1z"/>
		<path class="st0" d="M105.6,260.9c-2.1,2.9-4.5,5.6-7.2,8c-0.3,0.3-0.8-0.2-0.6-0.5c3.2-4.8,7.1-15,10.8-28.2
			c0.4-1.5,0.8-3.1,1.1-4.7c8.6,3.2,9.7,4.1,9.7,4.9c0,0.9-0.6,1.6-2.9,2.2c-1.6,3.8-3.5,7.4-5.7,10.9c3.5,1.4,4.2,2,4.2,2.7
			c0,0.6-0.4,1-2,1.7v14.6c0,15.7,0.1,19.8,0.1,21.4c0,1.8-2,2.8-5.1,2.8c-2.5,0-2.9-0.5-2.9-2.2s0.3-6.1,0.4-15.9L105.6,260.9z
			 M148.5,240.4c3.2-3.7,3.3-3.8,4.1-3.8c0.7,0,0.9,0,3.8,2.6c2.4,2.1,2.5,2.4,2.5,2.9c0,0.6-0.2,0.8-1.7,2.2V256
			c0,25,0.4,35,0.4,36.7c0,2-2,3.3-5.6,3.3c-2,0-2.5-0.5-2.5-2.4V291H127v2.2c0,1.9-1.4,3.1-4.8,3.1c-2.2,0-2.7-0.3-2.7-2.4
			c0-1.8,0.5-12.1,0.5-38.8c0-9.9-0.1-14.1-0.3-17.6c6.3,1.4,8.4,2.3,8.9,3L148.5,240.4z M149.5,289.7v-48h-21.1
			c-0.4,0.4-0.9,0.7-1.4,0.9v47.1H149.5z M141.9,253.6c2.5-3.7,2.7-3.9,3.1-3.9s0.6,0.1,2.4,2.2c1.4,1.7,1.6,2,1.6,2.4
			s-0.3,0.6-0.7,0.6h-7.5v10.3c1.8-2.5,2-2.7,2.5-2.7s0.6,0,2.6,1.8c1.9,1.8,2,2,2,2.4s-0.1,0.6-1.1,1.5v2.6c0,6.7,0.3,10.8,0.3,12
			c0,1.8-1.2,2.6-4.3,2.6c-1.6,0-2-0.5-2-2.2v-1.8h-5.1v1.9c0,1.7-1.2,2.5-4.2,2.5c-1.4,0-1.8-0.4-1.8-1.8c0-1.3,0.3-5.4,0.3-12.1
			c0-2.7,0-5.4-0.2-8.9c2.4,0.7,3.9,1.2,5,1.6v-9.8h-0.2c-1.2,0-3.3,0.1-6.3,0.5l-0.7-2.2c2.3,0.3,4.7,0.5,7,0.5h0.2
			c0.1-3.5,0-7-0.3-10.5c7.3,0.7,7.6,1.2,7.6,1.8c0,0.5-0.1,0.9-1.4,1.5v7.1L141.9,253.6z M140.7,280.2v-13.6h-4.1
			c-0.3,0.4-0.6,0.7-1,0.8v12.7L140.7,280.2z"/>
		<path class="st0" d="M123.3,377.1v-65.3h2.1v65.3L123.3,377.1L123.3,377.1z"/>
		<path class="st0" d="M123.3,442.4v-65.3h2.1v65.3L123.3,442.4L123.3,442.4z"/>
		<path class="st0" d="M22.3,50.9c0,10.7,0.4,15.5,0.4,17.2c0,2-1.3,3.2-5.4,3.2c-1.7,0-2.2-0.7-2.2-2.5v-1.4h-5V73
			c0,2-1.8,2.8-5.3,2.8c-1.4,0-2-0.3-2-2.4c0-1.8,0.3-12.2,0.3-21.6c0-7.5,0-11.2-0.3-15c6.2,1.6,8.1,2.5,8.7,3.3h2.8
			c2.6-3.4,2.9-3.6,3.5-3.6c0.7,0,0.8,0,3.7,2.3c2.5,2,2.7,2.4,2.7,2.9c0,0.7-0.1,0.9-1.9,2.4L22.3,50.9z M15,66V41.3h-3.5
			c-0.4,0.4-0.9,0.7-1.4,0.9V66H15z M50,45.3c4.8-6.3,5.1-6.5,5.7-6.5c0.7,0,1,0.1,4.6,3.8c2.2,2.2,2.5,2.6,2.5,3.2
			s-0.3,0.8-1.1,0.8H32.9c-2.7,4.2-5.9,8.1-9.5,11.6c-0.3,0.3-0.8-0.1-0.7-0.4c3.4-7.1,5.8-14.6,7.2-22.4c0.3-1.7,0.6-3.4,0.7-5.1
			c10.5,2.4,11,3.1,11,3.9c0,1-0.5,1.4-2.9,2.2c-1.5,3.1-3.1,6.1-5,9L50,45.3L50,45.3z M40.9,56.8c3.7-4.1,4-4.2,4.6-4.2
			c0.7,0,1.1,0.2,3.7,2.4c2.9,2.5,3.3,3,3.3,3.6c0,0.8-0.1,1.1-4.8,3.5C35.8,75.7,33.8,78.5,33.8,79.9s0.3,2,9.8,2
			c6.9,0,9.5-0.8,11-2.3c2.4-2.9,4.2-6.3,5.2-10c0.1-0.4,0.5-0.3,0.5,0.1c-0.3,5.3-0.4,7.2-0.4,8c0.1,1,0.4,2,1,2.9
			c0.7,1,1.1,2.2,1,3.5c0,3.1-2,5.2-19.7,5.2c-15,0-16.9-2.5-16.9-6.7c0-3.5,0.2-4.6,15.5-24.6h-7.6c-2.1,0-4.3,0.2-6.4,0.5
			l-0.7-2.2c2.3,0.3,4.7,0.5,7.1,0.5H40.9z"/>
		<path class="st0" d="M55.5,128.3c2.7-5.1,3.1-5.5,3.5-5.5s0.7,0.1,2.4,2.5c2,2.7,2.1,2.9,2.1,3.5s-0.3,0.9-1.1,0.9h-6.9v5.9
			c0,21.2,0.3,27.2,0.3,30.4c0,1.9-1.3,3.1-5.1,3.1c-2.5,0-3.1-0.4-3.1-2.6v-3.9h-7.2v3.7c0,2.2-2,3-5.1,3c-2.6,0-3-0.7-3-2.4
			c0-1.8,0.6-10,0.6-31v-6.3h-3.1c0.9,1,1,1.4,1,1.8c0,0.6-0.3,0.8-1.3,0.8H19.2v13h0.4c3.1-3.8,3.3-4,3.9-4c0.7,0,1,0.2,4,2.8
			c2,1.8,2.4,2.3,2.4,2.9c0,0.6-0.1,0.8-2,2.3v3.4c0,5,0.3,9.1,0.3,10.9c0,2-2.4,3.3-4.7,3.3c-2.4,0-3-0.6-3-2.7v-1.5h-9.7v3
			c0,2-1.7,3.1-4.8,3.1c-2.4,0-2.8-0.3-2.8-2.5c0-1,0.4-7.2,0.4-13.8c0-4.2,0-6.8-0.2-10c2.8,0.4,5.6,1.4,8,2.8h0.3v-13H8
			c-2.2,0-4.4,0.1-6.6,0.5l-0.6-2.2c2.4,0.3,4.8,0.4,7.2,0.5h3.7v-4.6c0-2.9,0-4.8-0.1-6.3c-3.8,0.3-7.5,0.5-11.2,0.5
			c-0.4,0-0.5-0.7-0.1-0.7c7.1-1.7,13.9-4.4,20.3-8c0.7-0.4,1.4-0.9,2-1.4c7,5,7.8,6.1,7.8,7.2c0,1-0.9,1.1-4.2,0.8
			c-1.9,0.3-3.8,0.5-5.6,0.7c0.1,0.1,0.1,0.2,0.1,0.3c0,0.7-0.4,0.8-1.5,1.4V131h2.1c3.5-5.2,3.7-5.2,4.2-5.2s0.8,0.2,3.1,2.6h4.2
			c0.2-6.3,0-12.5-0.5-18.8c8.2,1.1,10.2,1.9,10.2,2.7c0,1-0.6,1.4-2.2,2.3v13.7h7.3c0.2-6.2,0-12.5-0.5-18.7c8,1,10.8,1.8,10.8,2.6
			s-0.6,1.5-2.4,2.2L55.5,128.3L55.5,128.3z M20.6,161.3v-14.8h-8.8c-0.3,0.3-0.5,0.5-0.8,0.7v14h9.6V161.3z M40.4,129.6v13.7h7.3
			v-13.7H40.4z M47.6,161.4v-16.8h-7.3v16.8H47.6z"/>
		<path class="st0" d="M6.8,233.6c1.6,2.6,2.4,5.5,2.3,8.6c0.2,2.8-1.9,5.2-4.6,5.4c-1.7,0.2-3.3-1-3.6-2.7c0-0.2,0-0.3,0-0.5
			c0-1,0.5-1.8,2.2-3.4c2-1.9,3.1-4.6,3-7.4C6.1,233.2,6.6,233.3,6.8,233.6z M23.7,190.5c2.2-3,2.4-3.1,2.9-3.1
			c0.4,0,0.7,0.1,3.2,2.1c2,1.7,2.4,2,2.4,2.6c0,0.5-0.1,0.7-1.8,2v5.6c0,5,0.4,9.8,0.4,11.4c0,2.2-1.1,2.9-4.6,2.9
			c-1.4,0-1.7-0.5-1.7-2.1v-0.8h-4.9v7.6h2.2c3.3-4.1,3.7-4.4,4.1-4.4c0.6,0,0.8,0.1,3.3,2.4c1.8,1.7,2,2.1,2,2.5
			c0,0.5-0.2,0.7-0.7,0.7H19.6v4.9c3.9-0.4,7.4-0.8,11.4-1.4c0.2,0,0.3,0.1,0.4,0.2c0,0.2,0,0.3-0.2,0.4c-8.2,3.6-16.7,6.7-25.4,9.1
			c-0.4,1.4-0.8,1.8-1.4,1.8c-1,0-1.6-1-3.4-9c1.4,0.1,2.8,0,4.2-0.1c3-0.1,5.6-0.3,8.1-0.5v-5.4h-2.9c-2.2,0-4.5,0.2-6.7,0.5
			L3,218.1c2.4,0.3,4.9,0.5,7.3,0.5h2.9V211H8.6v1.6c0,1.9-1.2,2.4-3.5,2.4c-2.2,0-2.4-0.3-2.4-1.9c0-1.3,0.3-7.3,0.3-16.1
			c0-5.4,0-7.4-0.2-9.5c2.4,0.5,4.7,1.4,6.8,2.8h14.1V190.5z M8.7,196c2.7,0.7,4.7,2.9,5.2,5.6v-7c0-0.8,0-1.9-0.1-2.9H9.7
			c-0.3,0.3-0.7,0.5-1,0.7V196z M8.7,209.9h5.2v-5.6c-0.2,1.3-1.3,2.3-2.6,2.4c-1.2,0-1.8-1-1.8-2.2c0-0.8,0.2-1.9,0.3-3.3
			c0.2-1.5-0.3-3-1.2-4.2v12.9H8.7z M17,241.5c0,3-1.5,4.6-4,4.6c-1.4-0.2-2.4-1.3-2.4-2.7c0-0.8,0.1-1.7,0.3-3.1
			c0.5-2.4,0-4.9-1.3-7c-0.3-0.3,0.2-0.5,0.6-0.3C14,233.9,16.8,237.4,17,241.5z M24.4,240.6c0.2,1.9-1.1,3.6-3,3.8
			c-0.1,0-0.2,0-0.4,0c-1.8,0-2.7-1.4-2.7-3.2c0-3.5-1.5-6.9-4.2-9.1c-0.3-0.3,0.1-0.5,0.5-0.4C22,233.2,24.4,236.9,24.4,240.6
			L24.4,240.6z M24.5,191.8H20c-0.1,0.4-0.3,0.6-1,1v11.8c0.5-2.2,1-5,1.2-6.5c0.2-1.1,0.3-1.9,0.4-3.1c1.3,0.6,2.6,1.3,3.9,2.1
			V191.8z M24.5,209.9v-10.8c-0.2,0.1-0.5,0.3-0.8,0.5c-1.3,2-2.7,4-4.7,7.1v3.2H24.5z M31.6,238.6c0,2-1,4-3.4,4
			c-1.3,0-2.5-0.8-2.8-3.4c-0.2-3.6-2.5-6.8-5.9-8.1c-0.3-0.2-0.1-0.5,0.3-0.5C28.6,230.7,31.6,234.9,31.6,238.6L31.6,238.6z
			 M52.3,203.8c3.8-5,4.2-5.4,4.8-5.4c0.7,0,1.3,0.5,3.9,3c2.1,2.1,2.4,2.5,2.4,3s-0.3,0.7-0.8,0.7H48.8v15.3h2.4
			c2.9-3.9,3.3-4.1,3.9-4.1c0.8,0,1.4,0.4,3.9,2.5c2.5,2.2,2.9,2.6,2.9,3.2s-0.3,1-2,2.4v6.6c0,5,0.3,10.7,0.3,13.3
			c0,2-2.3,3.1-5.3,3.1c-2.3,0-2.6-0.3-2.6-2.5v-2.2H39.6v2.4c0,2-1.1,3.1-4.8,3.1c-2.4,0-2.5-0.3-2.5-2.6c0-1,0.3-8,0.3-18
			c0.1-3.4,0-6.8-0.3-10.1c5.6,1.6,7.4,2.3,8.1,2.9h1V200c0.1-4.3-0.1-8.5-0.5-12.7c9.2,0.7,10.2,1.5,10.2,2.5c0,0.7-0.5,1.1-2.3,2
			V204h3.5V203.8z M52.3,241.3v-19.7H40.4c-0.2,0.3-0.5,0.5-0.8,0.7v18.9L52.3,241.3z"/>
		<path class="st0" d="M27.1,292.1c0,13.5,0.5,21.9,0.5,23.5c0,2-1.6,2.9-5,2.9c-2.4,0-2.9-0.3-2.9-2.5v-3.2H11v6.3
			c0,2-1.6,2.9-4.6,2.9c-2.4,0-2.9-0.3-2.9-2.6c0-1.8,0.5-13.8,0.5-21.8c0-10.1,0.1-14.8-0.3-19.8c2.9,0.8,4.8,1.4,6.1,1.8
			c0.3-3.3,0.6-5.7,0.8-9.1c0.1-1.2,0.1-2.1,0.1-3.9c8.8,1.8,10.1,2.2,10.1,3.3c0,0.7-0.5,1.4-2.5,2c-2.1,3.2-4,5.9-6.2,8.8h7.1
			c2.7-3.3,2.9-3.5,3.5-3.5c0.7,0,1,0.1,3.5,2.3c2.7,2.3,2.9,2.6,2.9,3.2s-0.1,0.7-2,2.2V292.1z M12.4,282.1c-0.1,0.3-0.5,0.6-1.4,1
			v12.8h8.7v-13.8H12.4z M19.7,311.5v-14.2H11v14.2H19.7z M51.3,279.5c3.3-3.9,3.5-4,4.2-4c0.8,0,1.1,0.1,4.7,3.1
			c1.9,1.6,2.1,1.8,2.1,2.5s-0.3,0.9-2.1,2.4c0.1,18.2-0.4,28.7-1.6,34.1c-0.7,5.5-5.7,9.5-11.3,9c-1.4,0-1.7-0.3-2-1.6
			c-1-3.5-2.8-5.4-7.7-6.7c-0.4-0.1-0.4-0.7,0-0.7c3.1,0.2,6.3,0.2,9.4,0c2.1-0.1,3.5-1,4-5.2c1.1-10.5,1.5-21.1,1.2-31.6H38.9
			c-2.9,4.6-6.4,8.7-10.4,12.3c-0.3,0.3-0.7-0.2-0.5-0.5c2.7-4.2,5.6-14,7.1-22.6c0.3-1.7,0.5-2.7,0.6-4.4
			c10.4,2.6,10.9,3.2,10.9,4.2c0,0.7-0.5,1.2-2.7,1.8c-1.2,2.7-2.6,5.4-4.2,8L51.3,279.5z M37.5,302.4c-0.3-5.1-0.9-8.4-3.8-10.8
			c-0.3-0.3-0.1-0.7,0.3-0.6c8.6,1.2,12.4,5.9,12.4,10.6c0.3,2.7-1.6,5.2-4.3,5.6c-0.3,0-0.5,0-0.8,0
			C39.1,307.2,37.7,305.8,37.5,302.4z"/>
		<path class="st0" d="M20.9,360.9c2.8-3.7,3-3.7,3.6-3.7c0.7,0,0.9,0.1,3.9,2.4c2.3,1.8,2.4,2,2.4,2.7c0,0.6-0.1,0.8-2,2
			c-0.6,7.8-2.5,15.5-5.5,22.7c3.2,1.5,5.5,4.5,5.9,8c0.2,2.3-1.6,4.2-3.8,4.4c-0.1,0-0.1,0-0.2,0c-1.6,0-2.7-0.8-3.5-2.9
			c-0.5-1.3-1.2-2.6-1.9-3.8c-4.4,5.8-10.6,9.4-19.4,12.1c-0.4,0.1-0.6-0.5-0.3-0.7c7.1-3.4,12.6-9.2,15.6-16.5
			c-1.2-1.1-2.5-2.1-3.9-2.9l-0.7,2.9c-0.4,1.6-1.8,2.5-4.1,2.5c-2.6,0-3.3-0.7-3.3-1.7c0-0.3,0.1-0.6,0.1-0.9
			c1.8-7.7,3.5-16.5,5-25.4H7.2c-2.1,0-4.3,0.2-6.4,0.5l-0.7-2.2c2.3,0.3,4.7,0.5,7.1,0.5h1.9c0.7-4.1,1.3-8.2,1.8-12.2
			c0.2-1.3,0.3-2.6,0.3-3.9c8.6,1.3,9.5,2,9.5,2.8s-0.2,1.2-2.4,1.9c-0.7,3.9-1.3,7.6-2,11.3L20.9,360.9z M16.4,362.2
			c-1.4,7.6-2.7,14.6-4.2,21.4c1.7,0.2,3.3,0.5,4.9,0.9c2.5-7.2,4-14.7,4.4-22.3H16.4z M51.9,373.9c4.2-5.9,4.4-6,5.1-6
			s0.9,0.1,3.6,3s2.8,3.1,2.8,3.7c0,0.3-0.2,0.6-0.5,0.7h-0.1H48.3v1.9c0,11.3,0.3,17.8,0.3,19.9c0.3,2.8-1.3,5.5-3.9,6.7
			c-1.4,0.9-3,1.3-4.6,1.4c-1.2,0-1.7-0.5-2.1-1.8c-0.8-2.5-2.7-4.7-7.3-6.3c-0.2,0-0.3-0.2-0.2-0.4c0-0.1,0.2-0.3,0.3-0.3
			c2.4,0.1,4.8,0,7.2-0.3c1.6-0.3,2.4-1,2.4-3.1v-17.8h-4.2c-1.5,0-4.3,0.1-7.4,0.5l-0.7-2.2c3.2,0.3,6.1,0.5,8,0.5h4.2v-1.4
			c0-5.6-0.1-10.8-0.3-14.8c2.4,0.5,4.2,0.9,5.6,1.2c1.6-3.3,2.6-5.9,3.7-8.9H36.2c-2.2,0-4.5,0.2-6.7,0.5l-0.7-2.3
			c2.4,0.3,4.9,0.5,7.3,0.5h12.4c3.3-3.8,3.6-3.9,4.2-3.9c0.7,0,1,0.1,5,3.2c2.6,2.1,2.9,2.5,2.9,3.2c0,0.8-0.2,1-3.6,1.8
			c-2.9,2-5.8,4.1-9.4,6.4c2.5,0.8,2.9,1.3,2.9,1.8c0,0.7-0.4,1.3-2.4,2.2V374L51.9,373.9z"/>
		<path class="st0" d="M41.1,430.9c3.7-4.4,4-4.6,4.6-4.6s0.8,0.1,4.2,2.6c3.1,2.4,3.3,2.7,3.3,3.3c0,0.7-0.2,1-2.2,2.8v13.9
			c0,20.1,0.4,26.3,0.4,27.7c0,1.9-1.5,3.1-6,3.1c-2.9,0-3.4-0.4-3.4-2.4v-5H20.8v4.9c0,2.6-1.7,3.4-5.4,3.4c-2.7,0-3.3-0.4-3.3-2.4
			c0-1,0.3-8.5,0.3-27c0-17.1,0-19.7-0.3-23.6c7.3,1.6,9.3,2.6,9.9,3.4L41.1,430.9z M20.8,450.1H42v-17.9H21.9
			c-0.3,0.4-0.7,0.7-1.2,1L20.8,450.1z M42.1,471v-19.6H20.8V471H42.1z"/>
		<path class="st0" d="M48,530.5c5.2-6.5,5.7-6.9,6.3-6.9c0.7,0,1.2,0.3,5.3,4.1c2.2,2,2.8,2.9,2.8,3.3c0,0.5-0.3,0.7-0.8,0.7h-26
			c0,9.3,0.5,18.6,0.5,20.8c0.3,2.9-1.2,5.8-3.8,7.2c-2.1,1.1-4.4,1.7-6.7,1.6c-1.2,0-1.7-0.5-2.2-1.7c-1-3-3-5-8.2-6.6
			c-0.4-0.1-0.4-0.7,0-0.7c3,0.2,6,0.1,9-0.1c2.2-0.3,2.9-1.3,2.9-3.1v-17.4H10.8c-2.3,0-4.8,0.1-8.6,0.5L1.5,530
			c4.3,0.3,6.9,0.5,9.2,0.5h16.1c0.2-4,0-8.1-0.5-12.1c3.2,0.3,5.6,0.7,7.3,0.9c2.4-3.6,4.9-7.6,7.3-11.6H17.2
			c-2.3,0-4.8,0.1-8.6,0.5L7.9,506c4.3,0.3,6.9,0.5,9.2,0.5h23.1c3.8-4.1,4.1-4.2,4.9-4.2c0.9,0,1.2,0.1,5.6,3.7
			c3.5,2.9,3.9,3.4,3.9,4.3c0,1-0.3,1.1-4.7,2c-4.8,2.7-8.8,4.9-13.6,7.6c1.8,0.5,2,0.9,2,1.4c0,0.7-0.3,1-2.9,2.4v6.9L48,530.5z"/>
		<path class="st0" d="M54.9,595.3c-4.5,0-8.1-3.7-8.1-8.2s3.7-8.1,8.2-8.1s8.1,3.7,8.1,8.2c0.1,4.4-3.4,8.1-7.9,8.2
			C55.1,595.3,55,595.3,54.9,595.3z M54.9,581.2c-3.3,0-5.9,2.7-5.9,5.9c0,3.3,2.7,5.9,5.9,5.9c3.3,0,5.9-2.7,5.9-5.9
			c0-3.3-2.6-5.9-5.8-6C55,581.2,54.9,581.2,54.9,581.2L54.9,581.2z"/>
	</g>
</g>
</svg>
