<?xml version="1.0" encoding="utf-8"?>
<!-- Generator: Adobe Illustrator 21.1.0, SVG Export Plug-In . SVG Version: 6.00 Build 0)  -->
<svg version="1.1" id="圖層_1" xmlns="http://www.w3.org/2000/svg" xmlns:xlink="http://www.w3.org/1999/xlink" x="0px" y="0px"
	 viewBox="0 0 841.9 237.7" style="enable-background:new 0 0 841.9 237.7;" xml:space="preserve">
<style type="text/css">
	.st0{fill:#2193B0;}
</style>
<path class="st0" d="M183.9,47.3h16.6v2.8c0,2.5,0.8,3.3,3.8,3.3c5.3,0,8.3-1.3,8.3-4c0-1-0.4-7.7-0.4-26.3v-9.7
	c2.4-2.2,2.7-2.5,2.7-3.4s-0.3-1.4-4.5-4.7c-4.1-3.2-4.5-3.4-5.5-3.4c-0.9,0-1.2,0.2-5.4,5h-13.7c-0.7-1.1-3.6-1.8-13.4-4.1
	c0.4,4.2,0.5,7.2,0.5,22.3c0,15.7-0.5,24.8-0.4,26.2c0.1,1.7,0.8,2.6,4,2.6c5,0,7.5-1.5,7.5-4.2L183.9,47.3z M200.5,21.5v10.7h-16.6
	V21.5H200.5z M200.5,8.9v10.7h-16.6v-10c0.5-0.1,1-0.4,1.5-0.7H200.5z M183.9,45.3V34.2h16.6v11.2L183.9,45.3z M168,54.8
	c-0.6,0-0.8,0.6-0.3,0.9c3.6,2.7,5.8,6.9,6,11.4c-0.1,2.8,2.2,5.1,5,5.2c0.2,0,0.5,0,0.7,0c3.6,0,6.6-2.9,6.6-6.6c0-0.1,0-0.1,0-0.2
	C186,60,181.2,54.7,168,54.8z M142.2,58.7c0.2,5.9-3,11.3-8.3,13.9c-2.5,1.4-4.1,4-4.1,6.9c0,3.5,2.8,6.4,6.4,6.4c0.1,0,0.2,0,0.3,0
	c5.8-0.1,10.4-4.9,10.3-10.7c0-0.1,0-0.3,0-0.4c0-5.6-1.2-11.1-3.6-16.1C142.9,58.2,142.2,58.2,142.2,58.7z M157.5,17.3h13
	c0.7,0,1-0.4,1-1.1c0-0.7-0.2-1.1-3-4.1c-3.3-3.6-3.5-3.7-4.4-3.7s-1.2,0.2-5.7,6.9h-0.9V6.6c3.1-1.2,3.6-2,3.6-3
	c0-1.7-0.7-2.2-14.5-3.3c0.4,4.9,0.4,6.8,0.4,15.1h-7.3c-3.6,0-7.3-0.3-10.9-0.8l1,3.4c3.3-0.4,6.6-0.7,9.9-0.7h3.7
	c-2.2,9.9-10,24.8-16.7,30c-0.5,0.4,0.2,1.2,0.7,0.9c7.6-3.8,14.3-9.2,19.6-15.8v1.8c-0.3,11-0.5,15.8-0.5,17.7
	c0,2.3,0.7,3.1,4.3,3.1c4.2,0,7.1-1.2,7.1-3.8c0-1.7-0.3-5.6-0.4-26.4c2.6,2.5,4,5.9,4,9.5c0.3,3.3,1.8,4.7,4.5,4.7
	c2.8,0.2,5.3-2,5.5-4.8c0-0.3,0-0.5,0-0.8c0-5-4.6-9.6-13.9-9.9L157.5,17.3z M163.2,62.2c2.3-1.3,2.9-1.8,2.9-2.7
	c0-1.3-1.8-2.3-14.9-3.5c0.4,3.2,0.6,6.3,0.6,9.5c0,3.9-0.2,11.2-0.2,14.8c0,7.3,1.8,9.7,20.8,9.7c25.4,0,28.5-3.3,28.5-7.6
	c-0.1-1.7-0.8-3.2-2-4.4c-1.2-1.2-1.9-2.8-1.8-4.6c0-2,0.3-5.7,0.7-12c0-0.6-0.7-0.7-0.9-0.1c-1.4,5-3.9,9.7-7.3,13.6
	c-2.8,2.8-5.6,3.9-16.5,3.9c-8.8,0-9.8-0.7-9.8-4.1L163.2,62.2z M198.6,57c-0.2-0.1-0.5,0-0.6,0.2s0,0.5,0.2,0.6l0,0
	c4.4,3.9,6.9,9.5,6.9,15.4c0.4,4.4,2.9,6.6,6.2,6.6c4,0.2,7.4-2.9,7.5-6.9c0-0.3,0-0.7,0-1C218.8,64,210.9,58.2,198.6,57L198.6,57z
	 M276.1,20.4c2.6-2.2,2.8-2.5,2.8-3.5c0-0.9-0.3-1.4-4-4.4C270.6,9,270.3,9,269.4,9s-1.3,0.3-5.1,5.3H260c-0.9-1.2-3.7-2.5-12.9-4.9
	c0.4,5.6,0.4,11.1,0.4,22.3c0,14-0.4,29.3-0.4,32c0,3.1,0.9,3.6,2.9,3.6c5.3,0,7.9-1.3,7.9-4.2v-8.3h7.4v2.1c0,2.8,0.8,3.8,3.3,3.8
	c6.1,0,8.1-1.7,8.1-4.8c0-2.5-0.6-9.6-0.6-25.5L276.1,20.4L276.1,20.4z M257.9,53V17.7c0.8-0.3,1.5-0.8,2.1-1.4h5.3V53H257.9z
	 M292.7,39.3c-3.5,0-7-0.2-10.5-0.7l1,3.3c3.2-0.5,6.3-0.7,9.5-0.7H304c-22.7,29.7-23,31.4-23,36.5c0,6.2,2.7,10,25.1,10
	c26.3,0,29.2-3.2,29.2-7.8c0-1.8-0.5-3.6-1.6-5.1c-0.9-1.2-1.5-2.7-1.6-4.3c0-1.3,0.1-4,0.6-11.9c0-0.6-0.6-0.8-0.8-0.2
	c-1.5,5.4-4.1,10.5-7.7,14.9c-2.2,2.2-6.1,3.4-16.4,3.4c-14.2,0-14.6-0.9-14.6-3s3-6.3,20.6-26.5c7.1-3.6,7.2-4,7.2-5.3
	c0-0.9-0.5-1.6-4.9-5.3c-3.9-3.3-4.5-3.6-5.5-3.6s-1.4,0.2-6.9,6.3L292.7,39.3z M293.3,22.3c2.8-4.3,5.3-8.8,7.5-13.4
	c3.7-1.2,4.4-1.7,4.4-3.2c0-1.2-0.9-2.1-16.4-5.7c-0.2,2.5-0.6,5.1-1.1,7.6c-2,11.5-5.6,22.7-10.7,33.3c-0.3,0.5,0.6,1,1,0.6
	c5.3-5.2,10-11,14.1-17.2h42.8c1.3,0,1.7-0.4,1.7-1.3s-0.5-1.5-3.8-4.8c-5.3-5.4-5.9-5.6-6.9-5.6s-1.4,0.3-8.5,9.7L293.3,22.3
	L293.3,22.3z M442,8.5c2.6-1.1,3.5-2,3.5-3.3s-4.1-2.4-16-3.9c0.8,9.2,1.1,18.5,0.8,27.8h-10.8V8.8c2.3-1.4,3.2-2,3.2-3.5
	c0-1.3-3-2.4-15.1-4.1c0.8,9.3,1,18.6,0.8,27.9H402c-3.4-3.6-3.8-3.9-4.6-3.9c-0.7,0-1.1,0.1-6.2,7.8h-3.1V18
	c1.7-0.9,2.2-1.2,2.2-2.1c0-0.2,0-0.3-0.1-0.5c2.7-0.3,5.5-0.7,8.4-1.1c5,0.4,6.3,0.3,6.3-1.3c0-1.7-1.3-3.2-11.7-10.7
	c-0.9,0.8-1.9,1.5-3,2.1c-9.4,5.3-19.6,9.4-30.1,11.9c-0.6,0.1-0.4,1.1,0.2,1.1c5.5,0,11.1-0.3,16.7-0.8c0.1,2.3,0.1,5,0.1,9.4v6.8
	h-5.5c-3.6,0-7.1-0.3-10.7-0.7l0.9,3.3c3.2-0.5,6.5-0.7,9.8-0.7h5.5V54h-0.5c-3.7-2.1-7.7-3.5-11.9-4.2c0.3,4.8,0.3,8.6,0.3,14.9
	c0,9.8-0.6,18.9-0.6,20.5c0,3.3,0.7,3.8,4.2,3.8c4.6,0,7.1-1.7,7.1-4.7v-4.5h14.4V82c0,3.2,0.9,4.1,4.5,4.1c3.4,0,7-2,7-5
	c0-2.7-0.5-8.8-0.5-16.2v-5c2.7-2.2,2.9-2.5,2.9-3.4s-0.6-1.7-3.6-4.3c-4.4-3.9-5-4.2-5.9-4.2s-1.2,0.3-5.7,5.9h-0.6V34.6h15.2
	c1.5,0,1.9-0.3,1.9-1.2c0-0.7-0.2-1.2-1.6-2.7h4.6v9.4c0,31.3-0.9,43.4-0.9,46.1c0,2.5,0.6,3.5,4.5,3.5c4.6,0,7.6-1.2,7.6-4.5v-5
	h10.8v5.7c0,3.2,0.9,3.8,4.7,3.8c5.6,0,7.6-1.8,7.6-4.7c0-4.8-0.5-13.8-0.5-45.3V31h10.3c1.2,0,1.7-0.4,1.7-1.3
	c0-0.9-0.2-1.2-3.1-5.1c-2.6-3.5-3-3.7-3.6-3.7s-1.2,0.6-5.3,8.2L442,8.5z M430.3,31.1v20.3h-10.8V31.1H430.3z M419.5,78.3v-25h10.8
	v25H419.5z M375.7,78.2V57.3c0.5-0.3,0.9-0.7,1.3-1.1h13.1v22H375.7z M485,69.1c0.2,4.1-1.4,8.1-4.5,11c-2.5,2.4-3.2,3.6-3.2,5.1
	c-0.1,2.6,2,4.7,4.6,4.8c0.2,0,0.5,0,0.7,0c4.1-0.3,7.2-3.9,6.9-8.1c0.2-4.5-1-8.9-3.4-12.7C485.9,68.6,485,68.5,485,69.1z
	 M491.1,68.1c-0.6-0.2-1.3,0-0.9,0.5c2,3.1,2.7,6.8,1.9,10.4c-0.2,2-0.4,3.3-0.4,4.6c0,2.1,1.5,3.9,3.6,4.1c3.7,0,5.9-2.3,5.9-6.8
	C501,74.8,496.9,69.6,491.1,68.1z M497.9,66.2c-0.6-0.1-1.3,0.2-0.8,0.6c4,3.4,6.3,8.3,6.3,13.6c0,2.7,1.4,4.8,4,4.8
	c2.8,0,5-2.3,5-5.1c0-0.2,0-0.4,0-0.6C512.3,74,508.7,68.5,497.9,66.2z M505.4,64.6c-0.6,0-0.9,0.5-0.4,0.8c5,2,8.4,6.7,8.7,12
	c0.4,3.8,2.2,5,4.2,5c3.6,0,5-2.9,5-5.9C523,71,518.5,64.9,505.4,64.6z M490.5,5.1c-3.1-2-6.5-3.5-10.1-4.2
	c0.3,3.2,0.3,6.1,0.3,14.2c0,13.2-0.5,22-0.5,24c0,2.4,0.4,2.8,3.6,2.8c3.4,0,5.1-0.8,5.1-3.6v-2.4h6.9v11.3h-4.2
	c-3.6,0-7.3-0.3-10.9-0.8l1,3.4c3.3-0.4,6.6-0.7,9.9-0.7h4.3v8c-3.7,0.2-7.6,0.5-12,0.7c-2.1,0.1-4.2,0.2-6.3,0.1
	c2.7,11.8,3.6,13.4,5,13.4c0.9,0,1.6-0.6,2.1-2.6c12.9-3.6,25.5-8.1,37.8-13.5c0.2-0.1,0.4-0.4,0.3-0.6c-0.1-0.2-0.3-0.3-0.6-0.3
	c-5.9,0.8-11.3,1.5-17,2V49h16.2c0.7,0,1-0.4,1-1.1c0-0.7-0.4-1.3-3-3.8c-3.7-3.5-4-3.6-4.9-3.6c-0.7,0-1.2,0.5-6.1,6.5h-3.2V35.7
	h7.3v1.2c0,2.4,0.4,3.1,2.5,3.1c5.1,0,6.8-1.2,6.8-4.4c0-2.4-0.6-9.6-0.6-17v-8.4c2.4-2,2.6-2.3,2.6-3c0-0.9-0.5-1.4-3.5-3.9
	c-3.7-3-4.2-3.1-4.8-3.1c-0.7,0-1,0.2-4.3,4.7L490.5,5.1z M504.3,33.9v-4.8c3-4.6,5-7.6,7-10.5c0.5-0.3,0.9-0.6,1.2-0.8v16h-8.2
	V33.9z M488.9,14.6c1.4,1.8,2,4,1.7,6.2c-0.2,2.1-0.5,3.7-0.5,5c0,1.7,0.9,3.2,2.6,3.2c2-0.1,3.6-1.5,3.9-3.5v8.4h-7.8L488.9,14.6
	L488.9,14.6z M488.9,8c0.6-0.3,1.1-0.7,1.6-1.1h6.1c0.1,1.5,0.1,3,0.1,4.3v10.4c-0.8-4-3.8-7.3-7.8-8.4L488.9,8L488.9,8z
	 M512.4,14.9c-1.8-1.2-3.7-2.3-5.7-3.1c-0.2,1.7-0.3,2.9-0.6,4.6c-0.4,2.3-1.1,6.4-1.8,9.7V8.5c1-0.7,1.4-1,1.5-1.6h6.7L512.4,14.9
	L512.4,14.9z M548.5,24.7V6.6c2.7-1.3,3.4-1.9,3.4-2.9c0-1.5-1.5-2.7-15.1-3.7c0.6,6.3,0.8,12.6,0.7,18.9v30.4H536
	c-1-1-3.8-1.9-12-4.4c0.4,5,0.5,10,0.4,15.1c0,14.9-0.5,25.2-0.5,26.8c0,3.3,0.3,3.8,3.8,3.8c5.5,0,7.2-1.7,7.2-4.7v-3.5h18.8v3.3
	c0,3.2,0.5,3.7,3.9,3.7c4.5,0,7.9-1.7,7.9-4.6c0-3.8-0.5-12.3-0.5-19.7v-9.8c2.5-2.1,3-2.6,3-3.6s-0.6-1.5-4.4-4.8
	c-3.6-3.1-4.6-3.7-5.7-3.7c-0.9,0-1.4,0.3-5.7,6h-3.6V26.5H569c0.8,0,1.3-0.4,1.3-1.1c0-0.8-0.5-1.4-3.6-4.5
	c-3.8-3.8-4.8-4.5-5.7-4.5s-1.6,0.6-7.2,8.1L548.5,24.7z M534.8,80.6V52.4c0.5-0.3,0.8-0.6,1.2-1.1h17.7v29.2h-18.9V80.6z
	 M688.3,51.9h-97.1V55h97.1V51.9z M785.4,51.9h-97.1V55h97.1V51.9z M32.3,178.4h28.9v1.8c0,2.8,0.7,3.4,4.6,3.4
	c5.7,0,8.6-1.6,8.6-4.4c0-1.7-0.5-5.8-0.5-14.3v-8.7c2.3-1.9,2.5-2.1,2.5-2.9c0-0.9-0.2-1.3-4.4-4.4c-5-3.7-5.4-3.8-6.4-3.8
	c-1.1,0-1.4,0.2-5.9,5.4H34.1c-0.7-0.9-3.3-1.9-14-4.1c0.3,4,0.3,10,0.3,14.9c0,11.6-0.3,19.3-0.3,21.1c0,2.4,0.9,3.1,4.3,3.1
	c5.5,0,8-1.3,8-4.1L32.3,178.4L32.3,178.4z M61.3,152.5v10.8h-29v-9.7c0.6-0.3,1.1-0.7,1.6-1.1L61.3,152.5L61.3,152.5z M32.3,176.4
	v-11.1h28.9v11.2L32.3,176.4z M54.4,208.3h28.2c0.5,0.1,0.9-0.3,1-0.8c0-0.1,0-0.1,0-0.2c0-0.9-0.2-1.1-3.5-4.2
	c-5.1-4.9-5.3-5-6.4-5c-0.9,0-1.1,0.1-7.5,8.2H54.4v-13.8c1.6-0.8,2-1.3,2.1-1.9h34.1c0.5,0.1,1-0.3,1.1-0.8c0-0.1,0-0.1,0-0.2
	c0-1-0.3-1.2-3.8-4.5c-5.3-5.1-5.6-5.1-6.6-5.1s-1.2,0.1-7.9,8.6h-58c-3.1,0-7-0.2-12-0.7l1,3.3c3.7-0.5,7.4-0.7,11.1-0.7h26.1
	c0.3,3.4,0.3,6.4,0.3,10v20.3c-2-0.4-4-0.9-5.9-1.7c-3.6-1.2-6.6-3.6-8.5-6.8c2.1-3,3.9-6.2,5.3-9.6c3.3-1,3.7-1.4,3.7-2.6
	c0-1.4-0.7-1.8-15-6.7c-0.5,2.3-0.9,3.9-1.5,6.1c-4.5,16.1-13.3,30.2-19.8,35.1c-0.5,0.4,0,1.1,0.6,0.9c10.2-4.9,19-12.3,25.6-21.6
	c1.4,6.3,5.3,11.8,10.9,15.1c6.3,4.1,15.7,6.3,30.7,6.3c5.1,0.2,10.2,0.1,15.2-0.3c1.4-0.1,2.6-1.1,2.7-2.5
	c0.6-4.6,3.5-8.7,7.6-10.9c0.5-0.3,0.4-1.2-0.2-1.1c-9,1.2-18.2,1.7-27.3,1.6c-4.5,0-8.4-0.1-11.7-0.2v-13.6H54.4z M206.2,157.4
	c0.8,0,1.3-0.4,1.3-1.1s-0.8-1.7-4.4-5c-5.5-5-5.9-5.3-7-5.3c-1,0-1.4,0.3-9.1,9.3h-52.2c-3.4,0-7.3-0.2-13.7-0.7l1,3.3
	c5.5-0.5,9.3-0.7,12.7-0.7H165c-0.8,2.1-1.8,4.1-2.8,6.1c-9.5,18.8-30.9,42.9-45.1,51.5c-0.5,0.3,0.1,1.4,0.7,1.2
	c14.8-5.9,28.2-14.6,39.7-25.5v5.7c0,20.2-0.5,34-0.5,36.7c0,2.9,1.3,3.7,5,3.7c5.6,0,8.8-1.5,8.8-4.3c0-3.3-0.9-18.3-0.9-36.1v-14
	c2-1.1,2.3-1.5,2.3-2.4c0-0.7-0.3-1.4-2.8-2c3.6-4.4,6.8-9.2,9.6-14.2c3-0.4,4.1-1.2,4.1-2.4c0-1-0.9-2.2-8.4-3.9L206.2,157.4z
	 M174.4,178.5c-0.3-0.1-0.6,0.1-0.6,0.4c0,0.2,0,0.4,0.2,0.6c9.5,6.3,16.5,15.7,20.1,26.5c1.7,5,4,7,7.5,7c4.1,0,7.5-2.9,7.5-8.8
	C209.1,193.2,194.9,180.7,174.4,178.5L174.4,178.5z M274.4,163.4c0,11.2-0.6,20.4-0.6,22.3c0,2.1,1.1,3.1,5,3.1
	c6.3,0,8.2-1.3,8.2-3.6c0-1.8-0.5-11-0.5-20.9v-0.9h24.7c-0.6,3.6-1.5,7.2-2.5,10.7c-0.2,0.6,0.2,0.9,0.7,0.6c4.9-2.5,7-3.8,8.8-4.8
	c1.4-0.8,3-1.2,4.7-1.3c2.6-0.2,3.8-1,3.8-2.1c0-1.7-0.8-2.9-4.5-6c-5.5-4.7-6.6-5-7.5-5c-0.8,0-1.5,0.5-6.4,6h-21.8v-6.3
	c1.4-0.6,1.9-1.1,1.9-1.7h27.1c0.7,0,1.1-0.3,1.1-0.9c0-0.7-0.2-1.3-3.9-4.4c-4.2-3.6-4.6-3.7-5.3-3.7c-0.9,0-1.5,0.2-6.8,7h-41.5
	c-3,0-6.5-0.2-11.6-0.7l1,3.3c3.5-0.4,7-0.6,10.6-0.7h15.1c0.3,2.7,0.4,5.4,0.3,8.1h-25.1c-0.7-2.1-1.8-4.1-3.2-5.8
	c-0.4-0.5-1-0.5-1,0.1c-0.1,4.2-2.6,8-6.3,9.9c-1.9,1.3-3.1,3.5-3.1,5.8c-0.1,3.1,2.3,5.6,5.3,5.8c0.3,0,0.6,0,0.9,0
	c5.6,0,8.2-5.5,8.2-11c0-1-0.1-1.9-0.3-2.8L274.4,163.4z M289.3,183.4c3-0.3,5.9-0.4,7.9-0.4h17.3c0.6,0,0.9-0.3,0.9-1
	c0-0.6-0.2-1.1-2.4-2.9c-3.4-2.9-4.2-3.1-4.6-3.1c-0.7,0-1.1,0.2-5,5h-6.1c-2.9,0-5.8-0.2-8.6-0.5L289.3,183.4z M306.9,173.4
	c0.4,0.1,0.8-0.2,0.9-0.7c0-0.1,0-0.1,0-0.2c0-0.6-0.2-0.9-2.4-3.1c-2.6-2.5-3.1-2.7-3.6-2.7s-0.9,0.1-4.7,4.8H296
	c-2.5,0-4.9-0.2-7.4-0.5l0.8,2.8c3-0.3,5-0.4,6.6-0.4L306.9,173.4L306.9,173.4z M246.9,183.4c3.1-0.3,5.9-0.4,7.7-0.4h16.3
	c0.4,0.1,0.8-0.2,0.9-0.7c0-0.1,0-0.1,0-0.2c0-0.6-0.3-1.3-2.5-3.3c-2.6-2.4-3.3-2.6-3.8-2.6c-0.6,0-0.9,0.2-4.7,4.9h-6.2
	c-2.8,0-5.6-0.2-8.4-0.5L246.9,183.4z M270.6,173.4c0.4,0.1,0.8-0.2,0.9-0.7c0-0.1,0-0.1,0-0.2c0-0.6-0.2-1.2-2.4-3.1
	c-2.9-2.6-3.3-2.7-3.8-2.7s-0.9,0.1-4.7,4.8h-1.3c-2.8,0-5.6-0.2-8.4-0.5l0.8,2.8c3-0.3,5.9-0.4,7.6-0.4L270.6,173.4L270.6,173.4z
	 M248.6,191c-3.1,0-7.5-0.2-12.5-0.7l1,3.3c3.8-0.5,7.7-0.7,11.6-0.7h24c-0.6,3.1-1.3,5.8-1.9,8.9H260c-0.9-0.9-3.8-1.5-13-3.2
	c0.3,4.7,0.4,7.9,0.4,12.3c0,9.1-0.5,19.9-0.5,22c0,2.2,0.5,3,3.8,3c5.8,0,7.7-1.4,7.7-4c0-1.6-0.1-10.3-0.1-23.1v-3.7
	c0.6-0.4,1.1-0.9,1.7-1.5h6c0.1,1.8,0.1,3.7,0.1,6.3c0,8.9-0.3,19.4-0.3,20.4c0,2.4,0.5,3.1,3.5,3.1c6,0,8-1.3,8-3.6
	c0-1.3-0.3-11.2-0.3-19.9v-5.3c0.4-0.2,0.8-0.6,1.1-1h6.6c0.1,1.7,0.1,3.8,0.1,6.4c0,8.6-0.3,19.3-0.3,20.3c0,2.4,0.5,3.1,2.8,3.1
	c6.7,0,8.6-1.3,8.6-3.6v-2c2.8,0.8,5,3.1,5.7,6c0.4,1.7,0.9,2.3,2.4,2.3c2,0,4-0.4,5.9-1.1c3.6-1.6,5.8-5.2,5.5-9
	c0-1.3-0.3-5.4-0.3-14.2v-5.3c2.4-2.2,2.6-2.6,2.6-3.4c0-0.9-0.5-1.4-2.4-2.7c-5.7-4-6.2-4.1-7.3-4.1c-1,0-1.3,0.2-6.1,5.3H276
	c3-2.2,5.3-4,9-7c2.5-0.5,3-0.9,3-1.9h37.1c0.8,0,1.1-0.4,1.1-0.9c0-0.8-0.4-1.3-3.9-4.5c-4-3.6-4.8-4.1-5.5-4.1
	c-0.9,0-1.5,0.6-7.5,7.5L248.6,191z M295.4,204.8c0.6-0.4,1-0.6,1.1-1h6.7V225c0,0.8-0.6,1.6-1.5,1.7c-2,0.2-4.1,0.3-6.1,0.3
	c-0.1-3.9-0.2-10.7-0.2-16.7V204.8z M392.7,199.3c1.5-2.3,2.8-4.6,4.1-6.6c3.6-1.1,4.6-1.9,4.6-3.1c0-1.5-1.7-2.6-11.4-5.3h30.1v1.3
	c0,2.7,0.7,3.5,4.7,3.5c5.6,0,8-1.7,8-4.5c0-1-0.5-7-0.5-11.7v-2c2.6-2.1,2.8-2.4,2.8-3.3c0-1-0.2-1.3-3.6-3.9
	c-4.7-3.6-5.3-3.8-6.2-3.8c-0.9,0-1.2,0.2-6.2,5.6h-7.6v-9.1c0.7-0.5,1.4-1,1.5-1.5h28.1c0.5,0.1,1-0.3,1.1-0.8c0-0.1,0-0.2,0-0.3
	c0-0.9-0.3-1.3-4.1-4.7c-4.7-4.2-5-4.3-5.9-4.3s-1.2,0.1-7.9,8.1h-56c-5.3,0-10.5-0.2-15.7-0.7l0.9,3.3c4.9-0.5,9.9-0.7,14.9-0.7
	h13.2v10.5H375c-0.6-1.3-3.2-2-13.4-4.5c0.3,3.9,0.3,8.4,0.3,13.6c0,4.9-0.4,10.9-0.4,12c0,2.8,0.7,3.4,3.8,3.4
	c5.1,0,7.6-1.3,7.6-5.3v-0.4h14.4c-0.6,1.4-1.2,2.8-1.9,4.2c-1.9,3.6-4,7.2-6.3,10.8h-14.5c-4.3,0-8.7-0.2-13-0.7l0.9,3.3
	c4-0.5,8.1-0.7,12.1-0.7h13.2c-3.2,5-6.9,10-11.3,15.6c-0.6,0.6-0.9,1.3-1.1,2.1c0,1.7,4,2.6,8.3,2.6c2.3,0.1,4.5-0.9,5.7-2.8
	l2.7-3.9c4.3,1,8.5,2.4,12.5,4c-9.3,9.4-23.1,14.7-40.5,16c-0.6,0-0.5,1,0.1,1c23.2,0.8,38.6-3.2,49.7-12.5
	c4.9,2.7,9.5,5.9,13.7,9.5c1.9,2.1,4.5,3.4,7.4,3.4c3.3-0.1,6-2.6,6.3-5.9c0-3.6-1.6-5.6-5.5-8.2c-4.7-2.8-9.8-4.8-15.1-5.8
	c2.2-2.9,4.3-6.1,6-9.3c3.6-1.1,4.3-1.6,4.3-2.7c0-1-1.1-1.8-7.3-3.1h27.7c0.7,0,1.1-0.4,1.1-1.2c0-0.7-0.5-1.3-4.2-4.7
	c-4.9-4.5-5.4-4.8-6.4-4.8s-1.5,0.5-8.2,8.6h-31V199.3z M405.1,201.2c-0.7,2-1.4,4-2.3,5.9c-1.2,2.5-2.6,5-4.3,7.2
	c-4.7-0.5-9.7-0.9-15.2-1.1c2.8-4,5.5-8.2,8.2-12H405.1z M372.9,168.8c0.6-0.4,1.1-0.9,1.7-1.4h6.9v15H373L372.9,168.8z
	 M392.1,156.3c0.7-0.5,1.4-1,1.5-1.4h7.1v10.5h-8.5v-9.1H392.1z M420.2,167.4v15h-8.6v-15H420.2z M392.1,182.4v-15h8.5v15H392.1z
	 M490.3,183.2h11.4c0.7,0,1.1-0.3,1.1-0.9c0-0.5-0.2-0.9-3-4c-3-3.4-3.3-3.5-4.1-3.5c-0.7,0-0.9,0.2-5.3,6.4v-22.5
	c1.6-0.7,2.2-1.4,2.2-2.2h9.7c0.6,0,1-0.4,1.1-0.9l0,0c0-0.6-0.3-0.9-2.9-3.6c-4-4.2-4.4-4.4-5-4.4s-0.9,0.1-6.3,7h-9.9
	c-3.8,0-7.5-0.2-11.3-0.7l0.9,3.3c3.4-0.5,6.7-0.7,10.1-0.7c0.3,2.7,0.3,6,0.3,8.9v15.8c-3.5,0-7-0.3-10.5-0.7l0.9,3.3
	c3.2-0.4,6.4-0.7,9.6-0.7v24l-5.6,0.8c-2.1,0.2-4.1,0.3-6.2,0.3c5,15.4,6,16.2,7.6,16.2c0.9,0,1.7-0.8,2.1-4.2
	c9.9-4.9,19.5-10.5,28.8-16.5c0.5-0.3,0.1-1.2-0.5-1.1c-4.9,1.1-9.9,1.9-15.1,2.8L490.3,183.2z M533.5,230.3v-17.8h22.3
	c0.6,0,1-0.2,1-0.9s-0.2-1.3-3.7-4.5c-4.3-4-5.1-4.5-5.9-4.5c-0.9,0-1.5,0.6-7.2,7.9h-6.4v-17.9h7.5v1.9c0,3,0.8,3.6,4.2,3.6
	c5.9,0,8-1.8,8-4.7c0-2.1-0.6-11.7-0.6-23.4v-11.5c2.7-2.3,3.1-2.7,3.1-3.6c0-1-0.3-1.3-4.1-4.4c-4.9-3.9-5.3-4.1-6.4-4.1
	c-0.9,0-1.3,0.2-5.5,4.8H517c-0.9-1-3.8-1.8-12.9-3.9c0.4,5.7,0.5,9.3,0.5,18.7c0,17.3-0.5,28.4-0.5,29.9c0,3,0.9,3.6,4.5,3.6
	c4.7,0,6.7-1.3,6.7-5v-2h7v17.8h-8.8c-3.6,0-7.1-0.3-10.7-0.7l0.9,3.3c3.2-0.5,6.5-0.7,9.8-0.7h8.8V230h-21c-2.8,0-7.2-0.2-11.9-0.7
	l1,3.3c4.6-0.5,8.7-0.7,11-0.7h58.4c0.5,0.1,0.9-0.3,1-0.8c0-0.1,0-0.1,0-0.2c0-0.9-0.4-1.4-4.1-4.7c-4.8-4.3-5.3-4.5-6.1-4.5
	s-1.1,0.2-7.2,8.2L533.5,230.3z M515,190.8v-17.3h7v17.3H515z M533.5,155.4c1.2-0.7,1.7-1.4,1.7-1.9h5.7v18.2h-7.5L533.5,155.4
	L533.5,155.4z M521.8,153.4c0.1,1.4,0.2,2.8,0.2,4.9v13.3h-7v-16.7c0.7-0.4,1.3-0.9,1.7-1.5L521.8,153.4z M533.5,190.8v-17.3h7.5
	v17.3H533.5z M635.5,169.4v-16.2c2.3-1.3,3.3-1.9,3.3-2.9c0-1.7-1.3-2.2-16.4-3.5c0.3,5.3,0.4,11.7,0.4,22.3v0.3H607
	c-0.9-1.1-4.1-2.3-14.6-4.5c0.4,5.3,0.5,11.6,0.5,26.2c0,21.3-0.7,39.1-0.7,41.8c0,3.1,0.7,3.6,4.2,3.6c6,0,8.4-1.8,8.4-4.7v-4.5
	h49.6v4.5c0,2.9,0.6,3.6,5,3.6c5.6,0,8.4-1.9,8.4-4.9c0-2.5-0.6-17.3-0.6-38V175c2.4-1.7,2.9-2.4,2.9-3.2s-0.8-1.7-4-4.2
	c-4.7-3.6-5.7-4.2-6.6-4.2c-0.9,0-1.3,0.3-6.4,5.8L635.5,169.4z M635.5,225.4v-27.9h18.8v27.9H635.5z M604.8,197.5h18.1v27.9h-18.1
	V197.5z M622.8,195.6h-18.1v-23c0.8-0.2,1.5-0.7,2.1-1.3h15.9L622.8,195.6L622.8,195.6z M654.4,171.3v24.3h-18.8v-24.3H654.4z
	 M739.7,174.6c2.7-2.1,2.9-2.3,2.9-3.2c0-0.9-0.3-1.4-4.3-4.8c-3.8-3.3-4.2-3.4-5.3-3.4c-0.8,0-1.2,0.3-5.1,5.1h-10.5
	c3.3-4.4,6.1-8.4,9.2-13.1c3-0.9,3.8-1.9,3.8-2.9c0-1.7-1.9-2.3-15.1-5c0,2.7,0,4.1-0.1,5.8c-0.3,5-0.7,8.7-1.2,13.6
	c-1.9-0.7-4.9-1.6-9.1-2.7c0.5,7.5,0.4,14.5,0.4,29.4c0,11.8-0.8,29.7-0.8,32.3c0,3.4,0.8,3.8,4.4,3.8c4.4,0,6.8-1.4,6.8-4.4v-9.3
	h12.9v4.7c0,3.3,0.7,3.8,4.3,3.8c5,0,7.4-1.4,7.4-4.4c0-2.4-0.7-15-0.7-35L739.7,174.6z M715.8,214v-21.2h12.9V214H715.8z
	 M728.7,170.3v20.6h-12.9v-19c1.3-0.7,1.8-1.1,2-1.6H728.7z M760.8,207.7c4.1,0.1,7.5-3.1,7.6-7.2c0-0.4,0-0.7-0.1-1.1
	c0-7.1-5.7-14.1-18.4-15.8c-0.6-0.1-1,0.5-0.5,0.9c4.3,3.6,5.3,8.5,5.6,16.1C755.4,205.6,757.4,207.7,760.8,207.7L760.8,207.7z
	 M758.3,166.4c2.3-3.8,4.4-7.8,6.2-11.8c3.3-1,4.1-1.7,4.1-2.7c0-1.5-0.8-2.3-16.2-6.2c-0.2,2.6-0.5,4.1-0.9,6.6
	c-2.2,12.8-6.5,27.4-10.6,33.6c-0.3,0.5,0.3,1.2,0.8,0.8c6-5.3,11.2-11.5,15.4-18.3H777c0.5,15.7-0.2,31.4-1.8,47
	c-0.8,6.1-2.8,7.5-5.9,7.7c-4.7,0.3-9.3,0.3-14,0c-0.6,0-0.6,0.9,0,1.1c7.3,1.9,10,4.7,11.5,9.9c0.5,1.8,1,2.3,3,2.3
	c8.3,0.8,15.7-5.1,16.8-13.3c1.8-8.1,2.5-23.7,2.4-50.7c2.7-2.2,3.1-2.6,3.1-3.6c0-1.1-0.3-1.5-3.1-3.8c-5.3-4.4-5.8-4.6-7-4.6
	c-1.1,0-1.4,0.2-6.2,6H758.3z M841.9,225.6c0.1-6.8-5.4-12.3-12.1-12.3c-6.8-0.1-12.3,5.4-12.3,12.1c-0.1,6.8,5.4,12.3,12.1,12.3
	h0.1c6.6,0.2,12.1-5,12.2-11.6C841.9,225.9,841.9,225.7,841.9,225.6z M838.5,225.6c0,4.9-4,8.8-8.8,8.8c-4.9,0-8.8-4-8.8-8.8
	c0-4.9,4-8.8,8.8-8.8l0,0C834.5,216.8,838.5,220.6,838.5,225.6C838.5,225.4,838.5,225.5,838.5,225.6L838.5,225.6z"/>
</svg>
