<?xml version="1.0" encoding="utf-8"?>
<!-- Generator: Adobe Illustrator 21.1.0, SVG Export Plug-In . SVG Version: 6.00 Build 0)  -->
<svg version="1.1" id="圖層_1" xmlns="http://www.w3.org/2000/svg" xmlns:xlink="http://www.w3.org/1999/xlink" x="0px" y="0px"
	 viewBox="0 0 842 260.5" style="enable-background:new 0 0 842 260.5;" xml:space="preserve">
<style type="text/css">
	.st0{fill:#2193B0;}
</style>
<path class="st0" d="M157.1,4.9c3.5,2.4,4.4,6.6,4.4,13.6c-0.3,3.2,2.1,6,5.2,6.3c0.3,0,0.6,0,0.9,0c4.4-0.2,7.8-3.9,7.6-8.2
	c0-0.1,0-0.2,0-0.3c0-6.2-6.5-11.8-17.6-12.3C156.9,3.9,156.6,4.6,157.1,4.9z M163.2,71c-0.1,4.5-2.4,8.6-6.2,11
	c-1.9,1.2-3.1,3.4-3.1,5.7c0.1,3.4,3,6.1,6.4,6c0.2,0,0.4,0,0.5,0c5-0.4,8.7-4.6,8.5-9.6c0.1-5-1.8-9.8-5.2-13.4
	C163.7,70.2,163.2,70.4,163.2,71z M172.4,69.5c-0.6-0.2-0.9,0.2-0.5,0.7c1.9,4.3,2.4,9.2,1.5,13.8c-0.4,2.7,1.5,5.1,4.2,5.5
	c0.3,0,0.6,0.1,0.9,0c3.6,0,6.5-2.9,6.5-6.5C184.9,78.4,181.5,72.1,172.4,69.5z M199.3,80.1c0-5.8-4.5-10.6-13.9-12.1
	c-0.6-0.1-0.9,0.3-0.4,0.7c2.7,3.5,3.9,7.9,3.2,12.3c-0.3,2.5,1.5,4.7,4,5c0.3,0,0.6,0,0.9,0C196.5,86.1,199.2,83.4,199.3,80.1z
	 M202.5,78.3c0.1,2.6,2.3,4.7,4.9,4.6c0.1,0,0.2,0,0.3,0c3.1-0.1,5.6-2.7,5.7-5.8c0-6.5-5.7-9.8-14.6-10.7c-0.6-0.1-0.9,0.5-0.3,0.9
	C201.6,69.3,202.1,73.6,202.5,78.3L202.5,78.3z M217,61.5c1.2-4,2.4-7.6,3.3-11.1c2.7-1.7,3.1-2.1,3.1-3.2c0-0.9-0.4-1.3-4.1-4.2
	c-4-3.1-4.8-3.5-5.8-3.5c-0.9,0-1.3,0.2-6,5H206c1.5-4.2,3-8.8,4.1-12.1c3.1-2.2,3.4-2.6,3.4-3.4s-0.2-1.3-4.1-4.1
	c-4.4-3.2-4.9-3.4-5.9-3.4c-0.7,0-1.5,0.3-6.1,5.1h-6.7c1.9-4.9,3.5-9.9,4.9-15c4-0.7,5-1.9,5-3.4c0-1.6-1.7-3.1-17.7-8
	c-0.4,4.9-1.3,9.7-2.6,14.4c-1,4.2-2.1,8.1-3.3,12h-16c-4.6,0-9.1-0.2-13.7-0.7l1.1,3.6c4.2-0.5,8.4-0.8,12.6-0.7h15.3
	c-3.6,10.4-8.4,20.3-14.2,29.7c-6.8,11.3-16.1,20.9-27.2,28.1c-0.5,0.3-0.2,1.3,0.4,1.1c13-5.2,24.5-13.5,33.6-24h49.2
	c-0.4,7-2,13.9-4.8,20.3c-1.4,2.4-4.1,3.8-6.9,3.6c-3.2,0.2-5.7,0.3-11.4,0.2c-0.6,0-0.6,1,0,1.2c7.8,2.6,9.5,4.6,10.7,9.3
	c0.5,2.1,1.2,2.6,4,2.6c4.9,0.3,9.7-1.4,13.2-4.9c3.2-3.5,5.8-11.9,8-26.3c3-2,3.4-2.6,3.4-3.6s-0.4-1.7-4.8-5.3
	c-4.7-4-5.2-4.1-6.3-4.1c-0.9,0-1.3,0.1-5.8,4.9L217,61.5z M197.8,28.8c-1.1,4.2-2.8,9.3-4.8,15.7h-10.4c2.7-5.1,5.1-10.3,7.3-15.7
	H197.8z M208,46.6c-1,4.2-2.5,9.1-4.2,14.8H171c3.9-4.6,7.5-9.6,10.5-14.8H208z M280.1,72.1c-0.2,14.8-0.6,22.1-0.6,24.9
	s0.6,3.6,4.7,3.6c6.2,0,9.5-1.6,9.5-4.6c0-2.7-0.2-9.3-0.2-35V37.1c2.7-1.1,3.3-1.8,3.3-2.8c0-1.3-1.2-2.1-7.9-4.6
	c4.1-5.4,7.7-11.2,10.8-17.2c4-1.1,4.8-1.7,4.8-3.3s-1.4-2.6-16.8-8.8c-0.5,2.6-1.2,5.2-2,7.7c-6.9,20.3-15.8,37.7-23.5,46.4
	c-0.4,0.4,0.3,1.2,0.9,0.9c6.4-4.4,12.3-9.6,17.4-15.5L280.1,72.1z M335.9,40.9v-33c2.9-1.6,4-2.4,4-3.5c0-1.5-1.3-2.6-18.5-4.1
	c0.5,5.8,0.6,9.1,0.6,40.6h-12.5c-3.1,0-7.9-0.2-13.1-0.7l1.1,3.6c5-0.5,9.6-0.7,12.1-0.7H322c0,33.2-0.7,50.8-0.7,53.7
	c0,3.4,1.1,3.8,5.8,3.8c6.7,0,9.4-1.4,9.4-4.5c0-2.8-0.5-21.2-0.5-53.1h28c0.9,0,1.4-0.4,1.4-1.2c0-0.7-0.2-1.2-4.2-5.1
	c-6.2-6.1-6.6-6.3-7.8-6.3c-1.1,0-1.5,0.3-9.1,10.5L335.9,40.9L335.9,40.9z M459.3,29.7v4.8c-3.3-0.9-6.6-1.5-10-1.8
	c0.2,1.4,0.2,2.8,0.2,4.2c0.4,6.8-1.6,13.5-5.7,19c-1.9-0.5-4.4-1.1-7.3-1.8c-0.2,1.3-0.4,2.5-0.7,3.7c-1,3.4-1.9,6.2-3,9.2
	c-4.8-1.2-9.7-1.4-14.5-0.6c-0.6,0.1-0.9,0.9-0.2,1.1c5.3,2.3,9.3,7,10.6,12.6c0.7,2.4,3,4,5.5,3.7c4.1,0.1,7.4-3.2,7.5-7.3
	c0-2.9-1.5-5.5-3.8-7.2c3.3-2.2,6.4-4.5,9.8-6.8c4.2-0.6,5.3-1.3,5.3-2.7c0-1.1-0.9-1.7-7.3-3.4c6.8-3.8,11.4-10.6,12.3-18.4
	c0.4-0.2,0.9-0.4,1.3-0.6c-0.1,9.6-0.3,15.8-0.3,16.7c0,2.7,0.5,3.2,3.6,3.2c4.6,0,6.7-1.2,6.7-3.7c0-1.4-0.3-9.8-0.3-23.8h19.9
	c1.1,0,1.4-0.3,1.4-1s-0.3-1.3-3.5-4.2c-3.7-3.4-4.4-3.7-5.2-3.7c-1,0-1.3,0.4-6.3,6.7h-6.2v-4.2c1.8-1,2.4-1.4,2.4-2.4
	c0-1.2-1.6-1.7-12.5-2.6c0.4,3,0.5,6,0.4,9.1h-8.2c-0.4-0.5-1.4-1.4-3.3-3.2c-3.4-3.1-3.6-3.2-4.5-3.2s-1.2,0.4-5.8,6.4H435v-4.2
	c1.8-1,2.4-1.4,2.4-2.4c0-1.2-1.6-1.7-12.2-2.6c0.4,3,0.5,6,0.4,9.1H424c-3.9,0-7.9-0.3-11.8-0.7l1,3.6c3.6-0.5,7.2-0.8,10.8-0.8
	h1.6v5.1c-3.5-1.2-7.2-1.9-10.9-2.1c0.2,1.4,0.2,2.8,0.2,4.2c0.6,7.2-1.1,14.4-4.9,20.5c0.4-5,0.6-10.8,0.6-17.8V17.6
	c0.7-0.3,1.4-0.8,2-1.3h77.1c0.9,0,1.2-0.4,1.2-1.1c0-1-0.2-1.4-3.8-4.8c-5.7-5.3-6.2-5.6-7.3-5.6c-1.1,0-1.4,0.3-9.1,9.3h-20.8V7.3
	c3.8-1.7,4.4-2.2,4.4-3.5c0-1.6-2-2.8-18.9-3.8c0.5,3.8,0.7,7.7,0.6,11.5v2.7h-22.9c-0.5-1.2-3.4-2-15.4-5
	c0.7,8.5,1.1,15.7,1.1,32.5c0.5,13.6-0.2,27.2-2,40.7c-0.7,6.2-2.9,12.1-6.4,17.2c-0.2,0.3-0.1,0.7,0.2,0.9c0.2,0.1,0.5,0.1,0.7,0
	c6.1-5.4,10.8-12.1,13.7-19.7c2.7-7.1,4.3-14.5,4.9-22c8-3.9,13.3-11.8,13.7-20.7c0.7-0.3,1.4-0.7,2-1.2c-0.1,9.8-0.3,16.1-0.3,17
	c0,2.7,0.5,3.2,3.6,3.2c4.3,0,6.4-1.2,6.4-3.7c0-1.4-0.3-9.8-0.3-23.6L459.3,29.7z M445.8,37.6c1.7-0.9,2-1.2,2-1.9
	c0-1.1-1.1-1.5-10.4-2.6c0.1,1.9,0.1,4,0.1,7.1c0,4.3-0.2,7.2-0.2,8.8c0,1.7,0.7,2.6,2.9,2.6c3.7,0,5.6-0.6,5.6-3V37.6z M462.8,77.1
	c-0.3,0-0.6,0.2-0.6,0.5c0,0.2,0.1,0.4,0.3,0.5c3.2,1.7,5.9,4.2,7.7,7.4c-8.5,0.1-16.1,0.2-23.8,0.2c7.9-5.6,13.6-9.8,21-15.6
	c4.2-0.4,5.6-1,5.6-2.4c0-1.7-0.7-2.2-16.2-7.8c-0.8,2-1.7,3.9-2.7,5.8c-3.6,6.9-7.7,13.6-12.3,20c-8,0-16.1-0.2-25.2-0.4
	c-3.7-0.1-5.1-0.2-8.5-0.4c4.5,15.2,5.1,16,6.5,16c1,0,1.4-0.4,2.5-2.5c25.4-4.1,37.1-6,55-9.3c0.8,1.8,1.4,3.7,1.8,5.7
	c0.4,3.2,3.1,5.5,6.3,5.4c4.3,0.1,7.9-3.4,8-7.7c0-0.1,0-0.2,0-0.3C488.1,85.1,481.2,77.2,462.8,77.1z M480.1,37.8
	c2.2-1.1,2.6-1.5,2.6-2.4c0-1.1-2-1.6-11-2.4c0.2,2.6,0.2,4.9,0.2,7.8c0,4.4-0.2,7.6-0.2,9.4c0,2.2,1.5,3.8,9.8,3.8
	c9.1,0,11.5-2.1,11.5-4.6c0.1-1.4-0.5-2.8-1.6-3.7c-0.8-0.7-1.2-1.7-1.2-2.8c0-1.3,0.1-3.7,0.4-7.2c0.1-0.6-0.5-0.9-0.7-0.2
	c-1,2.9-2.2,5.7-3.6,8.3c-1,1.7-1.7,1.9-3.8,1.9c-2.1,0-2.4-0.3-2.4-1.8L480.1,37.8z M624.3,57.4H517.5v3.4h106.8V57.4z M731.1,57.4
	H624.3v3.4h106.8V57.4z M1.1,211.9c6.1-0.5,10.2-0.7,14-0.7H94c0.9,0,1.4-0.4,1.4-1.2c0-0.7-0.2-1.1-5.9-6.7c-6-6-6.3-6.1-7.5-6.1
	c-1.1,0-1.2,0.1-9.9,11.1h-57c-3.7,0-8-0.2-15.1-0.7L1.1,211.9z M206.1,179.8c-1.1,3.5-1.8,6.1-3.5,11c-0.2,0.6,0.1,0.7,0.7,0.5
	c3.8-1.6,5.7-2.2,8-3.1c2.5-0.8,5.2-1.2,7.8-1.1c3.8-0.1,5-1.2,5-3.1c0-1.7-1.3-3.4-5.4-7.4c-5.1-4.8-6.4-5.4-7.7-5.4
	c-1.2,0-1.7,0.3-7.4,6.4h-21.7v-9.9c3.8-1.7,4.4-2.2,4.4-3.5c0-1.6-2-2.8-19.1-3.8c0.4,2.9,0.6,5.9,0.6,8.9v8.5h-24.7
	c-1.1-2.4-2.6-4.5-4.3-6.5c-0.4-0.5-1.2-0.4-1.2,0.2c0.8,4.6-1.3,9.2-5.3,11.4c-2.7,1.5-4.5,4.4-4.5,7.5c-0.2,3.6,2.6,6.6,6.1,6.7
	c0.3,0,0.5,0,0.8,0c5.6,0.1,10.2-4.4,10.2-10c0-0.2,0-0.4,0-0.5c0-2.2-0.4-4.5-1.1-6.6L206.1,179.8z M182.2,222.6h26.1
	c0.5,0.1,1-0.3,1.1-0.8c0-0.1,0-0.2,0-0.2c0-1-1-2-3.8-4.7c-5.9-5.5-6.2-5.6-7.3-5.6s-1.4,0.3-8.1,9.3h-7.9v-19.4
	c1.6-0.9,2.1-1.4,2.4-2h21.5c0.9,0,1.6-0.3,1.6-1.2c0-0.9-0.6-1.6-4-4.8c-4.8-4.7-5.2-4.8-6.1-4.8c-0.9,0-1.1,0.2-7.7,8.7h-35.2
	c-3.1,0-7.9-0.2-13.1-0.7l1.1,3.6c5-0.5,9.6-0.7,12.1-0.7h13.5c0.3,3.7,0.3,6.9,0.3,10.9V239c-1.7-0.8-3.2-1.9-4.6-3.1
	c-3.8-3.1-6.7-7.2-8.5-11.8c0.9-3,1.5-6,1.8-9.1c2.7-1,3.4-1.7,3.4-2.7c0-1.7-2.4-2.5-17.4-5.9c0,2.2,0,4.1-0.2,6.6
	c-1.5,23.2-8.9,39.4-17.6,46.6c-0.5,0.4,0.1,1.1,0.6,0.9c13.5-6.9,23.7-18.8,28.4-33.2c1.2,8,5,15.4,10.7,21.2
	c6.7,6.3,15,10.1,33,10.1c5.4,0.2,10.8,0.1,16.2-0.3c1.5-0.1,2.8-1.2,3-2.8c0.5-5.1,3.4-9.6,7.8-12.2c0.5-0.3,0.4-1.3-0.2-1.2
	c-9.6,1.3-19.3,1.8-28.9,1.7c-4.6,0-9.3-0.3-13.9-1L182.2,222.6z M299.1,219.6c1.6-2.6,3.1-5,4.5-7.3c4-1.2,5.1-2,5.1-3.4
	c0-1.6-1.8-2.9-12.5-5.8h33.1v1.4c0,3,0.7,3.8,5.1,3.8c6.2,0,8.8-1.9,8.8-4.9c0-1.1-0.5-7.7-0.5-12.9v-2.2c2.9-2.4,3.1-2.7,3.1-3.6
	c0-1.1-0.2-1.4-4-4.3c-5.1-4-5.8-4.2-6.8-4.2s-1.3,0.2-6.8,6.2h-8.3v-10c0.7-0.5,1.5-1.1,1.6-1.6h30.9c0.6,0.1,1.1-0.3,1.2-0.8
	c0-0.1,0-0.2,0-0.3c0-1-0.3-1.4-4.5-5.1c-5.1-4.6-5.5-4.7-6.5-4.7c-1.1,0-1.3,0.1-8.7,8.9h-61.6c-5.8,0-11.6-0.2-17.3-0.7l1,3.6
	c5.4-0.6,10.9-0.8,16.3-0.7h14.5v11.5h-7.1c-0.6-1.4-3.5-2.2-14.7-4.9c0.3,4.3,0.3,9.2,0.3,15c0,5.3-0.4,12-0.4,13.2
	c0,3.1,0.7,3.7,4.2,3.7c5.7,0,8.3-1.4,8.3-5.9v-0.4h15.8c-0.6,1.6-1.3,3.1-2.1,4.6c-2.1,4-4.4,7.9-6.9,11.9h-15.9
	c-4.8,0-9.6-0.2-14.3-0.7l1,3.6c4.4-0.5,8.9-0.8,13.4-0.7h14.5c-3.5,5.4-7.6,11-12.4,17.2c-0.6,0.6-1,1.5-1.2,2.4
	c0,1.9,4.4,2.9,9.1,2.9c2.5,0.2,4.9-1,6.3-3.1l3-4.3c4.7,1.1,9.3,2.6,13.8,4.4c-10.2,10.4-25.4,16.1-44.5,17.6
	c-0.6,0-0.5,1.1,0.1,1.1c25.5,0.9,42.5-3.5,54.7-13.8c5.4,2.9,10.4,6.4,15,10.5c2.1,2.3,5,3.7,8.1,3.7c3.6-0.1,6.6-2.9,6.9-6.5
	c0-4-1.7-6.2-6.1-9c-5.1-3.1-10.8-5.3-16.7-6.4c2.5-3.2,4.7-6.7,6.6-10.2c4-1.2,4.7-1.7,4.7-3c0-1.1-1.2-2-8-3.4h30.4
	c0.7,0,1.2-0.4,1.2-1.3c0-0.7-0.5-1.4-4.6-5.1c-5.3-4.9-6-5.2-7.1-5.2s-1.6,0.5-9,9.5L299.1,219.6z M312.8,221.7
	c-0.7,2.2-1.6,4.4-2.6,6.5c-1.3,2.8-2.8,5.5-4.7,7.9c-5.1-0.5-10.7-1-16.8-1.2c3.1-4.4,6.1-9,9-13.2L312.8,221.7L312.8,221.7z
	 M277.3,186c0.6-0.5,1.3-1,1.8-1.5h7.6V201h-9.4V186z M298.5,172.4c0.7-0.5,1.5-1.1,1.6-1.5h7.8v11.5h-9.4V172.4z M329.3,184.6v16.5
	h-9.5v-16.5H329.3z M298.5,201v-16.5h9.4V201H298.5z M416.5,183.1c2.9-2.5,3.1-2.8,3.1-3.8s-0.3-1.5-4.4-4.8c-4.7-3.8-5-3.8-6.1-3.8
	c-1,0-1.4,0.3-5.7,5.9h-4.6c-1-1.3-4.1-2.8-14.2-5.3c0.4,6.2,0.4,12.2,0.4,24.5c0,15.4-0.4,32.3-0.4,35.3c0,3.4,1,4,3.2,4
	c5.8,0,8.7-1.4,8.7-4.6v-9.1h8.1v2.4c0,3.1,0.9,4.2,3.6,4.2c6.7,0,8.9-1.9,8.9-5.2c0-2.8-0.6-10.6-0.6-28.1V183.1z M396.5,219v-38.9
	c0.9-0.4,1.7-0.9,2.4-1.5h5.8V219H396.5z M434.8,203.9c-3.9,0-7.7-0.2-11.5-0.7l1.1,3.6c3.5-0.5,7-0.7,10.5-0.7h12.4
	c-25,32.7-25.3,34.5-25.3,40.2c0,6.8,3,11,27.6,11c28.9,0,32.2-3.5,32.2-8.5c0-2-0.6-4-1.7-5.7c-1-1.4-1.6-3-1.7-4.7
	c0-1.4,0.1-4.4,0.6-13.1c0-0.6-0.6-0.9-0.9-0.2c-1.7,6-4.5,11.5-8.5,16.3c-2.5,2.5-6.7,3.7-18.1,3.7c-15.6,0-16-1-16-3.3
	s3.3-6.9,22.6-29.2c7.8-4,7.9-4.4,7.9-5.8c0-1-0.5-1.7-5.3-5.9c-4.3-3.6-4.9-4-6.1-4c-1.1,0-1.5,0.2-7.6,6.9L434.8,203.9z
	 M435.4,185.2c3.1-4.7,5.8-9.6,8.2-14.7c4.1-1.3,4.8-1.8,4.8-3.5c0-1.3-1-2.4-18.1-6.3c-0.2,2.8-0.6,5.6-1.2,8.3
	c-2.2,12.7-6.2,25-11.8,36.6c-0.3,0.5,0.6,1.1,1.1,0.6c5.8-5.7,11-12.1,15.5-18.9H481c1.4,0,1.8-0.4,1.8-1.4s-0.5-1.6-4.2-5.2
	c-5.9-6-6.5-6.2-7.6-6.2s-1.5,0.3-9.4,10.7H435.4z M599.1,170c2.9-1.2,3.8-2.2,3.8-3.6s-4.5-2.7-17.6-4.3
	c0.9,10.2,1.2,20.4,0.9,30.6h-11.9v-22.3c2.6-1.5,3.5-2.2,3.5-3.8c0-1.4-3.3-2.7-16.7-4.5c0.8,10.2,1.1,20.4,0.9,30.7h-6.9
	c-3.7-4-4.2-4.3-5-4.3c-0.7,0-1.2,0.1-6.8,8.5h-3.4v-16.5c1.8-1,2.5-1.3,2.5-2.4c0-0.2,0-0.4-0.1-0.5c3-0.3,6.1-0.7,9.2-1.2
	c5.4,0.4,6.9,0.3,6.9-1.4c0-1.8-1.4-3.5-12.8-11.8c-1,0.9-2.1,1.7-3.3,2.4c-10.4,5.9-21.5,10.3-33.1,13.1c-0.6,0.1-0.4,1.2,0.2,1.2
	c6.1,0,12.2-0.3,18.4-0.9c0.1,2.6,0.1,5.6,0.1,10.4v7.5h-6.1c-3.9,0-7.9-0.3-11.8-0.7l1,3.6c3.6-0.5,7.2-0.8,10.8-0.7h6.1v21.3h-0.5
	c-4.1-2.3-8.5-3.9-13.1-4.6c0.3,5.2,0.3,9.5,0.3,16.3c0,10.8-0.6,20.8-0.6,22.5c0,3.6,0.7,4.2,4.6,4.2c5,0,7.8-1.8,7.8-5.1v-4.9
	h15.8v2.5c0,3.5,1,4.5,4.9,4.5c3.7,0,7.7-2.2,7.7-5.4c0-3-0.5-9.7-0.5-17.8V227c3-2.5,3.2-2.8,3.2-3.7s-0.6-1.8-4-4.7
	c-4.8-4.3-5.4-4.6-6.5-4.6c-1,0-1.3,0.3-6.3,6.5h-0.6v-21.3h16.8c1.6,0,2.1-0.3,2.1-1.3c0-0.7-0.2-1.3-1.7-3h5v10.4
	c0,34.4-1,47.8-1,50.7c0,2.8,0.6,3.8,4.9,3.8c5,0,8.3-1.3,8.3-4.9v-6h11.9v6.3c0,3.5,1,4.2,5.1,4.2c6.2,0,8.3-2,8.3-5.1
	c0-5.2-0.5-15.2-0.5-49.8v-9.6h11.3c1.3,0,1.8-0.4,1.8-1.4c0-0.9-0.2-1.3-3.4-5.7c-2.9-3.8-3.3-4.1-4-4.1c-0.6,0-1.3,0.6-5.8,9
	L599.1,170z M586.2,194.8v22.3h-11.9v-22.3H586.2z M574.3,246.7v-27.5h11.9v27.5H574.3z M526.1,246.6v-23c0.5-0.3,1-0.7,1.4-1.2
	h14.4v24.2H526.1z M646.4,236.7c0.2,4.5-1.6,9-4.9,12.1c-2.8,2.7-3.5,4-3.5,5.6c-0.1,2.9,2.2,5.2,5.1,5.3c0.3,0,0.5,0,0.8,0
	c4.5-0.4,7.9-4.3,7.6-8.9c0.2-4.9-1.1-9.8-3.7-14C647.4,236.2,646.4,236.1,646.4,236.7L646.4,236.7z M653,235.5
	c-0.6-0.2-1.4,0-1,0.5c2.2,3.4,3,7.5,2.1,11.4c-0.2,2.2-0.4,3.6-0.4,5c0,2.3,1.7,4.2,4,4.5c4.1,0,6.5-2.6,6.5-7.5
	C664,242.9,659.4,237.2,653,235.5L653,235.5z M660.5,233.5c-0.6-0.1-1.4,0.2-0.9,0.6c4.4,3.7,7,9.2,6.9,15c0,3,1.5,5.2,4.4,5.2
	c3.1,0,5.5-2.6,5.5-5.6c0-0.2,0-0.4,0-0.6C676.4,242,672.5,236.1,660.5,233.5L660.5,233.5z M668.8,231.7c-0.6,0-1,0.5-0.4,0.9
	c5.5,2.2,9.2,7.3,9.6,13.2c0.4,4.2,2.5,5.6,4.6,5.6c4,0,5.6-3.2,5.6-6.5C688.2,238.7,683.3,232,668.8,231.7z M652.4,166.2
	c-3.4-2.2-7.2-3.8-11.1-4.6c0.3,3.5,0.3,6.7,0.3,15.6c0,14.5-0.5,24.2-0.5,26.4c0,2.7,0.4,3.1,4,3.1c3.7,0,5.7-0.9,5.7-4V200h7.6
	v12.4h-4.7c-4,0-8-0.3-12-0.9l1.1,3.7c3.6-0.5,7.3-0.7,10.9-0.7h4.7v8.8c-4.1,0.2-8.3,0.5-13.2,0.7c-2.3,0.2-4.6,0.2-6.9,0.1
	c3,13,4,14.7,5.6,14.7c1,0,1.7-0.6,2.4-2.9c14.2-3.9,28.1-8.9,41.6-14.8c0.3-0.1,0.4-0.4,0.3-0.7c-0.1-0.2-0.4-0.4-0.6-0.3
	c-6.5,0.9-12.4,1.6-18.7,2.2v-8h17.8c0.7,0,1.1-0.4,1.1-1.2c0-0.7-0.4-1.4-3.3-4.2c-4.1-3.8-4.4-4-5.3-4c-0.7,0-1.3,0.5-6.7,7.2H669
	v-12.4h8v1.3c0,2.7,0.4,3.4,2.8,3.4c5.7,0,7.5-1.3,7.5-4.8c0-2.7-0.6-10.6-0.6-18.7v-9.2c2.7-2.2,2.9-2.6,2.9-3.3
	c0-1-0.5-1.5-3.8-4.3c-4.1-3.3-4.6-3.4-5.2-3.4c-0.7,0-1.1,0.2-4.7,5.1L652.4,166.2z M667.6,197.9v-5.3c3.3-5,5.6-8.3,7.7-11.5
	c0.5-0.3,1-0.6,1.3-0.9v17.6L667.6,197.9z M650.7,176.8c1.5,1.9,2.2,4.4,1.9,6.8c-0.2,2.4-0.5,4.1-0.5,5.4c0,1.9,1,3.5,2.9,3.5
	c2.2-0.1,4-1.7,4.3-3.8v9.2h-8.5v-21.1H650.7z M650.7,169.5c0.6-0.3,1.2-0.7,1.7-1.2h6.7c0.1,1.6,0.1,3.3,0.1,4.7v11.4
	c-0.9-4.4-4.2-8-8.5-9.2V169.5z M676.5,177.1c-2-1.3-4.1-2.5-6.3-3.4c-0.2,1.9-0.3,3.2-0.6,5c-0.4,2.6-1.2,7.1-2,10.7v-19.3
	c1.1-0.7,1.5-1.1,1.6-1.7h7.4v8.7H676.5z M716.3,187.9V168c3-1.4,3.7-2.1,3.7-3.2c0-1.6-1.6-3-16.7-4.1c0.7,6.9,0.9,13.9,0.7,20.8
	v33.4h-1.6c-1.1-1.1-4.2-2.1-13.2-4.8c0.4,5.5,0.6,11,0.4,16.6c0,16.3-0.5,27.8-0.5,29.5c0,3.6,0.3,4.2,4.2,4.2
	c6.1,0,7.9-1.8,7.9-5.1v-3.8h20.7v3.6c0,3.5,0.5,4.1,4.3,4.1c4.9,0,8.7-1.8,8.7-5c0-4.2-0.5-13.6-0.5-21.7v-10.9
	c2.8-2.4,3.3-2.9,3.3-4s-0.6-1.6-4.8-5.2c-4-3.4-5-4.1-6.3-4.1c-1,0-1.5,0.3-6.3,6.6h-4v-25h22.5c0.9,0,1.4-0.4,1.4-1.2
	c0-0.9-0.5-1.5-4-4.9c-4.2-4.2-5.2-4.9-6.3-4.9c-1,0-1.7,0.6-7.9,8.9L716.3,187.9z M701.2,249.3v-31c0.5-0.3,0.9-0.7,1.3-1.2h19.4
	v32.2H701.2z M818.3,206.9c-4.9,7.2-5.8,10.5-5.8,22.2c0,0.7,0.3,1.3,1.1,1.3c1.2,0,2.3-0.8,2.5-2c-0.3-1.1-0.5-2.3-0.5-3.4
	c0-5.9,1.6-8.3,9.7-14.7c13.4-10.6,16.7-16.2,16.7-25.3c0-11.9-9.3-20.2-25.1-20.2c-13.8,0-26.1,9.6-26.1,19.9
	c-0.2,4.3,3.1,8,7.4,8.2c0.2,0,0.4,0,0.7,0c4.2,0.3,7.8-2.9,8.1-7c0-0.3,0-0.6,0-1c-0.2-2.6-1.5-4.9-3.6-6.3c-1.1-0.6-1.7-1.8-1.6-3
	c0-3.8,5-7.9,11.1-7.9c7.4,0,13,5.1,13,17.5C826,193,823.3,200.8,818.3,206.9L818.3,206.9z M814.2,238.9c-4.8,0-8.7,3.8-8.8,8.7
	c0,4.8,3.8,8.7,8.7,8.8c4.8,0,8.7-3.8,8.8-8.7v-0.1C822.8,242.8,819,239,814.2,238.9L814.2,238.9z"/>
</svg>
