<?xml version="1.0" encoding="utf-8"?>
<!-- Generator: Adobe Illustrator 21.1.0, SVG Export Plug-In . SVG Version: 6.00 Build 0)  -->
<svg version="1.1" id="圖層_1" xmlns="http://www.w3.org/2000/svg" xmlns:xlink="http://www.w3.org/1999/xlink" x="0px" y="0px"
	 viewBox="0 0 841.9 260.4" style="enable-background:new 0 0 841.9 260.4;" xml:space="preserve">
<style type="text/css">
	.st0{fill:#2193B0;}
</style>
<path class="st0" d="M159.9,4.6c3.5,2.3,4.4,6.6,4.4,13.5c-0.3,3.2,2,6,5.2,6.3c0.3,0,0.6,0,0.8,0c4.4-0.2,7.7-3.9,7.6-8.2
	c0-0.1,0-0.2,0-0.3c0-6.2-6.5-11.7-17.6-12.2C159.7,3.7,159.4,4.3,159.9,4.6z M166,70.5c-0.1,4.5-2.4,8.6-6.2,11
	c-1.9,1.2-3.1,3.4-3.1,5.6c0.1,3.4,3,6.1,6.4,6c0.2,0,0.4,0,0.5,0c4.9-0.4,8.7-4.6,8.4-9.6c0.1-4.9-1.8-9.7-5.2-13.3
	C166.4,69.6,166,69.9,166,70.5z M175.1,69c-0.6-0.2-0.9,0.2-0.5,0.7c1.9,4.3,2.4,9.1,1.5,13.7c-0.4,2.7,1.5,5.1,4.1,5.5
	c0.3,0,0.6,0.1,0.9,0c3.6,0,6.5-2.9,6.5-6.5C187.6,77.8,184.2,71.6,175.1,69z M201.9,79.5c0-5.8-4.5-10.5-13.8-12
	c-0.6-0.1-0.9,0.3-0.4,0.7c2.7,3.5,3.9,7.9,3.2,12.2c-0.3,2.5,1.5,4.7,4,5c0.3,0,0.6,0,0.9,0C199.1,85.5,201.8,82.9,201.9,79.5z
	 M205,77.7c0.1,2.6,2.3,4.7,4.9,4.6c0.1,0,0.2,0,0.3,0c3.1-0.1,5.6-2.7,5.6-5.8c0-6.5-5.6-9.8-14.6-10.6c-0.6-0.1-0.9,0.5-0.3,0.9
	C204.2,68.8,204.7,73,205,77.7L205,77.7z M219.5,61c1.2-3.9,2.3-7.5,3.3-11.1c2.7-1.7,3.1-2.1,3.1-3.2c0-0.9-0.4-1.3-4-4.1
	c-3.9-3.1-4.8-3.5-5.8-3.5c-0.9,0-1.3,0.2-6,5h-1.6c1.5-4.1,3-8.7,4-12c3.1-2.2,3.4-2.6,3.4-3.4s-0.2-1.3-4-4
	c-4.4-3.2-4.9-3.4-5.9-3.4c-0.7,0-1.5,0.3-6.1,5.1h-6.7c1.9-4.9,3.5-9.8,4.9-14.9c3.9-0.7,5-1.9,5-3.4c0-1.6-1.7-3.1-17.7-8
	c-0.4,4.9-1.3,9.7-2.6,14.4c-1,4.1-2.1,8.1-3.3,11.9h-16c-4.5,0-9.1-0.2-13.6-0.7l1.1,3.6c4.2-0.5,8.4-0.8,12.6-0.7H179
	c-3.6,10.3-8.4,20.3-14.2,29.6c-6.8,11.3-16,20.8-27,28c-0.5,0.3-0.2,1.3,0.4,1.1c12.9-5.2,24.4-13.4,33.5-23.9h49
	c-0.4,7-2,13.8-4.8,20.2c-1.4,2.4-4.1,3.8-6.9,3.6c-3.2,0.2-5.6,0.3-11.4,0.2c-0.6,0-0.6,1,0,1.2c7.8,2.6,9.5,4.6,10.6,9.3
	c0.5,2.1,1.2,2.6,3.9,2.6c4.9,0.3,9.7-1.4,13.2-4.9c3.2-3.5,5.8-11.8,8-26.2c3-2,3.4-2.6,3.4-3.6s-0.4-1.7-4.8-5.3
	c-4.7-3.9-5.2-4-6.3-4c-0.9,0-1.3,0.1-5.8,4.9L219.5,61z M200.4,28.5c-1.1,4.1-2.8,9.3-4.8,15.6h-10.3c2.7-5.1,5.1-10.3,7.2-15.6
	H200.4z M210.6,46.2c-1,4.1-2.4,9-4.1,14.8h-32.7c3.9-4.6,7.4-9.5,10.4-14.8H210.6z M282.4,71.6c-0.2,14.8-0.6,22-0.6,24.8
	s0.6,3.6,4.7,3.6c6.2,0,9.5-1.6,9.5-4.6c0-2.7-0.2-9.3-0.2-34.9V36.7c2.7-1.1,3.3-1.8,3.3-2.8c0-1.3-1.2-2.1-7.9-4.6
	c4.1-5.4,7.7-11.1,10.7-17.1c3.9-1.1,4.8-1.7,4.8-3.3s-1.4-2.6-16.7-8.7c-0.5,2.6-1.2,5.2-2,7.7c-6.9,20.2-15.7,37.6-23.4,46.2
	c-0.4,0.4,0.3,1.2,0.9,0.9c6.4-4.4,12.2-9.6,17.3-15.4L282.4,71.6z M337.9,40.5V7.6c2.9-1.6,3.9-2.3,3.9-3.5c0-1.5-1.3-2.6-18.4-4
	c0.5,5.8,0.6,9,0.6,40.4h-12.4c-3.1,0-7.9-0.2-13.1-0.7l1.1,3.6c5-0.5,9.6-0.7,12-0.7H324c0,33.1-0.7,50.6-0.7,53.5
	c0,3.4,1.1,3.8,5.8,3.8c6.7,0,9.4-1.4,9.4-4.5c0-2.8-0.5-21.1-0.5-52.9h28c0.9,0,1.4-0.4,1.4-1.2s-0.2-1.2-4.1-5.1
	c-6.2-6.1-6.6-6.3-7.8-6.3c-1.1,0-1.5,0.3-9,10.4h-8.6V40.5z M460.9,29.3v4.8c-3.3-0.9-6.6-1.5-10-1.8c0.2,1.4,0.2,2.8,0.2,4.1
	c0.4,6.8-1.6,13.5-5.6,18.9c-1.9-0.5-4.4-1.1-7.2-1.8c-0.2,1.3-0.4,2.5-0.7,3.7c-1,3.4-1.9,6.2-3,9.2c-4.7-1.2-9.7-1.4-14.5-0.6
	c-0.6,0.1-0.9,0.9-0.2,1.1c5.3,2.3,9.2,6.9,10.5,12.6c0.7,2.4,3,4,5.5,3.7c4.1,0.1,7.4-3.2,7.4-7.2c0-2.9-1.4-5.5-3.8-7.1
	c3.3-2.2,6.4-4.5,9.8-6.8c4.1-0.6,5.3-1.3,5.3-2.7c0-1.1-0.9-1.7-7.2-3.4c6.8-3.8,11.3-10.6,12.2-18.3c0.4-0.2,0.9-0.4,1.3-0.6
	c-0.1,9.6-0.3,15.7-0.3,16.6c0,2.7,0.5,3.2,3.6,3.2c4.6,0,6.7-1.2,6.7-3.7c0-1.4-0.3-9.8-0.3-23.7h19.8c1.1,0,1.4-0.3,1.4-1
	s-0.3-1.3-3.5-4.1c-3.7-3.4-4.4-3.7-5.2-3.7c-1,0-1.3,0.4-6.3,6.7h-6.2v-4.1c1.8-1,2.3-1.4,2.3-2.3c0-1.2-1.6-1.7-12.4-2.6
	c0.4,3,0.5,6,0.4,9h-8.2c-0.4-0.5-1.4-1.4-3.3-3.2c-3.4-3.1-3.6-3.2-4.5-3.2s-1.2,0.4-5.8,6.4h-2.6v-4.1c1.8-1,2.3-1.4,2.3-2.3
	c0-1.2-1.6-1.7-12.1-2.6c0.4,3,0.5,6,0.4,9h-1.6c-3.9,0-7.8-0.3-11.7-0.7l1,3.6c3.6-0.5,7.1-0.8,10.7-0.8h1.6v5.1
	c-3.5-1.2-7.2-1.9-10.9-2.1c0.2,1.4,0.2,2.8,0.2,4.1c0.6,7.2-1.1,14.3-4.9,20.4c0.4-5,0.6-10.7,0.6-17.8V17.5c0.7-0.3,1.4-0.8,2-1.3
	h76.8c0.9,0,1.2-0.4,1.2-1.1c0-1-0.2-1.4-3.8-4.8c-5.6-5.3-6.2-5.5-7.2-5.5s-1.4,0.3-9,9.3h-20.7V7.3c3.8-1.7,4.4-2.2,4.4-3.5
	c0-1.6-2-2.8-18.8-3.8c0.5,3.8,0.7,7.6,0.6,11.5v2.7h-22.8c-0.5-1.2-3.4-2-15.3-5c0.7,8.5,1.1,15.6,1.1,32.4
	c0.5,13.5-0.2,27.1-2,40.5c-0.7,6.1-2.9,12-6.4,17.1c-0.2,0.3-0.1,0.7,0.2,0.9c0.2,0.1,0.5,0.1,0.7,0c6.1-5.3,10.8-12.1,13.6-19.7
	c2.7-7,4.3-14.4,4.9-21.9c8-3.8,13.2-11.8,13.6-20.6c0.7-0.3,1.4-0.7,2-1.2c-0.1,9.8-0.3,16.1-0.3,16.9c0,2.7,0.5,3.2,3.6,3.2
	c4.3,0,6.4-1.2,6.4-3.7c0-1.4-0.3-9.8-0.3-23.5L460.9,29.3z M447.4,37.2c1.7-0.9,2-1.2,2-1.9c0-1.1-1.1-1.5-10.3-2.6
	c0.1,1.9,0.1,3.9,0.1,7c0,4.3-0.2,7.1-0.2,8.7c0,1.7,0.7,2.6,2.9,2.6c3.7,0,5.5-0.6,5.5-3V37.2z M464.3,76.6c-0.3,0-0.6,0.2-0.6,0.5
	c0,0.2,0.1,0.4,0.3,0.5c3.2,1.7,5.9,4.2,7.7,7.3c-8.4,0.1-16.1,0.2-23.7,0.2c7.9-5.5,13.5-9.8,21-15.5c4.1-0.4,5.5-1,5.5-2.3
	c0-1.7-0.7-2.2-16.2-7.8c-0.8,2-1.7,3.9-2.7,5.8c-3.6,6.9-7.7,13.6-12.2,19.9c-8,0-16.1-0.2-25.1-0.4c-3.7-0.1-5.1-0.2-8.5-0.4
	c4.5,15.1,5.1,16,6.5,16c1,0,1.4-0.4,2.4-2.4c25.3-4,36.9-6,54.8-9.3c0.8,1.8,1.4,3.7,1.8,5.6c0.4,3.1,3.1,5.5,6.3,5.4
	c4.3,0.1,7.9-3.4,8-7.7c0-0.1,0-0.2,0-0.3C489.5,84.5,482.7,76.6,464.3,76.6z M481.5,37.4c2.2-1.1,2.6-1.5,2.6-2.3
	c0-1.1-2-1.6-11-2.3c0.2,2.6,0.2,4.9,0.2,7.8c0,4.4-0.2,7.5-0.2,9.4c0,2.2,1.5,3.8,9.8,3.8c9,0,11.5-2.1,11.5-4.6
	c0.1-1.4-0.5-2.8-1.6-3.7c-0.8-0.7-1.2-1.7-1.2-2.8c0-1.3,0.1-3.7,0.4-7.1c0.1-0.6-0.5-0.9-0.7-0.2c-0.9,2.9-2.2,5.7-3.6,8.3
	c-1,1.7-1.7,1.9-3.8,1.9s-2.3-0.3-2.3-1.8L481.5,37.4z M625.2,57H518.8v3.4h106.4V57z M731.6,57H625.2v3.4h106.4L731.6,57L731.6,57z
	 M81.4,167.7v7.7h-4.6c-3.4-1.9-7.1-3.1-11-3.7c0.2,4.9,0.2,8.5,0.2,10.5c0,3-0.1,5.9-0.1,8.1c0,4.8,1.8,6.7,14.5,6.7
	c14.5,0,17.2-2.2,17.2-5.8c-0.1-1.4-0.5-2.7-1.4-3.7c-0.4-0.9-0.6-2-0.5-3c0.1-2.2,0.5-4.4,1.1-6.6c0.1-0.6-0.5-1-0.9-0.4
	c-1.1,2.2-2.5,4.3-4,6.3c-2.7,3.3-4.7,4.3-11.6,4.3c-4.6,0-5.2-0.9-5.2-3.2v-6.5c0.5-0.2,1-0.5,1.5-0.9h4.8v2.2c0,1.8,1.1,3,4,3
	c4.5,0,6.7-1.5,6.7-3.6c0-1.6-0.3-4.6-0.3-6.1v-2c2.2-1.7,2.4-2,2.4-2.9c0-1-0.2-1.4-3.2-3.9c-3.5-3.1-3.9-3.2-5.1-3.2
	c-0.7,0-1.1,0.1-5,4.6H77c-4.2,0-8.4-0.2-12.5-0.7l1.1,3.6c3.8-0.5,7.6-0.8,11.5-0.7L81.4,167.7L81.4,167.7z M48.3,167.7v7.7h-4.4
	c-3.3-1.8-6.9-3.1-10.6-3.7c0.2,4.9,0.2,8.5,0.2,10.5c0,3-0.1,5.9-0.1,8.1c0,4.8,1.8,6.7,14.6,6.7c12.7,0,15.4-2.7,15.4-6.2
	c-0.1-1.4-0.5-2.7-1.4-3.7c-0.4-0.9-0.6-1.8-0.5-2.8c0.2-2.2,0.6-4.4,1.1-6.6c0.1-0.6-0.6-0.9-0.9-0.4c-1,2.4-2.4,4.7-4,6.7
	c-2.1,3.3-6,4.9-9.8,4.3c-5.1,0-5.8-0.9-5.8-3.2v-6.7c0.5-0.2,1-0.5,1.5-0.9h4.7v2.2c0,1.8,1.2,3,4.3,3c4.5,0,6.1-1.5,6.1-3.6
	c0-1.6-0.3-4.6-0.3-6.1v-2c2-1.7,2.4-2,2.4-2.9c0-1.1-0.2-1.5-3-3.8c-3.6-3-4-3.1-5-3.1c-0.7,0-1.1,0.2-4.7,4.4h-4.6
	c-4.2,0-8.4-0.2-12.5-0.7l1.1,3.6c3.8-0.5,7.6-0.8,11.5-0.7L48.3,167.7L48.3,167.7z M7.9,163.6c3.9,3.4,6.2,8.3,6.2,13.5
	c0.3,5.2,2,8,6.3,8c4,0.5,7.6-2.4,8.1-6.4c0.1-0.5,0.1-1,0-1.5c0-6.8-6.3-13.1-19.7-14.6C8.1,162.4,7.3,163.2,7.9,163.6z
	 M97.9,223.7c0.9,0,1.2-0.4,1.2-1.1c0-1-0.2-1.2-3.6-4.5c-4-3.9-4.6-4.1-5.5-4.1s-1.1,0.2-6.9,7.5H78v-10.3h16.5
	c0.6,0,1.1-0.4,1.1-1c0-0.1,0-0.1,0-0.2c0-0.7-0.6-1.4-3.6-4.4c-3.6-3.7-3.8-3.8-4.7-3.8c-0.7,0-1,0.1-6.6,7.2H78v-5.3
	c2-1.4,2.4-2,2.4-3c0-1.5-1.5-2.2-13.9-3.1c0.3,4.5,0.4,6.8,0.4,11.4h-9.7v-5.3c2.2-1.4,2.7-2,2.7-3c0-1.5-1.5-2.1-13.9-3.1
	c0.3,4.5,0.4,6.8,0.4,11.4h-0.5c-3.9,0-7.8-0.3-11.7-0.7l1,3.6c3.6-0.5,7.1-0.8,10.7-0.7h0.5v10.3h-1.9c-4.3,0-8.6-0.3-12.9-0.7
	l1,3.6c6.2-0.5,8.7-0.7,11.9-0.7H50c-0.4,0.6-0.7,1.2-1.1,1.7c-4.5,6.1-10.4,10.9-17.3,14c-1.3-1.1-2.4-2.3-3.4-3.7v-25.1
	c2.9-2.3,3.4-2.9,3.4-3.7c0-1.4-0.4-1.9-5.2-6.1c-3.6-3.2-4-3.4-5.2-3.4c-1.1,0-1.5,0.6-6.8,6.9H11c-3.5,0-7-0.2-10.4-0.7l1,3.6
	c3.1-0.6,6.3-0.8,9.5-0.7h4.7v30c-3,1.5-6.2,2.9-9.4,4c-2.1,0.8-4.2,1.4-6.4,1.9C6,255.3,7.5,257,8.8,257c1.2,0,1.9-0.9,3.1-3.7
	c5.4-4.6,10.4-9.7,14.9-15.1c1.1,4.9,3.8,9.3,7.7,12.6c5.4,4.5,10.6,5.9,34.9,5.9c15.9,0,20.6-0.2,23.4-0.5c2.2-0.1,3-1.3,3.3-3.7
	c0.7-4,2.9-7.5,6.3-9.8c0.5-0.4,0.3-1.3-0.3-1.2c-14.7,1.7-29.5,2.6-44.3,2.7c-7,0.4-14.1-0.1-21-1.6c-1.5-0.5-2.9-1.2-4-2.2
	c8.8-0.8,17.4-3.5,25.1-7.8c4.3-0.1,4.9-0.5,4.9-2c0-1.2-1.5-2.2-8.9-6.6L97.9,223.7z M57.1,211.3h9.7v10.3h-9.7
	C57.1,221.6,57.1,211.3,57.1,211.3z M66.6,225.6c-0.6,0-1,1-0.3,1.2c5.5,2.2,10.3,5.9,13.7,10.6c2.3,3.2,3.9,3.9,6.2,3.9
	c2.9,0.1,5.4-2.1,5.5-5c0-0.1,0-0.3,0-0.4C91.7,231.6,86.7,225.3,66.6,225.6z M153.5,186.4h11.3c0.2,0,0.4-0.1,0.6-0.2v0.5
	c0,3.1,0.4,3.5,3.4,3.5c4.7,0,6.9-0.9,6.9-3.9v-1.1h35c0,2.6,1,3.3,4.1,3.3c4,0,7-1.3,7-4.8c0-2.7-0.6-7.3-0.6-10.9v-2
	c2.6-2.1,2.9-2.4,2.9-3.3c0-1-0.3-1.5-3.8-4.3c-3.9-3.2-4.6-3.3-5.4-3.3c-1,0-1.3,0.3-5.3,5h-32.1c-3.7-1.8-7.8-3-11.9-3.4
	c0.3,3.5,0.4,6.8,0.4,10.7c0,4.7-0.2,8.7-0.4,11.4c-0.3-0.5-1-1.5-2.1-3.2c-3.1-4.5-3.4-4.6-4.3-4.6c-1,0-1.2,0.2-5.6,8.1v-16
	c3-1.6,3.7-2.3,3.7-3.6c0-1.8-2.9-2.8-16.2-3.9c0.8,7.9,1.1,15.8,0.7,23.7h-1.6c-3.8,0-7.7-0.2-11.5-0.7l1.1,3.6
	c3.5-0.5,6.9-0.7,10.4-0.7h1.6V208l-4.6,1.1c-3.7,0.9-6.6,1.4-9.5,1.8c5.2,14.9,5.6,15.1,6.9,15.1c1.1,0,1.6-0.5,2.4-3l4.7-3.3v20.2
	c0,3.5-1,5-3.4,5.3c-3,0.4-5.3,0.6-9.4,0.9c-0.6,0-0.6,0.9,0,1.1c6.6,2.2,8.6,5.3,9.6,8.9c0.5,2.1,1.3,2.8,3,2.8
	c2.6,0,5.1-0.8,7.2-2.2c3.5-2.2,5.5-6.2,5.2-10.3c0-3.4-0.4-8.3-0.5-33.7c4-3.1,8.5-6.5,13.1-9.9c0.3-0.2,0.3-0.6,0.1-0.8
	c-0.2-0.2-0.4-0.3-0.7-0.2c-4.6,1.4-8.4,2.6-12.6,3.6L153.5,186.4z M195.6,183.1h-5.3v-14c1.2-0.9,1.6-1.2,1.6-1.9h3.6
	c0.1,1.6,0.1,3.4,0.1,4.9L195.6,183.1z M210.7,167.2v16h-5.6v-14c1.2-0.9,1.6-1.2,1.6-1.9L210.7,167.2z M181,167.2
	c0.1,1.6,0.1,3.4,0.1,4.9v11.1h-5.4v-14.7c0.7-0.3,1.3-0.8,1.8-1.3H181z M198.1,208.7v-10h21.8c0.7,0,1.1-0.2,1.1-1
	s-0.4-1.1-3.5-4.1c-4-4-4.5-4.3-5.3-4.3s-1.1,0.2-7,7.2h-7v-3.4c3-1.2,3.6-1.9,3.6-3.1c0-1.7-1.7-2.3-16.6-3.5
	c0.4,3.3,0.6,6.7,0.5,10H178c-4,0-8-0.3-11.9-0.9l1.1,3.7c3.6-0.5,7.2-0.7,10.9-0.7h7.8v10h-13.2c-3.9,0-7.8-0.3-11.7-0.7l1,3.6
	c3.6-0.5,7.1-0.8,10.7-0.7h2.3c2.3,1.4,2.6,4.6,2.4,8.9c-0.1,3.4,1.1,5.3,3.5,6H173c-3.9,0-7.8-0.3-11.7-0.7l1,3.6
	c3.6-0.5,7.1-0.8,10.7-0.7h12.8c0.1,2.9,0.1,6.6,0.1,11.9h-10.4c-3.9,0-7.8-0.3-11.7-0.7l1,3.6c3.6-0.5,7.1-0.8,10.7-0.7h10.4
	c0,6.7-0.4,12.4-0.4,13.9c0,2.8,0.5,3.6,4.3,3.6c6.7,0,8.9-1.7,8.9-4.7c0-1.2-0.3-6.3-0.3-12.9h24.4c0.6,0,1.1-0.2,1.1-1
	s-0.2-1.1-3.8-4.8c-4.1-4.3-4.5-4.4-5.4-4.4s-1.2,0.1-7.3,8h-8.8v-9.6c1.4-0.9,1.7-1.3,1.7-2.3h26.4c0.6,0,1.1-0.2,1.1-1
	s-0.2-1.1-3.9-4.8c-3.9-4-4.3-4.1-5.2-4.1s-1.2,0.1-7.4,7.8H200c2.3-2.1,4.6-4.1,8.7-7.9c3-0.6,3.5-1.1,3.5-2.1s-0.6-1.8-10.1-4.9
	h25.1c0.6,0,1.1-0.2,1.1-1s-0.1-1-3.9-4.8c-3.8-3.8-4.1-3.9-5.2-3.9c-0.9,0-1.1,0.1-7.2,7.5L198.1,208.7z M184.2,225.7
	c2.6-0.7,4.4-3.1,4.3-5.9c0-3.8-2.4-7.7-10.7-9h20.8c-0.1,1.4-0.3,2.8-0.5,4.1c-0.6,3.6-1.4,6.9-2.3,10.7L184.2,225.7L184.2,225.7z
	 M280,169c-3.7,0-7.7-0.2-14.7-0.7l1.1,3.6c6.1-0.5,9.9-0.7,13.6-0.7h43.3c-3.9,6.6-8.2,13.1-12.3,18.9c-2.9-0.4-6.9-1-12.3-1.5
	c0.8,7.2,1,14.4,0.7,21.6v28.5c0,2.9-1.2,4.6-4.7,5c-4.6,0.4-9.3,0.5-13.9,0.2c-0.6,0-0.6,1,0,1.2c8.3,2.3,10.3,5.8,11.8,10.7
	c0.3,1.7,1.9,2.9,3.6,2.8c4.1,0.1,8.2-0.8,11.8-2.7c4.3-2.2,6.9-6.8,6.5-11.7c0-3.7-0.7-19.5-0.7-35.1v-12c4.3-2.2,4.7-2.8,4.7-3.9
	c0-0.9-0.3-1.5-3-2.1c8.4-4.4,15.9-8.4,23.5-12.3c6.7-1.5,7.4-1.9,7.4-3.6c0-1.1-0.5-1.9-5-5.8c-8.5-7.3-9.1-7.4-10.4-7.4
	c-1.1,0-1.6,0.3-8.3,7.1H280V169z M393,229.6c-0.2,15.9-0.6,23.1-0.6,25.9c0,2.8,0.6,3.6,4.7,3.6c5.2,0,7.9-1.6,7.9-4.6
	c0-2.7-0.2-9.3-0.2-34.8v-23.8c2.7-1.1,3.3-1.8,3.3-2.8c0-1.2-1.2-2.1-6.8-4.5c3.4-5.7,6.3-11.6,8.6-17.8c4-1.2,4.9-2.1,4.9-3.4
	c0-1.4-0.7-2.7-16.2-8.1c-0.3,2.7-0.9,5.2-1.4,7.7c-4.6,20.6-10.6,37.5-16.1,45.9c-0.3,0.5,0.4,1.3,1,0.9c4.3-3.9,8.1-8.3,11.3-13.1
	L393,229.6z M431.9,237.9v2.6c0,2.8,0.7,3.5,3.5,3.5c5.3,0,8.2-1.3,8.2-4.3c0-1.9-0.4-8.5-0.4-18v-7c2.4-1.7,2.9-2,2.9-2.9
	c0-0.7-0.2-1.3-2.9-3.7c-4.5-4-4.8-4.1-5.8-4.1c-0.7,0-1.2,0.2-5,4.8v-21.2h11.8c0.7,0,1.2-0.3,1.2-1c0-0.5-0.2-1-2.4-3.7
	c-3.5-4.4-3.8-4.5-4.7-4.5c-0.7,0-1,0.1-5.3,7h-0.5v-16.9c3.4-1.6,3.9-2.4,3.9-3.5c0-1.5-1.5-2.4-16-4.1c0.5,6.2,0.7,12.4,0.5,18.6
	v6h-1.6c-3.8,0-7.6-0.2-11.4-0.7l1.1,3.6c5-0.5,8.4-0.7,10.3-0.7h1.6v20.8c-3.2-1.3-6.5-2.4-9.9-3.1c0.3,5.6,0.3,7.7,0.3,15.9
	c0,13.2-0.7,22.9-0.7,24.7c0,3.1,0.4,3.7,4.4,3.7c4.9,0,7-1.5,7-4.3V238L431.9,237.9z M422,235.7v-23.3c0.5-0.4,0.9-0.8,1.3-1.4h8.6
	v24.7L422,235.7L422,235.7z M483.9,186.5c0.6,0,1.1-0.4,1.2-1.1v-0.1c0-1.1-0.5-1.7-3.7-4.9c-4-4.1-4.6-4.3-5.3-4.3
	c-0.9,0-1.2,0.2-6.9,8.2h-13.6c2.6-5.2,4.7-10.6,6.4-16.2c3.1-1,3.5-1.7,3.5-3c0-1.6-1.7-2.2-15.7-6c-0.1,2.9-0.2,4.5-0.4,7
	c-1.9,18.8-5,31.2-8.6,37.8c-0.3,0.5,0.5,1.2,1,0.7c3-3,5.7-6.4,8-10c-0.6,12.6,0.6,25.1,3.5,37.3c-5.5,12.1-15.1,21.8-27,27.4
	c-0.6,0.2-0.1,1.2,0.5,1.1c12.2-2.9,23.1-9.7,31.1-19.3c3.6,5.9,8.2,11.1,13.5,15.4c0.9,0.9,2.1,1.4,3.3,1.5c0.7,0,1.4-0.9,2-2.1
	c1.5-3.9,4.6-6.9,8.4-8.5c0.6-0.2,0.7-0.9,0.2-1.2c-7.7-4.1-14.7-9.6-20.4-16.2c4.9-11.4,7.8-23.6,8.7-36c3.1-1.1,3.7-1.7,3.7-2.7
	c0-1.3-2.2-2.8-11-5.2L483.9,186.5z M461.4,186.5c-0.2,11.2-1.5,22.4-4,33.3c-3.4-9.2-5.3-18.9-5.6-28.7c0.9-1.5,1.7-3,2.6-4.6
	L461.4,186.5z M600.1,169.1c2.9-1.2,3.8-2.2,3.8-3.6s-4.5-2.7-17.6-4.3c0.9,10.1,1.2,20.3,0.9,30.4h-11.8v-22.2
	c2.6-1.5,3.5-2.2,3.5-3.8c0-1.4-3.3-2.7-16.6-4.5c0.8,10.2,1.1,20.3,0.9,30.5h-6.9c-3.7-3.9-4.1-4.3-5-4.3c-0.7,0-1.2,0.1-6.8,8.5
	H541v-16.4c1.8-1,2.4-1.3,2.4-2.3c0-0.2,0-0.4-0.1-0.5c3-0.3,6.1-0.7,9.1-1.2c5.4,0.4,6.9,0.3,6.9-1.4c0-1.8-1.4-3.5-12.8-11.7
	c-1,0.9-2.1,1.7-3.3,2.3c-10.3,5.8-21.4,10.3-33,13.1c-0.6,0.1-0.4,1.2,0.2,1.2c6.1,0,12.1-0.3,18.3-0.9c0.1,2.6,0.1,5.5,0.1,10.3
	v7.4h-6.1c-3.9,0-7.8-0.3-11.7-0.7l1,3.6c3.6-0.5,7.1-0.8,10.7-0.7h6v21.2h-0.5c-4-2.3-8.5-3.9-13.1-4.6c0.3,5.2,0.3,9.5,0.3,16.3
	c0,10.7-0.6,20.7-0.6,22.4c0,3.6,0.7,4.1,4.6,4.1c5,0,7.8-1.8,7.8-5.1v-4.9H543v2.4c0,3.5,1,4.5,4.9,4.5c3.7,0,7.7-2.2,7.7-5.4
	c0-3-0.5-9.7-0.5-17.8v-5.5c3-2.4,3.2-2.8,3.2-3.7s-0.6-1.8-3.9-4.7c-4.8-4.3-5.4-4.6-6.5-4.6c-1,0-1.3,0.3-6.3,6.5H541v-21.2h16.7
	c1.6,0,2.1-0.3,2.1-1.3c0-0.7-0.2-1.3-1.7-3h5v10.3c0,34.3-1,47.6-1,50.5c0,2.8,0.6,3.8,4.9,3.8c5,0,8.3-1.3,8.3-4.9v-6h11.8v6.3
	c0,3.5,1,4.1,5.1,4.1c6.2,0,8.3-2,8.3-5.1c0-5.2-0.5-15.1-0.5-49.6v-9.6h11.3c1.3,0,1.8-0.4,1.8-1.4c0-0.9-0.2-1.3-3.4-5.6
	c-2.9-3.8-3.3-4-3.9-4c-0.6,0-1.3,0.6-5.8,8.9L600.1,169.1z M587.2,193.8V216h-11.8v-22.2H587.2z M575.4,245.5v-27.3h11.8v27.3
	H575.4z M527.4,245.4v-22.9c0.5-0.3,1-0.7,1.4-1.2h14.4v24h-15.8V245.4z M647.2,235.5c0.2,4.5-1.6,8.9-4.9,12
	c-2.8,2.7-3.5,3.9-3.5,5.5c-0.1,2.8,2.2,5.2,5.1,5.3c0.3,0,0.5,0,0.8,0c4.5-0.4,7.9-4.3,7.5-8.8c0.2-4.9-1.1-9.8-3.7-13.9
	C648.1,235,647.2,234.9,647.2,235.5L647.2,235.5z M653.8,234.3c-0.6-0.2-1.4,0-1,0.5c2.2,3.4,3,7.5,2.1,11.4c-0.2,2.2-0.4,3.6-0.4,5
	c0,2.3,1.7,4.2,3.9,4.5c4,0,6.5-2.6,6.5-7.4C664.7,241.7,660.2,236,653.8,234.3L653.8,234.3z M661.2,232.3c-0.6-0.1-1.4,0.2-0.9,0.6
	c4.4,3.7,7,9.1,6.9,14.9c0,3,1.5,5.2,4.4,5.2c3.1,0,5.5-2.5,5.5-5.6c0-0.2,0-0.4,0-0.6C677.1,240.8,673.2,234.9,661.2,232.3
	L661.2,232.3z M669.5,230.5c-0.6,0-1,0.5-0.4,0.9c5.5,2.2,9.2,7.3,9.6,13.2c0.4,4.1,2.4,5.5,4.6,5.5c3.9,0,5.5-3.2,5.5-6.5
	C688.8,237.5,683.9,230.8,669.5,230.5z M653.1,165.3c-3.4-2.2-7.1-3.8-11.1-4.6c0.3,3.5,0.3,6.7,0.3,15.5c0,14.5-0.5,24.2-0.5,26.3
	c0,2.7,0.4,3.1,3.9,3.1c3.7,0,5.6-0.9,5.6-3.9V199h7.5v12.3h-4.6c-4,0-8-0.3-11.9-0.9l1.1,3.7c3.6-0.5,7.2-0.7,10.9-0.7h4.7v8.8
	c-4,0.2-8.3,0.5-13.2,0.7c-2.3,0.2-4.6,0.2-6.9,0.1c3,13,3.9,14.7,5.5,14.7c1,0,1.7-0.6,2.3-2.9c14.1-3.9,28-8.9,41.4-14.8
	c0.3-0.1,0.4-0.4,0.3-0.7c-0.1-0.2-0.4-0.4-0.6-0.3c-6.5,0.9-12.3,1.6-18.6,2.2v-8H687c0.7,0,1.1-0.4,1.1-1.2s-0.4-1.4-3.3-4.1
	c-4-3.8-4.4-3.9-5.3-3.9c-0.7,0-1.3,0.5-6.7,7.1h-3.5v-12.3h8v1.3c0,2.7,0.4,3.4,2.8,3.4c5.6,0,7.4-1.3,7.4-4.8
	c0-2.7-0.6-10.5-0.6-18.6V171c2.7-2.2,2.9-2.6,2.9-3.3c0-1-0.5-1.5-3.8-4.3c-4-3.3-4.6-3.4-5.2-3.4c-0.7,0-1.1,0.2-4.7,5.1
	L653.1,165.3z M668.3,196.9v-5.2c3.3-5,5.5-8.3,7.7-11.5c0.5-0.3,1-0.6,1.3-0.9v17.6H668.3z M651.4,175.8c1.5,1.9,2.2,4.4,1.9,6.8
	c-0.2,2.3-0.5,4-0.5,5.4c0,1.9,1,3.5,2.9,3.5c2.2-0.1,3.9-1.7,4.3-3.8v9.1h-8.5v-21H651.4z M651.4,168.6c0.6-0.3,1.2-0.7,1.7-1.2
	h6.7c0.1,1.6,0.1,3.3,0.1,4.7v11.4c-0.9-4.4-4.2-8-8.5-9.1V168.6z M677.2,176.1c-2-1.3-4.1-2.5-6.3-3.4c-0.2,1.9-0.3,3.2-0.6,5
	c-0.4,2.6-1.2,7-2,10.6V169c1.1-0.7,1.5-1.1,1.6-1.7h7.3V176.1z M716.8,186.9v-19.8c3-1.4,3.7-2.1,3.7-3.2c0-1.6-1.6-3-16.6-4
	c0.7,6.9,0.9,13.8,0.7,20.7v33.3H703c-1.1-1.1-4.1-2.1-13.2-4.8c0.4,5.5,0.6,11,0.4,16.5c0,16.3-0.5,27.7-0.5,29.4
	c0,3.6,0.3,4.1,4.1,4.1c6.1,0,7.9-1.8,7.9-5.1v-3.8h20.6v3.6c0,3.5,0.5,4,4.3,4c4.9,0,8.6-1.8,8.6-5c0-4.1-0.5-13.5-0.5-21.6v-10.7
	c2.8-2.3,3.3-2.9,3.3-3.9s-0.6-1.6-4.8-5.2c-3.9-3.4-5-4-6.3-4c-1,0-1.5,0.3-6.3,6.6h-3.9v-24.9h22.4c0.9,0,1.4-0.4,1.4-1.2
	c0-0.9-0.5-1.5-3.9-4.9c-4.1-4.1-5.2-4.9-6.3-4.9c-1,0-1.7,0.6-7.9,8.8H716.8z M701.8,248.1v-30.9c0.5-0.3,0.9-0.7,1.3-1.2h19.4v32
	h-20.7V248.1z M818.4,205.8c-4.9,7.1-5.8,10.4-5.8,22.1c0,0.7,0.3,1.3,1.1,1.3c1.2,0,2.2-0.8,2.4-2c-0.3-1.1-0.5-2.3-0.5-3.4
	c0-5.9,1.6-8.3,9.7-14.7c13.3-10.5,16.6-16.2,16.6-25.2c0-11.8-9.3-20.1-25-20.1c-13.7,0-26,9.6-26,19.8c-0.2,4.3,3,7.9,7.3,8.2
	c0.2,0,0.4,0,0.7,0c4.2,0.3,7.8-2.8,8.1-7c0-0.3,0-0.6,0-1c-0.2-2.5-1.5-4.9-3.6-6.3c-1.1-0.6-1.7-1.8-1.6-3c0-3.8,5-7.9,11.1-7.9
	c7.3,0,13,5.1,13,17.4C826,192,823.4,199.7,818.4,205.8L818.4,205.8z M814.3,237.7c-4.8,0-8.7,3.8-8.7,8.6c0,4.8,3.8,8.7,8.6,8.7
	s8.7-3.8,8.7-8.6v-0.1C822.9,241.6,819.1,237.8,814.3,237.7L814.3,237.7z"/>
</svg>
